<svg width="59.28" height="90.12" viewBox="0 0 59.28 90.12" xmlns="http://www.w3.org/2000/svg"><g id="svgGroup" stroke-linecap="round" fill-rule="evenodd" font-size="9pt" stroke="#10265e" stroke-width="0.5mm" fill="#ffffff" style="stroke:#10265e;stroke-width:0.5mm;fill:#ffffff"><path d="M 37.68 50.28 L 37.68 48.84 A 4.896 4.896 0 0 1 37.258 48.903 Q 36.815 48.952 36.204 48.959 A 18.213 18.213 0 0 1 36 48.96 Q 33 48.96 30.12 48.12 Q 27.24 47.28 24.24 47.28 Q 22.68 47.28 21.24 47.64 L 21.24 48.12 Q 25.08 48.36 29.1 48.9 A 130.402 130.402 0 0 1 37.189 50.254 A 141.668 141.668 0 0 1 37.32 50.28 Q 33.48 49.68 29.1 49.2 Q 24.72 48.72 20.88 48.72 A 72.652 72.652 0 0 0 19 48.743 A 60.477 60.477 0 0 0 17.94 48.78 Q 16.56 48.84 15.24 48.96 Q 15.24 50.693 15.297 52.822 A 222.849 222.849 0 0 0 15.36 54.84 Q 15.48 58.2 15.84 61.38 Q 16.2 64.56 16.68 66.96 A 16.698 16.698 0 0 0 16.918 67.993 Q 17.324 69.511 17.867 70.067 A 1.549 1.549 0 0 0 17.88 70.08 L 18.96 72.24 A 5.439 5.439 0 0 0 21.932 75.5 Q 24.091 76.553 27.673 76.666 A 27.987 27.987 0 0 0 28.56 76.68 Q 29.929 76.68 31.715 76.402 A 34.884 34.884 0 0 0 32.88 76.2 Q 35.4 75.72 37.98 75.06 A 110.672 110.672 0 0 1 41.414 74.238 A 93.917 93.917 0 0 1 42.9 73.92 Q 45.24 73.44 46.92 73.44 Q 48.284 73.44 48.699 73.756 A 0.476 0.476 0 0 1 48.84 73.92 A 1.948 1.948 0 0 1 48.986 74.328 Q 49.036 74.533 49.059 74.777 A 4.85 4.85 0 0 1 49.08 75.24 Q 44.04 75.84 39.36 77.04 Q 35.28 78.12 31.44 78.72 Q 35.28 78.12 39.24 77.28 Q 43.92 76.2 48.72 75.6 A 11.935 11.935 0 0 0 48.627 75.892 Q 48.505 76.292 48.484 76.489 A 0.697 0.697 0 0 0 48.48 76.56 A 1.449 1.449 0 0 0 48.956 77.652 A 1.966 1.966 0 0 0 49.08 77.76 L 50.76 77.52 Q 51.48 77.4 52.2 77.34 A 4.845 4.845 0 0 0 53.073 77.189 A 4.118 4.118 0 0 0 53.52 77.04 Q 55.292 77.532 56.216 78.105 A 3.725 3.725 0 0 1 56.58 78.36 A 3.189 3.189 0 0 1 57.035 78.798 Q 57.48 79.329 57.48 79.92 Q 57.48 81.48 55.98 82.08 A 7.82 7.82 0 0 0 54.089 83.178 A 9.898 9.898 0 0 0 53.16 84 L 52.68 84 A 41.041 41.041 0 0 0 46.366 84.475 A 37.881 37.881 0 0 0 45.96 84.54 Q 42.72 85.08 39.54 85.68 Q 36.36 86.28 33.06 86.82 Q 29.76 87.36 26.28 87.36 L 24.6 87.36 L 23.88 87.36 A 43.456 43.456 0 0 0 26.832 87.565 A 53.671 53.671 0 0 0 28.8 87.6 Q 32.16 87.6 35.1 87.24 A 114.794 114.794 0 0 0 40.627 86.43 A 105.585 105.585 0 0 0 40.8 86.4 A 165.733 165.733 0 0 1 44.839 85.747 A 148.514 148.514 0 0 1 46.14 85.56 Q 48.72 85.2 51.36 85.2 A 26.425 26.425 0 0 1 49.591 85.999 Q 48.276 86.54 46.68 87.06 A 46.94 46.94 0 0 1 43.385 87.997 A 60.115 60.115 0 0 1 40.56 88.62 A 90.312 90.312 0 0 1 33.825 89.674 A 98.419 98.419 0 0 1 33.6 89.7 Q 30 90.12 26.52 90.12 Q 24.12 90.12 21.84 89.88 A 11.945 11.945 0 0 1 19.547 89.394 Q 18.281 89.001 16.92 88.32 L 16.8 87 A 8.606 8.606 0 0 1 15.323 86.296 Q 14.634 85.889 13.917 85.325 A 17.122 17.122 0 0 1 13.26 84.78 Q 11.4 83.16 9.84 81.36 Q 8.384 79.68 7.346 78.208 A 28.605 28.605 0 0 1 7.2 78 A 20.882 20.882 0 0 1 6.833 77.453 Q 6.12 76.35 6.12 75.96 L 5.76 74.88 A 24.335 24.335 0 0 1 4.474 71.518 A 29.158 29.158 0 0 1 4.02 69.84 Q 3.36 67.08 3 64.26 Q 2.64 61.44 2.4 58.68 Q 2.16 55.92 2.04 53.52 Q 1.8 49.56 1.68 45.54 Q 1.56 41.52 1.56 37.44 Q 1.56 33.36 1.62 29.22 Q 1.68 25.08 1.68 20.88 L 1.32 20.88 A 78.089 78.089 0 0 0 0.724 27.517 A 68.2 68.2 0 0 0 0.66 29.64 Q 0.6 33.84 0.6 38.04 L 0.6 42.72 Q 0.6 51.12 1.5 60.24 Q 2.4 69.36 6.12 78 A 29.415 29.415 0 0 1 3.763 73.044 A 23.426 23.426 0 0 1 2.64 68.7 Q 1.92 64.08 1.32 60.12 Q 0.6 54.96 0.3 50.16 Q 0 45.36 0 40.32 L 0 37.8 Q 0 30.84 0.36 23.64 Q 0.72 16.44 2.52 8.4 Q 1.949 8.4 1.831 7.947 A 1.061 1.061 0 0 1 1.8 7.68 Q 1.8 7.1 2.306 6.131 A 10.734 10.734 0 0 1 2.58 5.64 A 13.428 13.428 0 0 1 3.785 3.933 A 16.31 16.31 0 0 1 4.56 3.06 Q 5.76 1.8 7.26 0.9 A 6.89 6.89 0 0 1 8.55 0.289 A 5.027 5.027 0 0 1 10.2 0 L 38.76 0 Q 43.2 0.84 47.46 1.38 A 116.178 116.178 0 0 0 54.086 2.021 A 132.412 132.412 0 0 0 56.4 2.16 L 56.28 4.92 A 1.246 1.246 0 0 1 55.836 5.899 A 1.768 1.768 0 0 1 55.62 6.06 A 1.688 1.688 0 0 1 55.205 6.239 Q 54.498 6.453 53.059 6.477 A 22.56 22.56 0 0 1 52.68 6.48 A 21.634 21.634 0 0 1 52.098 6.472 Q 51.578 6.457 50.94 6.42 Q 49.92 6.36 48.72 6.24 L 48.72 7.32 A 45.825 45.825 0 0 1 51.59 8.042 Q 53.056 8.465 54.273 8.944 A 18.626 18.626 0 0 1 56.46 9.96 Q 58.379 11.021 58.992 12.027 A 1.784 1.784 0 0 1 59.28 12.96 A 1.536 1.536 0 0 1 58.51 14.294 Q 57.866 14.718 56.683 14.918 A 10.684 10.684 0 0 1 56.1 15 Q 52.92 15.36 47.64 15.36 Q 40.92 15.36 33.3 15.3 A 194.773 194.773 0 0 1 20.49 14.79 A 175.403 175.403 0 0 1 18.6 14.64 L 16.56 14.64 Q 15.96 19.2 15.72 24 Q 15.48 28.8 15.36 33.84 Q 17.28 33.84 19.14 33.66 Q 21 33.48 23.04 33.48 A 22.447 22.447 0 0 1 24.376 33.522 Q 25.185 33.571 26.093 33.674 A 41.338 41.338 0 0 1 26.94 33.78 A 77.279 77.279 0 0 1 30.106 34.278 A 91.356 91.356 0 0 1 31.62 34.56 Q 34.08 35.04 36.54 35.7 A 68.176 68.176 0 0 1 39.175 36.461 A 53.33 53.33 0 0 1 41.04 37.08 Q 41.378 37.193 41.821 37.2 A 3.751 3.751 0 0 0 41.88 37.2 L 43.92 37.2 Q 45.069 37.2 45.665 37.461 A 1.335 1.335 0 0 1 46.02 37.68 Q 46.48 38.089 46.548 39.193 A 6.599 6.599 0 0 1 46.56 39.6 A 31.063 31.063 0 0 1 44.104 39.506 A 26.088 26.088 0 0 1 42.72 39.36 Q 40.92 39.12 39.24 38.88 Q 40.92 39.48 42.72 39.78 A 75.705 75.705 0 0 0 45.064 40.132 A 90.321 90.321 0 0 0 46.56 40.32 A 5.744 5.744 0 0 0 46.395 40.788 Q 46.296 41.115 46.26 41.4 A 9.013 9.013 0 0 0 46.223 41.743 Q 46.209 41.913 46.203 42.065 A 4.847 4.847 0 0 0 46.2 42.24 A 2.965 2.965 0 0 1 46.874 42.454 A 1.881 1.881 0 0 1 47.82 43.38 A 4.524 4.524 0 0 1 48.23 45.027 A 5.349 5.349 0 0 1 48.24 45.36 A 5.966 5.966 0 0 1 48.166 46.334 Q 48.018 47.222 47.58 47.82 A 6.913 6.913 0 0 0 47.307 48.219 Q 47.061 48.608 46.972 48.899 A 1.032 1.032 0 0 0 46.92 49.2 Q 42.24 47.52 37.2 47.04 Q 32.4 46.44 27.36 45.96 Q 31.92 46.68 36.72 47.28 Q 41.76 47.88 46.2 49.92 Q 45.72 50.4 45.24 50.76 A 2.051 2.051 0 0 1 44.873 50.983 Q 44.604 51.107 44.336 51.119 A 1.281 1.281 0 0 1 44.28 51.12 Q 42.6 51.12 41.04 50.7 A 12.304 12.304 0 0 0 38.674 50.313 A 14.604 14.604 0 0 0 37.68 50.28 Z M 4.68 62.76 Q 5.16 65.64 5.82 68.94 Q 6.48 72.24 7.86 75.42 Q 9.24 78.6 11.64 81.36 Q 13.56 83.64 16.68 85.2 Q 13.08 83.28 10.8 79.92 A 34.447 34.447 0 0 1 7.157 72.352 A 39.436 39.436 0 0 1 6.66 70.8 A 65.774 65.774 0 0 1 4.737 62.214 A 74.264 74.264 0 0 1 4.44 60.12 Q 3.84 54.48 3.48 49.32 Q 3.6 52.56 3.84 55.92 Q 4.08 59.28 4.68 62.76 Z M 34.08 38.28 Q 36.12 38.64 38.4 38.88 A 39.449 39.449 0 0 0 35.92 38.273 A 31.819 31.819 0 0 0 34.32 37.98 Q 32.4 37.68 30.48 37.2 A 12.908 12.908 0 0 0 32.33 37.88 A 17.144 17.144 0 0 0 34.08 38.28 Z M 14.4 87.48 Q 12.84 86.76 11.64 85.8 Q 10.8 85.08 10.08 84.36 A 9.015 9.015 0 0 0 11.239 85.333 A 10.636 10.636 0 0 0 11.76 85.68 Q 13.08 86.64 14.4 87.48 Z M 16.92 85.32 L 18 85.8 L 16.92 85.32 Z" vector-effect="non-scaling-stroke"/></g></svg>