<svg width="54.121" height="84.24" viewBox="0 0 54.121 84.24" xmlns="http://www.w3.org/2000/svg"><g id="svgGroup" stroke-linecap="round" fill-rule="evenodd" font-size="9pt" stroke="#10265e" stroke-width="0.5mm" fill="#ffffff" style="stroke:#10265e;stroke-width:0.5mm;fill:#ffffff"><path d="M 30.6 68.28 L 32.52 68.76 Q 34.56 67.56 36.42 66 A 5.011 5.011 0 0 0 38.266 62.346 A 6.51 6.51 0 0 0 38.28 61.92 A 4.657 4.657 0 0 0 38.011 60.425 Q 37.569 59.125 36.405 57.578 A 18.945 18.945 0 0 0 36 57.06 A 49.491 49.491 0 0 0 32.547 53.233 A 59.062 59.062 0 0 0 30.72 51.48 Q 27.72 48.72 24.66 46.32 A 219.289 219.289 0 0 0 23.224 45.203 Q 21.234 43.668 20.068 42.859 A 31.589 31.589 0 0 0 20.04 42.84 L 21 36.24 A 9.959 9.959 0 0 1 22.231 35.73 Q 22.869 35.512 23.605 35.341 A 17.084 17.084 0 0 1 23.88 35.28 A 191.498 191.498 0 0 0 26.468 34.706 A 213.504 213.504 0 0 0 27.36 34.5 A 17.826 17.826 0 0 0 30.127 33.619 A 16.082 16.082 0 0 0 30.72 33.36 Q 32.28 32.64 33.24 31.2 L 32.52 30.84 A 0.42 0.42 0 0 1 32.391 31.011 Q 32.036 31.321 30.78 31.74 A 367.753 367.753 0 0 1 29.112 32.291 Q 28.172 32.6 27.12 32.94 A 4945.735 4945.735 0 0 1 24.161 33.896 A 4290.302 4290.302 0 0 1 23.22 34.2 Q 21.36 34.8 20.64 35.16 L 20.76 35.4 Q 20.76 35.64 20.4 35.64 L 20.28 35.52 L 19.2 43.68 A 38.434 38.434 0 0 0 20.594 44.913 Q 22.073 46.164 24.12 47.7 Q 27.24 50.04 30.3 52.56 Q 33.36 55.08 35.64 57.66 A 13.907 13.907 0 0 1 36.717 59.031 Q 37.786 60.601 37.905 61.946 A 3.782 3.782 0 0 1 37.92 62.28 A 2.436 2.436 0 0 1 37.624 63.432 A 3.299 3.299 0 0 1 37.32 63.9 A 6.938 6.938 0 0 1 36.366 64.905 A 8.457 8.457 0 0 1 35.82 65.34 Q 34.92 66 33.96 66.6 A 9.514 9.514 0 0 1 33.395 66.95 Q 32.996 67.178 32.64 67.32 Q 33.11 67.085 33.808 66.621 A 22.028 22.028 0 0 0 33.84 66.6 A 20.582 20.582 0 0 0 35.535 65.422 A 18.907 18.907 0 0 0 35.64 65.34 Q 36.48 64.68 37.08 63.9 A 3.571 3.571 0 0 0 37.419 63.377 Q 37.58 63.067 37.642 62.768 A 1.817 1.817 0 0 0 37.68 62.4 A 5.028 5.028 0 0 0 37.258 60.45 Q 36.941 59.694 36.386 58.903 A 13.389 13.389 0 0 0 35.22 57.48 Q 32.76 54.84 29.58 52.32 A 153.432 153.432 0 0 0 23.67 47.859 A 140.628 140.628 0 0 0 23.28 47.58 A 57.668 57.668 0 0 1 21.668 46.393 Q 20.229 45.292 19.336 44.427 A 11.934 11.934 0 0 1 18.84 43.92 Q 19.124 42.119 19.184 41.067 A 9.016 9.016 0 0 0 19.2 40.56 Q 19.2 39.48 19.32 37.56 A 0.353 0.353 0 0 0 19.508 37.395 Q 19.654 37.151 19.676 36.578 A 5.607 5.607 0 0 0 19.68 36.36 L 19.68 34.92 Q 23.04 33.48 25.92 32.64 A 29.892 29.892 0 0 0 29.653 31.286 A 25.743 25.743 0 0 0 31.2 30.54 A 15.785 15.785 0 0 0 35.015 27.71 A 18.22 18.22 0 0 0 35.58 27.12 A 15.364 15.364 0 0 0 37.025 25.252 Q 37.701 24.238 38.354 22.984 A 36.087 36.087 0 0 0 39.36 20.88 Q 39.36 17.28 36 15.18 Q 33.198 13.429 28.977 13.138 A 25.283 25.283 0 0 0 27.24 13.08 Q 25.56 13.08 23.7 13.56 Q 21.84 14.04 19.92 14.7 Q 18 15.36 16.14 16.08 Q 14.28 16.8 12.72 17.28 Q 12.6 16.44 12.06 15.78 Q 11.52 15.12 11.52 14.28 A 1.225 1.225 0 0 1 11.809 13.498 Q 12.012 13.244 12.36 13.02 A 7.314 7.314 0 0 1 13.4 12.469 A 9.618 9.618 0 0 1 14.34 12.12 A 26.976 26.976 0 0 1 16.153 11.614 A 24.021 24.021 0 0 1 16.56 11.52 Q 17.6 11.289 18.083 11.169 A 18.082 18.082 0 0 0 18.12 11.16 L 17.76 9.72 A 4.27 4.27 0 0 1 17.329 9.834 Q 16.553 10.004 15.06 10.14 Q 13.08 10.32 11.04 10.32 A 17.181 17.181 0 0 1 8.917 10.194 A 13.424 13.424 0 0 1 7.32 9.9 A 3.907 3.907 0 0 1 6.666 9.679 Q 6.325 9.526 6.098 9.32 A 1.343 1.343 0 0 1 5.64 8.28 Q 5.64 6.6 8.76 5.1 Q 11.88 3.6 15.84 2.46 Q 19.8 1.32 23.52 0.66 A 107.554 107.554 0 0 1 25.027 0.403 Q 27.503 0 28.44 0 A 26.128 26.128 0 0 1 34.108 0.646 A 32.274 32.274 0 0 1 37.2 1.5 Q 41.76 3 45.54 5.76 Q 49.32 8.52 51.72 12.3 Q 54.12 16.08 54.12 20.76 L 54.12 21.24 Q 54 24.72 52.14 27.66 Q 50.28 30.6 47.64 33 Q 45 35.4 41.94 37.2 Q 39.597 38.578 37.641 39.534 A 40.395 40.395 0 0 1 36.48 40.08 Q 39.72 41.76 42.48 44.22 A 29.817 29.817 0 0 1 46.97 49.202 A 27.815 27.815 0 0 1 47.22 49.56 Q 49.2 52.44 50.34 55.62 A 19.161 19.161 0 0 1 51.404 60.307 A 17.272 17.272 0 0 1 51.48 61.92 A 20.878 20.878 0 0 1 50.922 66.879 A 14.908 14.908 0 0 1 47.82 73.08 A 25.388 25.388 0 0 1 39.04 79.704 A 29.253 29.253 0 0 1 38.7 79.86 A 44.688 44.688 0 0 1 27.737 83.152 A 50.018 50.018 0 0 1 26.94 83.28 A 87.044 87.044 0 0 1 20.183 84.053 A 67.848 67.848 0 0 1 15.24 84.24 A 9.696 9.696 0 0 1 14.825 84.229 Q 14.247 84.204 13.285 84.118 A 84.977 84.977 0 0 1 12.66 84.06 A 33.794 33.794 0 0 1 9.558 83.609 A 38.146 38.146 0 0 1 8.82 83.46 Q 6.84 83.04 5.34 82.32 A 4.365 4.365 0 0 1 4.702 81.95 Q 4.392 81.73 4.194 81.484 A 1.504 1.504 0 0 1 3.84 80.52 L 4.08 79.92 Q 10.44 82.2 17.4 82.2 Q 21.84 82.2 26.16 81.3 Q 30.48 80.4 34.68 78.84 Q 30.6 80.16 26.34 81 A 45.176 45.176 0 0 1 26.274 81.013 A 44.243 44.243 0 0 1 17.76 81.84 A 37.466 37.466 0 0 1 8.251 80.662 A 33.691 33.691 0 0 1 4.8 79.56 L 5.64 78.24 A 10.182 10.182 0 0 1 5.066 77.928 Q 4.766 77.752 4.432 77.536 A 21.58 21.58 0 0 1 3.96 77.22 Q 3 76.56 2.1 75.72 A 12.846 12.846 0 0 1 1.229 74.827 A 9.853 9.853 0 0 1 0.6 74.04 Q 0 73.2 0 72.24 Q 0 71.36 0.706 70.933 A 1.923 1.923 0 0 1 0.84 70.86 Q 1.68 70.44 2.52 70.44 Q 3.36 70.44 4.2 70.5 Q 5.04 70.56 5.88 70.56 Q 8.4 72.36 11.52 73.02 Q 14.64 73.68 17.76 73.68 A 19.838 19.838 0 0 0 19.196 73.622 Q 21.078 73.484 23.82 73.02 Q 27.72 72.36 31.44 70.98 A 25.886 25.886 0 0 0 35.519 69.066 A 21.536 21.536 0 0 0 37.92 67.44 A 8.598 8.598 0 0 0 39.434 65.945 A 5.661 5.661 0 0 0 40.68 62.4 A 6.934 6.934 0 0 0 40.206 59.933 Q 39.837 58.958 39.18 57.96 A 29.102 29.102 0 0 0 36.595 54.61 A 33.907 33.907 0 0 0 35.58 53.52 Q 33.48 51.36 31.2 49.56 A 64.421 64.421 0 0 1 29.53 48.241 Q 28.78 47.627 28.137 47.056 A 35.625 35.625 0 0 1 27.72 46.68 A 34.164 34.164 0 0 0 28.811 47.721 Q 29.433 48.289 30.163 48.912 A 69.837 69.837 0 0 0 31.08 49.68 Q 33.36 51.48 35.34 53.64 A 30.057 30.057 0 0 1 38.392 57.558 A 27.491 27.491 0 0 1 38.76 58.14 Q 40.049 60.235 40.184 62.186 A 6.579 6.579 0 0 1 40.2 62.64 A 5.444 5.444 0 0 1 38.657 66.443 A 8.249 8.249 0 0 1 37.62 67.38 A 21.007 21.007 0 0 1 33.747 69.716 A 25.777 25.777 0 0 1 31.56 70.62 Q 28.08 71.88 24.48 72.48 Q 21.513 72.975 19.606 73.061 A 16.861 16.861 0 0 1 18.84 73.08 Q 15.84 73.08 12.9 72.54 Q 9.96 72 7.32 70.56 A 16.886 16.886 0 0 1 8.626 70.396 A 18.747 18.747 0 0 1 8.82 70.38 A 20.196 20.196 0 0 1 9.956 70.324 A 17.828 17.828 0 0 1 10.32 70.32 A 74.243 74.243 0 0 1 13.292 70.377 A 58.175 58.175 0 0 1 15.42 70.5 Q 17.76 70.68 20.04 70.68 Q 22.56 70.68 25.08 70.2 A 18.274 18.274 0 0 0 27.377 69.596 Q 28.529 69.217 29.766 68.666 A 31.902 31.902 0 0 0 30.6 68.28 Z M 45.84 71.04 A 11.93 11.93 0 0 0 48.382 65.952 Q 48.84 64.05 48.84 61.8 Q 48.84 57.36 46.68 53.64 Q 44.52 50.04 41.52 47.04 Q 44.64 50.4 46.44 54.6 Q 48.36 58.8 48.36 63.72 A 8.492 8.492 0 0 1 47.634 67.12 A 10.184 10.184 0 0 1 47.34 67.74 Q 46.32 69.72 44.82 71.46 Q 43.32 73.2 41.52 74.64 A 27.55 27.55 0 0 1 40.348 75.567 Q 39.574 76.144 38.88 76.56 A 30.23 30.23 0 0 0 43.043 73.72 A 24.133 24.133 0 0 0 45.84 71.04 Z M 38.447 76.862 A 0.541 0.541 0 0 0 38.52 76.8 A 0.252 0.252 0 0 0 38.441 76.813 Q 38.397 76.828 38.353 76.858 A 0.541 0.541 0 0 0 38.28 76.92 A 0.252 0.252 0 0 0 38.36 76.907 Q 38.403 76.892 38.447 76.862 Z" vector-effect="non-scaling-stroke"/></g></svg>