<svg width="111.841" height="103.68" viewBox="0 0 111.841 103.68" xmlns="http://www.w3.org/2000/svg"><g id="svgGroup" stroke-linecap="round" fill-rule="evenodd" font-size="9pt" stroke="#10265e" stroke-width="0.5mm" fill="#ffffff" style="stroke:#10265e;stroke-width:0.5mm;fill:#ffffff"><path d="M 3.721 88.56 L 6.001 88.56 Q 8.881 90 11.881 91.44 Q 14.881 92.88 18.241 92.88 Q 21.721 92.88 24.361 90.84 A 17.972 17.972 0 0 0 27.916 87.139 A 21.587 21.587 0 0 0 28.921 85.62 A 30.146 30.146 0 0 0 31.063 81.294 A 37.331 37.331 0 0 0 32.101 78.36 Q 33.361 74.28 34.201 70.26 Q 35.041 66.24 35.401 62.64 Q 35.521 61.32 35.641 60.24 Q 35.521 61.2 35.401 62.28 Q 34.921 65.76 34.081 69.78 Q 33.241 73.8 32.041 77.82 A 38.922 38.922 0 0 1 30.306 82.54 A 32.364 32.364 0 0 1 29.041 85.08 A 21.329 21.329 0 0 1 27.025 88.102 A 16.65 16.65 0 0 1 24.841 90.36 Q 22.441 92.4 19.201 92.4 Q 16.201 92.4 13.381 91.26 A 30.786 30.786 0 0 1 8.538 88.801 A 28.347 28.347 0 0 1 8.161 88.56 Q 10.921 88.56 13.441 89.28 Q 15.961 90 18.721 90 Q 20.415 90 21.6 89.522 A 4.549 4.549 0 0 0 22.501 89.04 A 9.374 9.374 0 0 0 23.739 87.998 Q 24.479 87.264 25.201 86.28 L 26.881 86.4 A 53.035 53.035 0 0 0 30.057 78.96 A 62.787 62.787 0 0 0 31.201 75.24 Q 32.881 69.12 33.841 62.64 Q 34.801 56.16 35.161 49.74 Q 35.521 43.32 35.521 37.68 L 35.521 33.96 A 61.545 61.545 0 0 0 35.401 30.12 L 35.041 30.6 Q 34.801 36.6 34.561 43.86 Q 34.321 51.12 33.541 58.44 Q 32.761 65.76 31.141 72.6 Q 29.521 79.44 26.521 84.72 A 47.686 47.686 0 0 0 30.224 75.547 A 60.068 60.068 0 0 0 31.681 69.3 Q 33.241 60.6 33.781 51.36 Q 34.321 42.12 34.441 32.94 Q 34.561 23.76 35.281 16.08 Q 28.561 15.36 21.541 14.52 Q 14.521 13.68 7.801 13.68 Q 7.801 12.761 7.766 12.194 A 8.423 8.423 0 0 0 7.741 11.88 Q 7.681 11.28 7.681 10.68 Q 7.681 9.795 8.808 9.474 A 4.185 4.185 0 0 1 9.361 9.36 Q 11.037 9.121 11.758 9.12 A 2.679 2.679 0 0 1 11.761 9.12 L 12.001 9.12 L 14.761 9.24 L 14.761 7.8 Q 14.098 7.69 12.57 7.426 A 1419.986 1419.986 0 0 1 12.301 7.38 A 25.195 25.195 0 0 1 9.738 6.794 A 29.388 29.388 0 0 1 8.701 6.48 Q 6.841 5.88 5.461 5.04 Q 4.081 4.2 4.081 3.12 Q 4.081 2.218 5.631 1.65 A 8.116 8.116 0 0 1 6.301 1.44 Q 8.521 0.84 11.281 0.48 A 52.24 52.24 0 0 1 15.124 0.118 A 45.024 45.024 0 0 1 16.561 0.06 A 579.791 579.791 0 0 1 17.577 0.037 Q 19.238 0 19.801 0 A 115.866 115.866 0 0 1 30.584 0.488 A 104.321 104.321 0 0 1 32.281 0.66 A 138.261 138.261 0 0 1 40.814 1.88 A 162.731 162.731 0 0 1 44.881 2.64 L 50.761 11.04 Q 49.921 15.36 49.561 21.66 Q 49.201 27.96 48.961 35.28 A 733.631 733.631 0 0 1 48.5 46.598 A 825.96 825.96 0 0 1 48.301 50.52 Q 47.881 58.44 46.741 66 A 100.855 100.855 0 0 1 44.011 78.679 A 91.674 91.674 0 0 1 43.501 80.4 A 49.154 49.154 0 0 1 40.611 87.747 A 39.906 39.906 0 0 1 37.921 92.4 Q 34.441 97.56 29.221 100.62 Q 24.001 103.68 16.681 103.68 A 19.483 19.483 0 0 1 12.933 103.299 A 25.525 25.525 0 0 1 10.021 102.54 Q 6.481 101.4 4.201 99.12 L 4.561 98.16 Q 7.681 99.72 10.921 100.62 Q 14.161 101.52 17.641 101.52 A 20.399 20.399 0 0 0 25.619 99.866 A 23.145 23.145 0 0 0 25.681 99.84 Q 21.961 101.16 18.121 101.16 A 22.61 22.61 0 0 1 12.405 100.451 A 20.925 20.925 0 0 1 11.521 100.2 Q 8.401 99.24 5.281 97.8 L 6.121 96.36 A 126.809 126.809 0 0 1 5.791 96.161 Q 5.42 95.937 4.921 95.633 A 478.75 478.75 0 0 1 4.441 95.34 Q 3.361 94.68 2.401 93.9 A 11.299 11.299 0 0 1 0.952 92.498 A 10.248 10.248 0 0 1 0.721 92.22 A 4.743 4.743 0 0 1 0.373 91.728 Q 0.009 91.131 0.001 90.623 A 1.449 1.449 0 0 1 0.001 90.6 A 1.452 1.452 0 0 1 0.643 89.345 Q 0.963 89.12 1.441 88.98 Q 2.736 88.602 3.546 88.564 A 3.736 3.736 0 0 1 3.721 88.56 Z M 84.001 42.36 Q 84.601 39.72 85.801 37.44 L 86.161 36.84 L 85.801 37.44 Q 84.601 39.72 84.001 42.36 Q 83.281 45.48 83.041 48.96 Q 83.041 52.8 83.281 55.98 Q 83.521 59.16 83.761 63.24 L 84.001 66.72 L 82.561 63 A 50.147 50.147 0 0 1 82.416 62.372 A 45.164 45.164 0 0 1 81.661 58.08 A 31.675 31.675 0 0 1 81.656 58.042 Q 81.361 55.656 81.361 52.68 Q 81.361 47.64 82.621 43.02 A 38.606 38.606 0 0 1 83.873 39.196 A 29.731 29.731 0 0 1 85.921 34.92 L 87.481 34.68 A 22.652 22.652 0 0 0 87.63 34.438 A 24.925 24.925 0 0 0 88.621 32.64 A 15.145 15.145 0 0 1 88.828 32.241 A 13.396 13.396 0 0 1 89.821 30.66 Q 90.481 29.76 91.441 29.16 A 3.804 3.804 0 0 1 92.562 28.692 A 4.871 4.871 0 0 1 93.721 28.56 A 16.158 16.158 0 0 1 95.849 28.704 A 19.769 19.769 0 0 1 99.001 29.4 Q 101.761 30.24 103.801 31.08 Q 102.121 29.04 99.481 27.66 Q 96.841 26.28 93.721 26.28 A 6.972 6.972 0 0 0 89.69 27.499 A 8.698 8.698 0 0 0 87.721 29.4 A 36.172 36.172 0 0 0 86.793 30.584 A 40.807 40.807 0 0 0 83.761 35.28 L 85.321 32.4 A 22.429 22.429 0 0 1 85.876 31.466 A 19.258 19.258 0 0 1 87.721 28.98 Q 89.041 27.48 90.661 26.58 A 6.889 6.889 0 0 1 92.475 25.891 A 8.768 8.768 0 0 1 94.441 25.68 A 12.375 12.375 0 0 1 95.274 25.708 A 10.331 10.331 0 0 1 99.241 26.76 A 28.635 28.635 0 0 1 100.793 27.595 A 23.178 23.178 0 0 1 103.081 29.1 Q 104.761 30.36 105.901 31.56 A 30.242 30.242 0 0 0 105.915 31.575 Q 107.043 32.761 107.401 32.88 A 10.844 10.844 0 0 0 108.347 33.301 Q 108.859 33.499 109.319 33.603 A 4.355 4.355 0 0 0 110.281 33.72 Q 111.841 33.72 111.841 31.68 A 2.604 2.604 0 0 0 111.839 31.591 Q 111.823 31.121 111.64 30.484 A 9.593 9.593 0 0 0 111.421 29.82 Q 111.001 28.68 110.401 27.6 A 11.071 11.071 0 0 0 109.914 26.802 A 8.783 8.783 0 0 0 109.081 25.74 A 4.72 4.72 0 0 0 108.959 25.613 Q 108.576 25.228 108.228 25.07 A 1.128 1.128 0 0 0 107.761 24.96 A 1.488 1.488 0 0 1 107.777 24.737 A 0.975 0.975 0 0 1 108.181 24.06 Q 108.404 23.901 108.678 23.758 A 5.815 5.815 0 0 1 109.201 23.52 A 20.81 20.81 0 0 0 106.979 21.757 A 24.372 24.372 0 0 0 102.601 19.38 Q 98.761 17.76 94.561 17.76 A 32.777 32.777 0 0 0 93.835 17.768 Q 90.524 17.841 88.681 18.6 A 22.615 22.615 0 0 0 88.272 18.784 Q 87.377 19.197 86.407 19.735 A 39.518 39.518 0 0 0 84.481 20.88 Q 86.641 19.44 88.561 18.48 Q 90.601 17.4 94.681 17.4 Q 98.881 17.4 102.841 18.96 Q 106.801 20.52 109.921 23.52 Q 110.416 23.355 110.571 22.963 A 1.091 1.091 0 0 0 110.641 22.56 L 109.921 21.36 Q 109.321 20.16 107.581 18.78 A 11.386 11.386 0 0 0 106.424 17.981 Q 104.913 17.061 102.721 16.26 A 15.535 15.535 0 0 0 100.762 15.695 Q 98.176 15.12 94.681 15.12 A 27.3 27.3 0 0 0 93.766 15.135 Q 91.33 15.217 89.251 15.74 A 14.67 14.67 0 0 0 83.821 18.3 Q 81.298 20.238 79.109 23.267 A 36.77 36.77 0 0 0 76.441 27.6 Q 75.601 25.56 74.581 23.22 A 71.481 71.481 0 0 0 74.002 21.928 A 61.499 61.499 0 0 0 72.481 18.84 A 41.462 41.462 0 0 0 71.981 17.923 Q 71.176 16.491 70.441 15.48 A 10.107 10.107 0 0 0 70.309 15.303 Q 69.702 14.506 69.247 14.265 A 0.79 0.79 0 0 0 68.881 14.16 A 1.15 1.15 0 0 0 68.806 14.162 Q 68.396 14.189 68.341 14.52 A 5.673 5.673 0 0 0 68.309 14.738 Q 68.295 14.841 68.289 14.932 A 2.488 2.488 0 0 0 68.281 15.12 Q 68.281 15.863 68.479 16.917 A 20.692 20.692 0 0 0 68.701 17.94 Q 69.121 19.68 69.601 21.84 Q 70.081 24 70.561 26.34 A 35.273 35.273 0 0 1 70.912 28.33 A 27.902 27.902 0 0 1 71.161 30.72 Q 70.921 30.72 70.441 30.9 A 5.251 5.251 0 0 1 70.26 30.964 Q 70.033 31.04 69.872 31.066 A 0.954 0.954 0 0 1 69.721 31.08 A 81.042 81.042 0 0 0 69.596 30.45 Q 68.827 26.657 68.161 25.38 Q 67.66 24.421 67.218 24.128 A 0.685 0.685 0 0 0 66.841 24 A 2.499 2.499 0 0 0 66.683 24.005 Q 66.147 24.039 65.521 24.3 Q 64.801 24.6 63.961 24.96 Q 65.041 28.44 65.641 32.04 Q 66.241 35.64 66.241 39.36 Q 66.241 40.08 66.181 40.8 Q 66.121 41.52 66.121 42.24 A 72.054 72.054 0 0 1 66.559 44.521 A 57.779 57.779 0 0 1 67.021 47.64 Q 67.321 50.16 67.561 52.56 L 68.041 57.24 A 117.402 117.402 0 0 0 68.203 58.689 A 137.51 137.51 0 0 0 68.641 62.04 Q 69.241 65.88 70.321 69.6 A 39.645 39.645 0 0 1 71.105 72.763 A 30.397 30.397 0 0 1 71.641 76.56 L 72.241 87.84 L 72.241 90 L 72.721 92.16 A 0.237 0.237 0 0 0 72.756 92.157 Q 72.985 92.122 73.784 91.685 A 27.471 27.471 0 0 0 74.221 91.44 A 3.652 3.652 0 0 1 74.875 91.155 Q 76.177 90.72 78.601 90.72 L 82.081 90.72 A 15.492 15.492 0 0 0 83.295 90.674 A 12.118 12.118 0 0 0 84.721 90.48 L 87.721 89.28 L 87.001 82.44 L 86.641 80.16 A 101.828 101.828 0 0 0 86.28 76.716 A 79.549 79.549 0 0 0 85.681 72.66 A 851.891 851.891 0 0 1 85.643 72.447 A 791.235 791.235 0 0 1 84.541 66 Q 84.001 62.76 83.641 59.52 A 55.719 55.719 0 0 1 83.467 57.669 A 64.651 64.651 0 0 1 83.281 52.68 A 66.479 66.479 0 0 1 83.323 50.291 A 57.061 57.061 0 0 1 83.881 44.04 Q 84.361 40.32 85.801 37.44" vector-effect="non-scaling-stroke"/></g></svg>