<svg width="40.32" height="15.84" viewBox="0 0 40.32 15.84" xmlns="http://www.w3.org/2000/svg"><g id="svgGroup" stroke-linecap="round" fill-rule="evenodd" font-size="9pt" stroke="#10265e" stroke-width="0.5mm" fill="#ffffff" style="stroke:#10265e;stroke-width:0.5mm;fill:#ffffff"><path d="M 25.08 3.48 Q 24.84 3.36 24.48 3.24 Q 24.72 3.36 25.08 3.48 Q 28.08 4.08 31.2 4.32 Q 34.8 4.44 38.4 4.44 L 38.4 4.08 Q 38.4 3.36 38.16 2.7 A 0.807 0.807 0 0 0 38.017 2.451 Q 37.764 2.154 37.199 2.072 A 3.335 3.335 0 0 0 36.72 2.04 A 8.857 8.857 0 0 0 36.624 2.041 Q 35.941 2.048 35.1 2.16 A 14.511 14.511 0 0 1 34.765 2.201 A 12.881 12.881 0 0 1 33.36 2.28 Q 32.468 1.961 31.423 1.693 A 31.446 31.446 0 0 0 29.46 1.26 Q 27.24 0.84 24.96 0.54 Q 22.68 0.24 20.76 0.12 Q 18.84 0 17.76 0 Q 15.96 0 14.16 0.3 Q 12.36 0.6 10.44 0.6 Q 9.12 0.6 7.92 0.48 Q 6.72 0.36 5.4 0.36 Q 3.36 0.36 1.68 1.08 A 2.562 2.562 0 0 0 0.141 2.771 A 3.799 3.799 0 0 0 0 3.84 A 5.225 5.225 0 0 0 0.071 4.7 A 5.721 5.721 0 0 0 0.66 6.42 Q 1.32 7.68 2.64 8.4 L 1.92 9.6 A 1.358 1.358 0 0 0 1.626 9.63 A 0.796 0.796 0 0 0 1.08 10.02 Q 0.942 10.263 0.883 10.566 A 2.499 2.499 0 0 0 0.84 11.04 A 12.87 12.87 0 0 0 0.858 11.736 Q 0.913 12.745 1.14 13.2 Q 1.44 13.8 2.04 14.04 A 4.919 4.919 0 0 0 2.043 14.041 Q 2.642 14.28 3.42 14.46 A 3.92 3.92 0 0 1 3.796 14.567 Q 4.117 14.676 4.466 14.849 A 8.131 8.131 0 0 1 5.16 15.24 L 6.6 15.24 A 194.931 194.931 0 0 0 7.124 15.239 A 178.822 178.822 0 0 0 14.76 15.06 Q 18.72 14.88 22.68 14.88 Q 26.76 14.88 30.72 15.24 Q 27.84 14.88 25.02 14.64 Q 22.2 14.4 19.32 14.4 Q 18.36 14.4 17.4 14.46 Q 16.44 14.52 15.48 14.52 L 15.48 14.28 A 0.844 0.844 0 0 0 15.477 14.201 Q 15.46 14.019 15.36 13.92 A 20.641 20.641 0 0 1 15.495 13.883 Q 17.577 13.32 19.32 13.32 Q 21.6 13.32 23.82 13.74 A 23.003 23.003 0 0 0 24.168 13.803 A 24.981 24.981 0 0 0 28.44 14.16 A 12.517 12.517 0 0 0 28.783 14.155 A 14.535 14.535 0 0 0 29.7 14.1 Q 30.36 14.04 30.96 13.92 L 31.8 15.24 Q 33.12 15.36 34.14 15.48 Q 35.16 15.6 36.6 15.84 A 1.464 1.464 0 0 0 36.899 15.809 Q 37.726 15.637 38.64 14.52 Q 34.44 12.84 29.94 12.6 Q 25.44 12.36 21 11.88 Q 21.96 11.88 22.92 11.82 Q 23.88 11.76 24.84 11.76 Q 27.48 11.76 31.56 12.12 A 45.944 45.944 0 0 1 32.686 12.233 Q 36.062 12.615 38.64 13.44 L 39.12 13.68 A 8.092 8.092 0 0 0 39.592 12.88 A 6.336 6.336 0 0 0 40.32 9.96 A 4.89 4.89 0 0 0 40.314 9.713 A 3.779 3.779 0 0 0 39.36 7.32 L 38.28 7.08 A 0.49 0.49 0 0 0 38.269 6.975 A 0.578 0.578 0 0 0 38.22 6.84 A 0.627 0.627 0 0 1 38.195 6.784 A 0.511 0.511 0 0 1 38.16 6.6 A 2.595 2.595 0 0 1 38.171 6.377 Q 38.211 5.918 38.4 5.16 A 63.035 63.035 0 0 0 38.291 5.141 A 68.294 68.294 0 0 0 31.2 4.32 A 33.168 33.168 0 0 1 29.8 4.239 A 28.862 28.862 0 0 1 25.08 3.48 Z" vector-effect="non-scaling-stroke"/></g></svg>