<svg width="81.6" height="89.88" viewBox="0 0 81.6 89.88" xmlns="http://www.w3.org/2000/svg"><g id="svgGroup" stroke-linecap="round" fill-rule="evenodd" font-size="9pt" stroke="#10265e" stroke-width="0.5mm" fill="#ffffff" style="stroke:#10265e;stroke-width:0.5mm;fill:#ffffff"><path d="M 51.72 75 L 52.08 76.44 A 39.617 39.617 0 0 0 53.431 76.143 Q 54.13 75.977 54.932 75.767 A 95.605 95.605 0 0 0 56.64 75.3 Q 59.4 74.52 61.98 73.32 A 16.82 16.82 0 0 0 65.155 71.412 A 14.732 14.732 0 0 0 66.42 70.32 A 6.346 6.346 0 0 0 67.708 68.598 A 5.472 5.472 0 0 0 68.28 66.12 Q 68.28 62.64 65.76 60 A 22.347 22.347 0 0 0 62.591 57.274 A 30.049 30.049 0 0 0 59.34 55.26 A 46.711 46.711 0 0 0 54.349 52.957 A 58.848 58.848 0 0 0 50.52 51.6 A 170.208 170.208 0 0 0 40.934 48.859 A 156.358 156.358 0 0 0 40.86 48.84 Q 36.12 47.64 31.92 46.68 A 119.566 119.566 0 0 1 29.459 46.092 Q 26.933 45.458 25.2 44.88 L 25.2 45.6 Q 26.893 46.245 29.29 46.917 A 91.825 91.825 0 0 0 31.8 47.58 Q 35.88 48.6 40.62 49.8 Q 45.36 51 50.16 52.5 A 56.814 56.814 0 0 1 55.742 54.557 A 46.53 46.53 0 0 1 58.86 56.04 A 27.632 27.632 0 0 1 62.2 58.084 A 20.387 20.387 0 0 1 65.22 60.72 A 9.379 9.379 0 0 1 67.021 63.435 A 8.291 8.291 0 0 1 67.68 66.72 A 4.079 4.079 0 0 1 67.68 66.75 Q 67.67 68.146 66.704 69.288 A 5.909 5.909 0 0 1 65.88 70.08 A 16.137 16.137 0 0 1 63.372 71.716 A 20.176 20.176 0 0 1 61.62 72.54 Q 59.16 73.56 56.64 74.16 Q 54.12 74.76 52.8 75 A 70.472 70.472 0 0 0 53.636 74.801 Q 54.787 74.521 56.311 74.116 A 216.222 216.222 0 0 0 56.82 73.98 Q 59.28 73.32 61.62 72.24 A 17.597 17.597 0 0 0 64.136 70.83 A 14.393 14.393 0 0 0 65.64 69.66 A 5.393 5.393 0 0 0 66.72 68.366 A 4.369 4.369 0 0 0 67.32 66.12 A 7.086 7.086 0 0 0 65.076 60.843 A 9.174 9.174 0 0 0 64.68 60.48 Q 62.04 58.2 57.72 56.4 Q 53.4 54.6 47.88 53.16 Q 42.36 51.72 36.54 50.04 Q 30.72 48.36 25.2 46.2 A 43.231 43.231 0 0 1 17.958 42.583 A 37.864 37.864 0 0 1 15.36 40.8 Q 11.04 37.56 8.4 33.12 A 18.368 18.368 0 0 1 6.163 27.04 A 25.11 25.11 0 0 1 5.76 22.44 A 21.18 21.18 0 0 1 6.323 17.441 A 16.026 16.026 0 0 1 8.7 12.06 Q 11.64 7.8 16.26 5.1 A 34.408 34.408 0 0 1 26.228 1.238 A 38.45 38.45 0 0 1 26.4 1.2 A 52.09 52.09 0 0 1 34.313 0.085 A 45.694 45.694 0 0 1 37.08 0 Q 44.64 0 51.9 2.16 Q 59.16 4.32 65.64 8.16 A 2.477 2.477 0 0 0 65.322 8.289 Q 64.89 8.503 64.8 8.82 A 5.718 5.718 0 0 0 64.659 9.455 A 6.679 6.679 0 0 0 64.62 9.72 A 2.987 2.987 0 0 1 64.53 10.168 A 2.257 2.257 0 0 1 64.38 10.56 Q 64.231 10.857 63.796 10.909 A 1.664 1.664 0 0 1 63.6 10.92 A 1.925 1.925 0 0 1 63.347 10.9 Q 62.907 10.84 62.088 10.603 A 25.933 25.933 0 0 1 61.74 10.5 Q 60.36 10.08 58.8 9.54 A 284.877 284.877 0 0 0 56.528 8.764 A 250.832 250.832 0 0 0 55.8 8.52 A 47.793 47.793 0 0 1 55.178 8.308 Q 54.248 7.984 53.88 7.8 L 53.52 8.88 A 30.521 30.521 0 0 1 54.101 9.146 Q 55.035 9.585 56.34 10.26 Q 58.08 11.16 59.7 12.42 A 17.062 17.062 0 0 1 61.62 14.151 A 14.49 14.49 0 0 1 62.46 15.12 A 6.15 6.15 0 0 1 63.143 16.178 Q 63.507 16.904 63.581 17.63 A 3.654 3.654 0 0 1 63.6 18 A 2.451 2.451 0 0 1 63.534 18.598 Q 63.291 19.56 62.16 19.56 A 8.43 8.43 0 0 1 60.653 19.414 Q 59.909 19.278 59.078 19.016 A 18.576 18.576 0 0 1 57.9 18.6 Q 55.44 17.64 52.44 16.5 A 72.444 72.444 0 0 0 47.911 14.954 A 84.338 84.338 0 0 0 46.02 14.4 Q 42.6 13.44 39.12 13.44 Q 37.211 13.44 34.754 13.735 A 57.596 57.596 0 0 0 33.78 13.86 Q 30.72 14.28 27.9 15.42 A 14.425 14.425 0 0 0 24.727 17.173 A 12.571 12.571 0 0 0 23.16 18.54 A 6.743 6.743 0 0 0 21.257 22.961 A 8.944 8.944 0 0 0 21.24 23.52 Q 21.24 26.28 23.82 28.2 A 19.873 19.873 0 0 0 26.194 29.701 Q 27.404 30.359 28.846 30.967 A 40.334 40.334 0 0 0 30.66 31.68 Q 34.92 33.24 40.32 34.68 A 320.021 320.021 0 0 1 50 37.43 A 352.163 352.163 0 0 1 51.42 37.86 Q 57.12 39.6 62.52 41.88 A 46.141 46.141 0 0 1 69.694 45.653 A 40.518 40.518 0 0 1 72.18 47.4 Q 76.44 50.64 79.02 55.08 A 18.869 18.869 0 0 1 81.322 61.75 A 24.712 24.712 0 0 1 81.6 65.52 A 24.076 24.076 0 0 1 81.204 70 Q 80.663 72.855 79.386 75.155 A 15.099 15.099 0 0 1 79.2 75.48 Q 76.8 79.56 72.84 82.26 Q 68.88 84.96 63.84 86.46 Q 58.8 87.96 53.46 88.74 Q 48.12 89.52 42.9 89.7 Q 37.763 89.877 33.614 89.88 A 197.701 197.701 0 0 1 33.48 89.88 L 21.48 89.88 Q 20.653 89.88 19.369 89.845 A 170.849 170.849 0 0 1 18.54 89.82 Q 16.68 89.76 14.88 89.58 A 16.037 16.037 0 0 1 13.397 89.365 Q 12.67 89.223 12.044 89.018 A 9.203 9.203 0 0 1 11.76 88.92 Q 10.44 88.44 10.44 87.72 L 10.56 87.12 Q 15.48 87.36 20.28 87.54 Q 25.08 87.72 30 87.72 L 39.12 87.72 Q 43.2 87.6 47.28 87.24 L 43.2 87.48 L 38.28 87.48 L 33.48 87.48 Q 22.2 87.48 11.28 86.76 A 17.679 17.679 0 0 0 11.379 86.343 Q 11.5 85.803 11.517 85.524 A 1.394 1.394 0 0 0 11.52 85.44 A 2.043 2.043 0 0 0 11.379 84.705 A 2.509 2.509 0 0 0 11.28 84.48 A 2.673 2.673 0 0 0 11.113 84.486 Q 10.938 84.497 10.7 84.529 A 9.942 9.942 0 0 0 10.62 84.54 A 5.275 5.275 0 0 1 10.28 84.577 Q 10.089 84.591 9.871 84.597 A 10.777 10.777 0 0 1 9.6 84.6 Q 8.28 84.6 6.66 84.48 Q 5.04 84.36 3.54 84 A 9.965 9.965 0 0 1 2.319 83.628 Q 1.594 83.351 1.02 82.98 Q 0 82.32 0 81.36 Q 0 80.755 0.594 80.234 A 3.155 3.155 0 0 1 0.84 80.04 A 9.068 9.068 0 0 1 1.872 79.407 A 11.92 11.92 0 0 1 2.82 78.96 Q 3.96 78.48 5.1 78.12 A 49.606 49.606 0 0 0 5.636 77.948 Q 6.213 77.758 6.612 77.608 A 11.606 11.606 0 0 0 6.84 77.52 Q 12.6 78.24 18.36 78.72 Q 24.12 79.2 29.88 79.2 Q 32.04 79.2 35.88 79.14 Q 39.72 79.08 44.28 78.72 Q 48.84 78.36 53.52 77.58 A 50.245 50.245 0 0 0 58.519 76.494 A 40.362 40.362 0 0 0 62.04 75.36 A 23.989 23.989 0 0 0 65.112 73.969 Q 66.699 73.103 67.934 72.061 A 14.192 14.192 0 0 0 68.28 71.76 A 6.928 6.928 0 0 0 70.671 66.761 A 8.486 8.486 0 0 0 70.68 66.36 A 10.499 10.499 0 0 0 70.299 63.488 A 9.096 9.096 0 0 0 69.54 61.62 Q 68.4 59.52 66.54 57.9 Q 64.68 56.28 62.4 55.2 A 12.318 12.318 0 0 0 60.72 54.405 A 13.52 13.52 0 0 0 60.6 54.36 A 38.665 38.665 0 0 1 61.863 55.02 A 33.06 33.06 0 0 1 62.4 55.32 Q 64.56 56.52 66.3 58.26 Q 68.04 60 69.12 62.1 Q 70.2 64.2 70.2 66.84 A 6.399 6.399 0 0 1 68.261 71.544 A 7.807 7.807 0 0 1 68.1 71.7 A 14.646 14.646 0 0 1 65.53 73.617 Q 64.267 74.369 62.748 74.981 A 23.726 23.726 0 0 1 62.7 75 A 34.663 34.663 0 0 1 58.294 76.416 A 42.813 42.813 0 0 1 55.38 77.04 Q 51.36 77.76 47.4 78.12 Q 43.44 78.48 40.08 78.54 Q 37.508 78.586 35.779 78.597 A 157.951 157.951 0 0 1 34.8 78.6 Q 28.68 78.6 22.5 78.18 Q 16.32 77.76 10.2 77.16 Q 12.36 76.56 14.58 76.26 Q 16.8 75.96 19.08 75.96 Q 22.92 75.96 26.64 76.02 Q 30.36 76.08 34.08 76.08 Q 38.52 76.08 42.84 75.9 A 76.726 76.726 0 0 0 50.584 75.172 A 84.831 84.831 0 0 0 51.72 75 Z M 69.502 81.164 A 22.091 22.091 0 0 0 73.68 78.24 A 17.313 17.313 0 0 1 73.432 78.526 Q 72.561 79.506 71.647 80.227 A 9.893 9.893 0 0 1 69.36 81.6 Q 67.32 82.56 65.16 83.28 Q 67.32 82.32 69.36 81.24 A 20.68 20.68 0 0 0 69.502 81.164 Z" vector-effect="non-scaling-stroke"/></g></svg>