<svg width="80.28" height="88.801" viewBox="0 0 80.28 88.801" xmlns="http://www.w3.org/2000/svg"><g id="svgGroup" stroke-linecap="round" fill-rule="evenodd" font-size="9pt" stroke="#10265e" stroke-width="0.5mm" fill="#ffffff" style="stroke:#10265e;stroke-width:0.5mm;fill:#ffffff"><path d="M 78 15.24 L 78 12.48 Q 78 11.04 78.12 9.72 A 21.545 21.545 0 0 1 79.244 13.297 Q 79.652 15.098 79.854 17.174 A 40.334 40.334 0 0 1 79.98 18.84 A 197.11 197.11 0 0 1 80.238 25.356 A 164.67 164.67 0 0 1 80.28 29.04 A 363.348 363.348 0 0 1 80.257 33.232 Q 80.228 35.786 80.16 37.98 A 65.16 65.16 0 0 1 79.94 41.611 Q 79.779 43.466 79.511 45.525 A 113.87 113.87 0 0 1 79.32 46.92 L 78.12 48.72 A 70.569 70.569 0 0 1 76.295 58.688 A 58.483 58.483 0 0 1 74.52 64.32 A 38.424 38.424 0 0 1 69.957 73.075 A 34.153 34.153 0 0 1 67.2 76.5 A 31.578 31.578 0 0 1 56.736 83.966 A 36.701 36.701 0 0 1 55.68 84.42 Q 48.84 87.24 39.72 87.24 Q 32.16 87.24 24.9 85.14 Q 17.64 83.04 12 77.64 L 11.76 78.48 A 31.357 31.357 0 0 0 21.808 85.188 A 30.058 30.058 0 0 0 24.54 86.16 Q 31.68 88.32 39.36 88.32 A 48.129 48.129 0 0 0 47.012 87.74 A 35.626 35.626 0 0 0 54.6 85.68 Q 61.2 83.04 66.06 78.3 A 38.278 38.278 0 0 0 73.233 68.581 A 43.968 43.968 0 0 0 74.04 66.96 A 61.228 61.228 0 0 0 77.409 57.992 A 74.356 74.356 0 0 0 78.72 52.8 A 79.317 79.317 0 0 1 76.45 61.351 A 63.603 63.603 0 0 1 74.16 67.32 A 39.014 39.014 0 0 1 69.349 75.653 A 34.696 34.696 0 0 1 66.6 78.84 A 31.486 31.486 0 0 1 55.731 86.057 A 36.069 36.069 0 0 1 55.32 86.22 Q 48.72 88.8 39.6 88.8 Q 30.103 88.8 23.039 86.119 A 33.034 33.034 0 0 1 21.66 85.56 A 33.093 33.093 0 0 1 12.646 79.877 A 30.323 30.323 0 0 1 9.36 76.44 Q 4.56 70.56 2.28 62.4 A 61.345 61.345 0 0 1 0.324 51.58 A 77.255 77.255 0 0 1 0 44.4 Q 0 39.12 0.78 34.02 Q 1.56 28.92 2.64 23.88 Q 3.72 18.84 4.8 13.74 Q 5.88 8.64 6.48 3.48 L 9.36 3.48 Q 10.08 3.72 10.32 4.68 A 11.023 11.023 0 0 1 10.447 5.245 Q 10.56 5.828 10.56 6.24 A 21.474 21.474 0 0 1 10.363 9.187 A 19.65 19.65 0 0 1 10.32 9.48 Q 10.08 11.04 9.84 12.72 L 10.92 12.72 Q 11.018 12.132 11.476 10.623 A 78.929 78.929 0 0 1 11.7 9.9 A 49.702 49.702 0 0 1 13.039 6.179 A 54.533 54.533 0 0 1 13.26 5.64 Q 14.16 3.48 15.24 1.74 Q 16.072 0.399 16.905 0.092 A 1.421 1.421 0 0 1 17.4 0 A 1.024 1.024 0 0 1 18.249 0.434 Q 18.371 0.593 18.467 0.811 A 2.479 2.479 0 0 1 18.48 0.84 A 7.422 7.422 0 0 1 18.828 1.859 A 9.761 9.761 0 0 1 19.02 2.76 Q 19.2 3.84 19.26 4.98 A 68.708 68.708 0 0 1 19.286 5.516 Q 19.31 6.035 19.317 6.409 A 16.177 16.177 0 0 1 19.32 6.72 Q 19.32 11.64 18.66 16.38 Q 18 21.12 17.16 25.92 Q 16.32 30.72 15.66 35.52 Q 15 40.32 15 45.12 Q 15 51.48 16.44 56.76 A 25.014 25.014 0 0 0 18.841 62.638 A 21.621 21.621 0 0 0 21.06 65.82 A 21.166 21.166 0 0 0 28.204 71.292 A 24.813 24.813 0 0 0 29.1 71.7 A 24.207 24.207 0 0 0 34.364 73.259 Q 37.327 73.8 40.8 73.8 A 24.657 24.657 0 0 0 46.56 73.159 A 18.336 18.336 0 0 0 53.1 70.2 Q 58.08 66.6 61.14 61.02 Q 64.2 55.44 65.46 48.72 A 73.657 73.657 0 0 0 66.584 39.961 A 62.482 62.482 0 0 0 66.72 35.88 Q 66.72 30.84 66.24 25.92 Q 65.76 21 65.76 15.96 L 65.76 15.6 Q 65.76 14.624 66.005 13.061 A 35.292 35.292 0 0 1 66.06 12.72 Q 66.349 10.989 67.692 10.923 A 2.203 2.203 0 0 1 67.8 10.92 A 0.141 0.141 0 0 1 67.887 11.034 Q 68.073 11.532 68.22 14.22 A 241.028 241.028 0 0 1 68.376 17.512 Q 68.446 19.242 68.504 21.166 A 403.165 403.165 0 0 1 68.52 21.72 A 643.776 643.776 0 0 1 68.666 27.818 A 561.928 561.928 0 0 1 68.7 29.76 A 1416.64 1416.64 0 0 1 68.72 31.103 Q 68.759 33.702 68.76 34.612 A 43.618 43.618 0 0 1 68.76 34.68 L 68.76 39.48 A 46.91 46.91 0 0 1 68.535 44.01 A 51.138 51.138 0 0 1 68.52 44.16 Q 69.12 41.04 69.18 38.04 Q 69.24 35.04 69.24 31.92 Q 69.24 26.76 69 21.6 L 68.52 11.28 L 70.8 11.28 A 9.182 9.182 0 0 1 70.684 10.51 Q 70.589 9.664 70.567 8.455 A 42.172 42.172 0 0 1 70.56 7.68 Q 70.56 5.52 71.04 3.42 Q 71.52 1.32 73.08 1.32 Q 73.676 1.32 74.273 1.814 A 3.581 3.581 0 0 1 74.52 2.04 A 7.543 7.543 0 0 1 75.607 3.426 A 8.618 8.618 0 0 1 75.78 3.72 Q 76.32 4.68 76.74 5.7 Q 77.156 6.711 77.396 7.191 A 6.845 6.845 0 0 0 77.4 7.2 Q 76.92 9.12 76.74 11.16 Q 76.56 13.2 76.56 15.36 Q 76.56 20.04 76.68 24.9 Q 76.8 29.76 76.8 33.96 Q 76.8 42.48 75.54 51.18 A 56.649 56.649 0 0 1 72.758 62.434 A 49.558 49.558 0 0 1 70.8 67.08 Q 67.32 74.28 60.96 79.26 A 27.181 27.181 0 0 1 52.628 83.629 Q 48.93 84.848 44.52 85.32 A 42.532 42.532 0 0 0 52.103 83.911 Q 56.462 82.656 59.872 80.465 A 24.489 24.489 0 0 0 62.04 78.9 Q 68.64 73.56 72.24 65.7 Q 75.84 57.84 77.04 48.48 Q 78.24 39.12 78.24 30.12 Q 78.24 26.4 78.12 22.68 Q 78 18.96 78 15.24 Z M 59.16 69.6 Q 57.48 70.56 54.72 72.36 A 24.068 24.068 0 0 1 52.414 73.676 Q 51.123 74.328 49.588 74.944 A 50.197 50.197 0 0 1 47.52 75.72 A 23.053 23.053 0 0 0 50.29 74.937 A 26.077 26.077 0 0 0 50.94 74.7 Q 52.68 74.04 54.24 73.14 A 33.924 33.924 0 0 0 56.359 71.815 A 29.269 29.269 0 0 0 57.12 71.28 A 27.854 27.854 0 0 0 57.886 70.704 Q 58.64 70.115 59.128 69.632 A 8.32 8.32 0 0 0 59.16 69.6 Z" vector-effect="non-scaling-stroke"/></g></svg>