<svg width="101.76" height="98.28" viewBox="0 0 101.76 98.28" xmlns="http://www.w3.org/2000/svg"><g id="svgGroup" stroke-linecap="round" fill-rule="evenodd" font-size="9pt" stroke="#10265e" stroke-width="0.5mm" fill="#ffffff" style="stroke:#10265e;stroke-width:0.5mm;fill:#ffffff"><path d="M 49.2 50.28 L 41.28 46.2 L 41.04 45.84 A 8.878 8.878 0 0 0 40.888 44.242 A 12.104 12.104 0 0 0 40.5 42.72 Q 39.96 41.04 39.24 39.36 Q 38.52 37.68 37.62 36.06 Q 36.72 34.44 36 33 L 35.16 32.52 A 73.361 73.361 0 0 0 36.953 36.477 A 57.694 57.694 0 0 0 38.4 39.24 Q 40.08 42.24 40.08 45.6 L 40.68 46.32 L 39.6 45.84 L 39.6 45.12 A 97.369 97.369 0 0 1 36.97 39.565 A 117.646 117.646 0 0 1 35.46 35.94 A 147.598 147.598 0 0 0 32.993 30.09 A 119.916 119.916 0 0 0 31.44 26.76 Q 30.24 34.8 28.44 42.84 Q 26.64 50.88 23.88 58.44 Q 21.48 64.92 18.12 70.86 Q 14.76 76.8 12.48 83.4 L 11.52 82.68 L 10.2 82.92 Q 9.349 82.731 9.168 81.945 A 2.082 2.082 0 0 1 9.12 81.48 Q 9.12 80.783 9.31 79.863 A 14.506 14.506 0 0 1 9.48 79.14 A 28.097 28.097 0 0 1 10.216 76.769 A 31.5 31.5 0 0 1 10.38 76.32 Q 10.92 74.88 11.52 73.5 Q 12.12 72.12 12.48 71.28 L 11.4 70.92 Q 11.051 71.618 9.743 74.009 A 530.097 530.097 0 0 1 9.66 74.16 Q 8.28 76.68 6.66 79.32 A 84.939 84.939 0 0 1 4.856 82.138 A 67.726 67.726 0 0 1 3.48 84.12 Q 2.193 85.902 1.396 86.214 A 0.87 0.87 0 0 1 1.08 86.28 A 1.8 1.8 0 0 1 0.388 85.514 A 2.493 2.493 0 0 1 0.24 85.14 A 6.371 6.371 0 0 1 0.094 84.58 Q 0.032 84.288 0.011 84.026 A 3.308 3.308 0 0 1 0 83.76 A 19.944 19.944 0 0 1 0.183 81.192 Q 0.544 78.426 1.62 74.76 A 184.295 184.295 0 0 1 4.354 66.244 A 212.08 212.08 0 0 1 5.4 63.3 Q 7.56 57.36 9.78 51.72 Q 11.889 46.361 13.078 42.627 A 76.954 76.954 0 0 0 13.2 42.24 A 83.489 83.489 0 0 0 14.48 37.829 A 100.767 100.767 0 0 0 15.18 34.98 Q 16.08 31.08 16.74 27.06 Q 17.4 23.04 17.88 19.08 Q 18.36 15.12 18.72 11.52 Q 20.303 10.31 22.789 9.388 A 27.122 27.122 0 0 1 24.3 8.88 A 88.901 88.901 0 0 0 28.502 7.488 A 72.451 72.451 0 0 0 30.84 6.6 Q 37.32 11.88 42 18.72 Q 46.68 25.56 50.16 34.2 A 52.527 52.527 0 0 0 52.981 29.419 A 62.643 62.643 0 0 0 54.18 27 Q 56.04 23.04 57.6 18.78 Q 59.16 14.52 60.6 10.32 Q 62.04 6.12 63.48 2.52 Q 66.48 1.56 69.78 1.08 Q 73.08 0.6 76.32 0 Q 79.56 6.72 82.44 12.84 Q 85.32 18.96 87.78 25.14 Q 90.24 31.32 92.22 37.8 A 150.149 150.149 0 0 1 94.531 46.275 A 178.371 178.371 0 0 1 95.76 51.72 Q 96.48 55.56 97.56 59.46 Q 98.64 63.36 99.54 67.32 Q 100.44 71.28 101.1 75.24 Q 101.76 79.2 101.76 83.16 Q 101.76 83.475 101.53 83.975 A 5.066 5.066 0 0 1 101.46 84.12 Q 101.209 84.621 100.498 84.788 A 2.882 2.882 0 0 1 100.2 84.84 Q 98.28 73.56 96 62.52 Q 93.72 51.72 90.36 41.04 Q 93.36 51.72 95.52 62.28 Q 97.8 73.2 99.48 84.48 L 97.8 85.44 Q 98.04 86.88 98.4 88.44 A 14.042 14.042 0 0 1 98.723 90.505 A 12.019 12.019 0 0 1 98.76 91.44 A 8.104 8.104 0 0 1 98.757 91.635 Q 98.747 92.049 98.7 92.94 Q 98.64 94.08 98.46 95.28 A 8.948 8.948 0 0 1 98.229 96.372 A 6.602 6.602 0 0 1 97.86 97.38 Q 97.44 98.28 96.72 98.28 Q 96.026 98.28 95.277 97.445 A 5.044 5.044 0 0 1 95.22 97.38 Q 94.44 96.48 93.78 95.22 Q 93.12 93.96 92.58 92.82 Q 92.167 91.947 91.929 91.391 A 14.657 14.657 0 0 1 91.8 91.08 A 177.908 177.908 0 0 0 90.844 82.833 Q 90.224 78.346 89.34 73.38 Q 87.6 63.6 85.2 53.58 Q 82.8 43.56 79.74 34.14 A 173.635 173.635 0 0 0 76.705 25.535 Q 75.156 21.501 73.536 17.986 A 105.487 105.487 0 0 0 73.32 17.52 L 73.2 18.12 Q 77.04 26.28 79.8 34.86 Q 82.56 43.44 84.6 52.26 Q 86.64 61.08 88.08 70.02 Q 89.52 78.96 90.6 87.72 Q 88.08 82.2 86.58 76.5 Q 85.08 70.8 83.94 65.1 Q 82.8 59.4 81.66 53.64 Q 80.52 47.88 78.84 42 L 79.68 39.6 Q 78 34.68 76.26 29.88 Q 74.52 25.08 72.24 20.52 L 71.76 21.72 Q 70.852 24.195 69.605 27.237 A 247.761 247.761 0 0 1 68.4 30.12 Q 66.36 34.92 63.6 39.48 A 48.45 48.45 0 0 1 58.679 46.256 A 43.898 43.898 0 0 1 57.42 47.64 A 19.554 19.554 0 0 1 54.069 50.488 A 15.27 15.27 0 0 1 49.92 52.44 Q 47.4 50.88 44.82 49.5 Q 42.24 48.12 39.6 46.68 L 39.6 45.96 L 44.4 48.6 Q 46.8 49.92 49.2 51.36 L 50.16 51.12 A 60.727 60.727 0 0 0 53.752 48.87 Q 55.563 47.64 57.042 46.409 A 31.273 31.273 0 0 0 58.5 45.12 Q 61.68 42.12 63.96 38.52 A 43.446 43.446 0 0 0 66.72 33.407 A 52.503 52.503 0 0 0 67.98 30.42 Q 69.475 26.553 71.369 21.755 A 1909.063 1909.063 0 0 1 72 20.16 L 71.52 19.08 L 71.04 20.16 L 69 24.84 Q 67.8 27.72 66.06 31.02 Q 64.32 34.32 62.22 37.74 A 78.8 78.8 0 0 1 59.572 41.781 A 65.585 65.585 0 0 1 57.96 43.98 A 28.734 28.734 0 0 1 55.909 46.386 Q 54.768 47.577 53.596 48.482 A 17.766 17.766 0 0 1 53.52 48.54 Q 51.91 49.769 50.42 50.13 A 5.168 5.168 0 0 1 49.2 50.28 Z M 70.08 18.36 L 69.96 17.64 L 65.88 28.44 Q 67.08 25.92 68.1 23.4 Q 69.12 20.88 70.08 18.36 Z M 82.2 17.4 L 82.56 17.16 A 9.526 9.526 0 0 0 82.386 16.685 Q 82.142 16.066 81.72 15.18 Q 81.12 13.92 80.46 12.6 Q 79.8 11.28 79.2 10.02 A 47.787 47.787 0 0 0 78.915 9.431 Q 78.637 8.867 78.422 8.478 A 10.139 10.139 0 0 0 78.24 8.16 L 79.56 11.88 L 82.2 17.4 Z M 63.6 8.16 L 60.96 15.6 L 64.08 8.16 L 63.6 8.16 Z M 20.76 12.84 L 19.92 13.08 L 19.68 16.68 A 16.366 16.366 0 0 1 19.657 17.512 Q 19.605 18.518 19.44 19.92 L 20.76 12.84 Z M 75.36 4.2 L 77.88 7.44 L 75.12 2.88 L 75.36 4.2 Z M 67.56 6.6 L 66.84 6.6 L 68.4 10.56 L 69 10.44 L 67.56 6.6 Z M 73.08 17.04 L 72.72 16.2 L 72.48 16.68 L 72.96 17.64 L 73.08 17.04 Z" vector-effect="non-scaling-stroke"/></g></svg>