<svg width="18.36" height="90.6" viewBox="0 0 18.36 90.6" xmlns="http://www.w3.org/2000/svg"><g id="svgGroup" stroke-linecap="round" fill-rule="evenodd" font-size="9pt" stroke="#10265e" stroke-width="0.5mm" fill="#ffffff" style="stroke:#10265e;stroke-width:0.5mm;fill:#ffffff"><path d="M 2.76 64.56 L 2.76 65.04 L 2.76 64.56 Q 3.36 61.08 3.6 57.72 Q 3.84 54.12 3.84 50.16 Q 3.84 42.36 3.12 33.84 L 3.84 33.84 Q 4.44 36.96 4.62 39.84 Q 4.8 42.72 4.8 45.72 Q 4.8 51.6 4.32 57.42 Q 3.84 63.24 3.84 69.12 L 2.16 69.84 Q 1.92 73.2 0.96 76.32 A 23.422 23.422 0 0 0 0.452 78.253 A 19.203 19.203 0 0 0 0 82.32 A 7.501 7.501 0 0 0 0.001 82.439 Q 0.015 83.325 0.24 84 A 8.711 8.711 0 0 0 0.366 84.351 Q 0.593 84.945 0.96 85.68 A 55.917 55.917 0 0 0 2.737 80.612 A 64.662 64.662 0 0 0 5.04 68.88 Q 6.12 60 6.48 51.12 L 6.48 52.92 Q 6.6 54 6.6 55.2 Q 6.12 63.24 5.16 71.22 Q 4.2 79.2 1.68 86.04 L 1.32 87.12 Q 1.8 87.6 2.1 88.2 A 32.545 32.545 0 0 0 2.25 88.496 A 28.782 28.782 0 0 0 2.7 89.34 Q 3 89.88 3.48 90.24 Q 3.803 90.482 4.288 90.561 A 3.178 3.178 0 0 0 4.8 90.6 A 2.24 2.24 0 0 0 5.671 90.426 A 2.706 2.706 0 0 0 6.36 90 Q 7.08 89.4 7.56 88.62 A 25.829 25.829 0 0 0 7.775 88.264 Q 8.11 87.699 8.34 87.24 A 3.789 3.789 0 0 1 8.387 87.149 Q 8.659 86.64 8.88 86.64 A 2.126 2.126 0 0 1 8.926 86.64 A 1.619 1.619 0 0 1 10.08 87.12 A 85.865 85.865 0 0 0 10.865 84.434 A 103.294 103.294 0 0 0 12.06 79.62 Q 12.96 75.6 13.8 71.76 A 152.592 152.592 0 0 1 13.489 73.838 A 135.498 135.498 0 0 1 12.42 79.8 Q 11.64 83.64 10.8 87.48 A 4.318 4.318 0 0 0 11.01 87.579 Q 11.22 87.67 11.371 87.702 A 0.719 0.719 0 0 0 11.52 87.72 Q 12.3 87.72 13.08 86.096 A 12.092 12.092 0 0 0 13.44 85.26 Q 14.4 82.8 15.12 78.84 A 106.798 106.798 0 0 0 15.215 78.309 Q 15.88 74.545 16.44 69.84 Q 17.04 64.8 17.46 59.7 A 334.531 334.531 0 0 0 17.562 58.43 A 304.672 304.672 0 0 0 18.12 49.8 A 227.719 227.719 0 0 0 18.247 46.917 Q 18.298 45.534 18.326 44.269 A 129.459 129.459 0 0 0 18.36 41.4 Q 18.36 37.8 18.06 34.26 Q 17.76 30.72 17.4 27.24 Q 16.92 23.4 16.92 19.02 Q 16.92 14.64 16.68 10.98 Q 16.53 8.693 16.193 6.874 A 20.504 20.504 0 0 0 15.72 4.86 A 6.656 6.656 0 0 0 15.548 4.348 Q 15.345 3.817 15.078 3.431 A 2.185 2.185 0 0 0 13.2 2.4 A 3.346 3.346 0 0 1 13.096 2.398 A 2.701 2.701 0 0 1 11.52 1.86 A 3.696 3.696 0 0 0 11.483 1.833 Q 11.209 1.632 10.935 1.51 A 2.087 2.087 0 0 0 10.08 1.32 Q 9.639 1.32 9.263 1.708 A 2.348 2.348 0 0 0 9 2.04 L 7.92 2.04 L 7.2 0.6 L 5.16 0 A 4.647 4.647 0 0 0 5.065 0.001 Q 4.609 0.01 4.233 0.11 A 2.124 2.124 0 0 0 2.94 1.02 A 4.746 4.746 0 0 0 2.776 1.294 Q 2.495 1.8 2.304 2.422 A 8.372 8.372 0 0 0 2.04 3.6 A 25.68 25.68 0 0 0 1.983 3.992 A 28.165 28.165 0 0 0 1.74 6.84 Q 1.68 8.52 1.32 9.96 L 1.32 13.32 Q 1.92 23.88 2.7 33.9 Q 3.48 43.92 3.48 53.64 A 75.987 75.987 0 0 1 3.446 55.929 A 63.61 63.61 0 0 1 3.24 59.52 A 53.263 53.263 0 0 1 3.142 61.043 A 62.217 62.217 0 0 1 2.76 64.56 Z M 15.6 51.48 A 38.389 38.389 0 0 0 15.017 53.638 Q 14.774 54.662 14.622 55.595 A 23.312 23.312 0 0 0 14.58 55.86 A 34.16 34.16 0 0 0 14.281 58.497 A 29.135 29.135 0 0 0 14.22 59.64 A 110.409 110.409 0 0 0 14.161 62.882 A 121.433 121.433 0 0 0 14.16 63.36 Q 14.16 65.04 14.04 67.08 Q 14.52 63 14.88 59.64 Q 15.329 56.272 15.568 52.064 A 140.857 140.857 0 0 0 15.6 51.48 Z" vector-effect="non-scaling-stroke"/></g></svg>