<svg width="83.16" height="94.08" viewBox="0 0 83.16 94.08" xmlns="http://www.w3.org/2000/svg"><g id="svgGroup" stroke-linecap="round" fill-rule="evenodd" font-size="9pt" stroke="#10265e" stroke-width="0.5mm" fill="#ffffff" style="stroke:#10265e;stroke-width:0.5mm;fill:#ffffff"><path d="M 72.84 12.48 L 76.44 12.48 Q 78.24 12.48 80.16 12.6 Q 78.48 13.68 76.62 14.16 Q 74.76 14.64 72.9 14.82 A 39.647 39.647 0 0 1 69.307 14.999 A 43.309 43.309 0 0 1 69.06 15 Q 67.08 15 65.16 15.12 L 64.08 13.68 Q 61.32 14.16 58.56 14.28 Q 55.8 14.4 53.04 14.4 L 42.36 14.28 L 42.48 15.36 L 62.52 15.24 Q 52.32 15.84 42.48 15.96 Q 42.6 17.52 42.72 19.02 A 42.325 42.325 0 0 0 43.08 22.08 L 41.64 22.44 A 57.129 57.129 0 0 1 42.59 27.56 A 71.752 71.752 0 0 1 43.02 31.38 Q 43.44 36.24 43.8 41.28 Q 44.16 46.32 44.82 51.18 A 54.089 54.089 0 0 0 45.767 56.346 A 42.44 42.44 0 0 0 46.8 60 L 47.16 59.64 Q 46.44 55.56 45.84 50.82 Q 45.24 46.08 44.7 41.1 Q 44.16 36.12 43.68 31.32 Q 43.32 26.76 43.08 22.8 A 209.395 209.395 0 0 0 44.057 32.571 A 241.892 241.892 0 0 0 44.52 36.12 Q 45.6 43.2 46.8 50.46 Q 48 57.72 49.14 64.8 A 1131.202 1131.202 0 0 1 50.749 75.083 A 986.416 986.416 0 0 1 51.24 78.36 Q 51.48 80.4 51.84 82.74 Q 52.2 85.08 52.2 87.48 L 52.2 88.92 Q 52.2 89.76 51.96 90.48 Q 51.12 90.48 50.34 90.78 Q 49.56 91.08 48.72 91.08 A 1.965 1.965 0 0 1 48.075 90.981 Q 47.487 90.777 47.224 90.153 A 2.365 2.365 0 0 1 47.1 89.76 A 14.418 14.418 0 0 1 46.917 88.821 Q 46.844 88.358 46.817 87.95 A 7.002 7.002 0 0 1 46.8 87.48 L 45.72 87.48 A 12.88 12.88 0 0 1 45.628 87.971 Q 45.51 88.537 45.313 89.29 A 40.737 40.737 0 0 1 45.3 89.34 Q 45 90.48 44.46 91.56 A 6.729 6.729 0 0 1 43.756 92.688 A 5.557 5.557 0 0 1 43.14 93.36 A 2.847 2.847 0 0 1 42.41 93.858 A 2.369 2.369 0 0 1 41.4 94.08 Q 40.205 94.08 39.248 92.413 A 7.249 7.249 0 0 1 39.24 92.4 A 14.651 14.651 0 0 1 38.545 91.005 Q 38.201 90.218 37.884 89.288 A 30.376 30.376 0 0 1 37.5 88.08 A 45.349 45.349 0 0 1 36.699 84.939 A 57.505 57.505 0 0 1 36.18 82.26 Q 35.64 79.08 35.22 76.14 Q 34.8 73.2 34.5 70.8 A 90.772 90.772 0 0 0 34.354 69.683 Q 34.14 68.13 33.96 67.32 Q 32.76 62.28 31.74 56.28 Q 30.72 50.28 30 44.16 Q 29.28 38.04 28.86 31.98 A 178.62 178.62 0 0 1 28.504 24.884 A 144.609 144.609 0 0 1 28.44 20.64 A 21.453 21.453 0 0 1 28.484 19.241 A 19.286 19.286 0 0 1 28.5 19.02 A 20.836 20.836 0 0 0 28.559 17.622 A 23.187 23.187 0 0 0 28.56 17.4 L 28.56 16.68 Q 28.56 16.2 28.44 15.72 A 208.901 208.901 0 0 1 19.045 15.356 A 178.648 178.648 0 0 1 15 15.06 Q 8.64 14.52 0.84 13.56 Q 0.96 12.84 0.96 12 A 6.893 6.893 0 0 1 1.03 10.997 A 5.736 5.736 0 0 1 1.14 10.44 A 3.483 3.483 0 0 1 1.501 9.535 A 3.135 3.135 0 0 1 1.74 9.18 Q 2.16 8.64 3.24 8.64 Q 3.96 8.64 4.92 8.88 L 5.28 7.8 A 13.014 13.014 0 0 1 4.145 7.256 Q 3.573 6.949 2.94 6.552 A 29.204 29.204 0 0 1 1.92 5.88 Q 0.551 4.939 0.158 3.754 A 3.137 3.137 0 0 1 0 2.76 A 2.19 2.19 0 0 1 0.104 2.067 A 1.73 1.73 0 0 1 0.84 1.14 A 5.114 5.114 0 0 1 1.867 0.639 A 7 7 0 0 1 2.88 0.36 Q 4.08 0.12 5.28 0.06 A 79.279 79.279 0 0 1 5.843 0.034 Q 6.384 0.011 6.766 0.003 A 16.689 16.689 0 0 1 7.08 0 Q 11.4 0 15.66 0.48 Q 19.92 0.96 24.24 0.96 Q 35.16 0.96 45.96 1.26 Q 56.76 1.56 67.68 1.56 Q 69.84 1.56 71.94 0.96 Q 74.04 0.36 76.2 0.36 Q 77.04 0.36 77.7 0.84 A 1.556 1.556 0 0 1 78.329 1.883 A 2.384 2.384 0 0 1 78.36 2.28 Q 75.12 2.88 71.76 3.24 Q 68.76 3.48 65.64 3.72 Q 68.76 3.72 71.76 3.48 Q 75 3.24 78.36 3 L 78.36 5.28 L 80.52 4.92 A 4.692 4.692 0 0 1 82.108 5.662 A 5.488 5.488 0 0 1 82.32 5.82 Q 83.16 6.48 83.16 7.68 A 3.99 3.99 0 0 1 82.733 9.46 A 4.875 4.875 0 0 1 82.56 9.78 Q 81.96 10.8 81.24 11.52 Q 72 11.52 62.88 12.06 Q 53.76 12.6 44.64 12.6 Q 46.2 12.72 47.7 12.78 A 75.644 75.644 0 0 0 49.848 12.834 A 89.429 89.429 0 0 0 50.88 12.84 Q 56.4 12.84 61.86 12.66 Q 67.32 12.48 72.84 12.48 Z M 40.2 15.96 L 39.12 15.96 Q 39.36 19.44 39.78 23.64 Q 40.2 27.84 40.68 32.16 Q 41.16 36.48 41.7 40.62 Q 42.24 44.76 42.72 48.24 A 911.984 911.984 0 0 1 42.357 44.788 Q 42.157 42.846 41.94 40.68 Q 41.52 36.48 41.16 32.16 Q 40.8 27.84 40.5 23.64 Q 40.2 19.44 40.2 15.96 Z M 60.96 3.72 L 54.36 3.72 Q 51.36 3.72 48.36 3.6 Q 49.8 3.84 51.12 4.08 Q 52.8 4.44 54.84 4.44 Q 56.28 4.44 57.9 4.2 Q 59.52 3.96 60.96 3.72 Z M 39.6 14.28 L 39.6 15.36 L 40.2 15.36 L 40.2 14.28 L 39.6 14.28 Z" vector-effect="non-scaling-stroke"/></g></svg>