<svg width="16.56" height="32.4" viewBox="0 0 16.56 32.4" xmlns="http://www.w3.org/2000/svg"><g id="svgGroup" stroke-linecap="round" fill-rule="evenodd" font-size="9pt" stroke="#10265e" stroke-width="0.5mm" fill="#ffffff" style="stroke:#10265e;stroke-width:0.5mm;fill:#ffffff"><path d="M 1.68 29.28 L 0 28.92 Q 0.36 28.08 0.48 27.18 A 14.027 14.027 0 0 0 0.6 25.38 A 15.313 15.313 0 0 0 0.6 25.32 L 1.8 25.32 A 4.896 4.896 0 0 1 1.737 24.898 Q 1.688 24.455 1.681 23.844 A 18.213 18.213 0 0 1 1.68 23.64 A 23.199 23.199 0 0 1 1.85 20.783 A 19.997 19.997 0 0 1 2.04 19.56 A 20.773 20.773 0 0 0 2.341 17.153 A 26.234 26.234 0 0 0 2.4 15.36 Q 2.4 14.64 2.34 13.92 Q 2.28 13.2 2.04 12.48 L 1.44 12.48 Q 1.44 15.229 1.321 18.633 A 219.313 219.313 0 0 1 1.32 18.66 Q 1.217 21.592 0.761 23.863 A 21.161 21.161 0 0 1 0.6 24.6 L 0.6 18.24 A 82.734 82.734 0 0 1 0.79 12.509 A 66.38 66.38 0 0 1 1.14 8.88 A 23.506 23.506 0 0 1 2.437 3.665 A 30.588 30.588 0 0 1 4.08 0 Q 4.432 0.117 5.014 0.235 A 15.682 15.682 0 0 0 5.04 0.24 Q 5.64 0.36 6.3 0.54 Q 6.96 0.72 7.44 1.02 Q 7.92 1.32 7.92 1.8 A 0.719 0.719 0 0 1 7.902 1.949 Q 7.87 2.1 7.779 2.31 A 4.318 4.318 0 0 1 7.68 2.52 L 9 2.76 Q 10.68 1.68 12.24 1.68 A 6.189 6.189 0 0 1 14.062 1.941 A 5.438 5.438 0 0 1 15.24 2.46 A 2.564 2.564 0 0 1 16.454 4.164 A 4.372 4.372 0 0 1 16.56 5.16 Q 16.56 10.08 15.6 15 Q 14.64 19.92 14.28 24.48 L 13.92 25.56 Q 13.8 25.92 13.68 26.4 Q 13.586 26.777 13.566 27.08 A 2.405 2.405 0 0 0 13.56 27.24 Q 13.56 27.584 13.615 28.146 A 19.709 19.709 0 0 0 13.62 28.2 Q 13.68 28.8 13.68 29.4 A 5.762 5.762 0 0 1 13.321 31.436 A 4.894 4.894 0 0 1 13.32 31.44 Q 12.98 32.347 12.105 32.397 A 1.824 1.824 0 0 1 12 32.4 A 1.146 1.146 0 0 1 11.779 32.377 Q 11.629 32.347 11.46 32.28 Q 11.16 32.16 10.92 32.04 Q 11.52 29.88 11.64 27.48 A 19.294 19.294 0 0 1 11.15 29.42 A 17.348 17.348 0 0 1 11.04 29.76 A 61.497 61.497 0 0 1 10.545 31.188 A 52.504 52.504 0 0 1 10.32 31.8 L 8.52 31.2 Q 8.286 32.137 7.48 32.159 A 1.433 1.433 0 0 1 7.44 32.16 A 2.484 2.484 0 0 1 6.226 31.838 A 3.041 3.041 0 0 1 6.06 31.74 Q 5.4 31.32 4.86 30.78 A 12.26 12.26 0 0 0 4.118 30.094 A 10.396 10.396 0 0 0 3.78 29.82 A 2.107 2.107 0 0 0 3.278 29.526 A 1.686 1.686 0 0 0 2.64 29.4 A 2.881 2.881 0 0 0 2.904 28.888 Q 3.191 28.181 3.36 27 Q 3.6 25.32 3.72 23.4 A 129.693 129.693 0 0 0 3.884 20.132 A 117.371 117.371 0 0 0 3.9 19.68 Q 3.955 18.023 3.96 17.281 A 20.531 20.531 0 0 0 3.96 17.16 Q 3.862 17.65 3.764 19.061 A 77.319 77.319 0 0 0 3.72 19.74 A 49.813 49.813 0 0 1 3.372 23.297 A 55.119 55.119 0 0 1 3.3 23.82 Q 3 25.92 2.64 27.6 A 7.673 7.673 0 0 1 2.497 28.168 Q 2.246 29.018 1.901 29.218 A 0.434 0.434 0 0 1 1.68 29.28 Z M 11.76 24.6 L 12.36 20.64 A 21.44 21.44 0 0 0 12.049 22.355 A 19.192 19.192 0 0 0 12 22.74 Q 11.88 23.76 11.64 24.72 L 11.76 24.48 L 11.76 24.6 Z M 2.4 29.4 L 2.16 29.16 L 2.64 29.4 L 2.4 29.52 L 2.4 29.4 Z" vector-effect="non-scaling-stroke"/></g></svg>