<svg width="49.8" height="78.6" viewBox="0 0 49.8 78.6" xmlns="http://www.w3.org/2000/svg"><g id="svgGroup" stroke-linecap="round" fill-rule="evenodd" font-size="9pt" stroke="#10265e" stroke-width="0.5mm" fill="#ffffff" style="stroke:#10265e;stroke-width:0.5mm;fill:#ffffff"><path d="M 43.44 75.72 L 42 76.32 Q 40.92 75.84 39.48 75.54 A 22.616 22.616 0 0 0 37.268 75.197 A 26.282 26.282 0 0 0 36.42 75.12 Q 34.8 75 33.24 74.94 A 90.35 90.35 0 0 0 31.944 74.899 Q 31.352 74.885 30.825 74.881 A 51.103 51.103 0 0 0 30.48 74.88 Q 24.84 74.88 19.26 75.18 Q 13.68 75.48 8.04 75.72 Q 9.36 75.84 10.56 75.84 L 13.2 75.84 Q 16.68 75.84 20.16 75.72 Q 23.64 75.6 27.12 75.6 Q 30.24 75.6 33.3 75.84 Q 36.36 76.08 39.48 76.68 A 11.501 11.501 0 0 1 38.311 76.994 Q 37.146 77.249 35.498 77.43 A 52.759 52.759 0 0 1 33.9 77.58 Q 30.12 77.88 25.98 78.06 Q 21.84 78.24 18 78.3 A 737.828 737.828 0 0 1 16.185 78.326 Q 14.422 78.35 13.105 78.357 A 201.683 201.683 0 0 1 12 78.36 L 11.04 77.04 A 1.63 1.63 0 0 0 10.841 77.052 Q 10.736 77.065 10.646 77.092 A 0.969 0.969 0 0 0 10.62 77.1 Q 10.44 77.16 10.2 77.16 A 7.813 7.813 0 0 1 10.193 77.16 A 7.733 7.733 0 0 1 9.24 77.1 Q 8.764 77.041 8.169 77.04 A 12.178 12.178 0 0 0 8.16 77.04 L 7.32 77.04 A 1.166 1.166 0 0 0 6.859 77.139 A 1.601 1.601 0 0 0 6.6 77.28 Q 5.52 77.28 4.5 77.16 Q 3.48 77.04 2.4 77.04 L 0 65.16 L 2.76 63.72 Q 7.44 60.6 11.94 57.3 Q 16.44 54 20.34 50.1 Q 24.24 46.2 27.42 41.7 A 42.808 42.808 0 0 0 32.247 32.706 A 48.038 48.038 0 0 0 32.64 31.68 L 32.28 30.96 A 31.517 31.517 0 0 0 33.379 28.521 Q 33.982 27.004 34.32 25.62 Q 34.92 23.16 34.92 20.64 Q 34.92 17.039 33.509 15.467 A 3.525 3.525 0 0 0 33 15 Q 31.129 13.597 28.232 13.561 A 12.329 12.329 0 0 0 28.08 13.56 A 12.591 12.591 0 0 0 24.105 14.168 A 10.986 10.986 0 0 0 21 15.78 Q 18 18 15.96 21 Q 15.36 20.04 14.22 19.74 A 2.251 2.251 0 0 1 13.735 19.556 Q 13.094 19.215 13.08 18.512 A 1.59 1.59 0 0 1 13.08 18.48 Q 13.08 17.415 13.978 16.351 A 6.572 6.572 0 0 1 14.46 15.84 Q 15.517 14.83 16.257 14.171 A 29.972 29.972 0 0 1 16.68 13.8 L 15.96 12.72 Q 15.48 13.08 14.04 13.98 Q 12.6 14.88 11.04 15.9 Q 9.48 16.92 8.1 17.7 A 17.151 17.151 0 0 1 7.614 17.965 Q 6.846 18.367 6.439 18.455 A 0.957 0.957 0 0 1 6.24 18.48 A 1.903 1.903 0 0 1 5.653 18.397 Q 5.037 18.197 4.866 17.515 A 2.456 2.456 0 0 1 4.8 16.92 A 9.625 9.625 0 0 1 5.878 12.55 A 13.057 13.057 0 0 1 7.08 10.62 A 24.629 24.629 0 0 1 12.404 5.404 A 27.639 27.639 0 0 1 12.66 5.22 Q 15.96 2.88 19.8 1.44 Q 23.37 0.101 26.421 0.007 A 14.873 14.873 0 0 1 26.88 0 Q 31.68 0 35.82 1.08 A 20.896 20.896 0 0 1 41.03 3.189 A 18.727 18.727 0 0 1 43.08 4.56 A 16.599 16.599 0 0 1 47.77 10.273 A 19.347 19.347 0 0 1 48 10.74 A 17.766 17.766 0 0 1 49.401 15.162 Q 49.763 17.113 49.796 19.337 A 30.4 30.4 0 0 1 49.8 19.8 A 35.59 35.59 0 0 1 47.717 31.66 A 40.978 40.978 0 0 1 47.22 33 Q 44.64 39.6 40.44 45.48 Q 36.24 51.36 30.9 56.34 A 72.186 72.186 0 0 1 24.155 61.932 A 60.166 60.166 0 0 1 20.04 64.68 Q 21.24 64.56 22.98 64.44 Q 24.72 64.32 26.64 64.2 Q 28.56 64.08 30.3 64.02 A 122.29 122.29 0 0 1 31.529 63.984 Q 32.49 63.96 33.24 63.96 A 15.349 15.349 0 0 1 35.32 64.108 A 19.473 19.473 0 0 1 36.84 64.38 A 8.512 8.512 0 0 1 38.66 64.989 A 6.844 6.844 0 0 1 40.08 65.88 L 39.84 66.6 Q 36.36 66.24 33 66.24 A 97.878 97.878 0 0 0 31.754 66.249 Q 30.653 66.263 29.34 66.3 Q 27.24 66.36 25.08 66.48 Q 22.92 66.6 20.82 66.72 Q 18.72 66.84 17.16 66.96 L 17.16 67.08 Q 18.233 67.08 19.835 67.032 A 169.213 169.213 0 0 0 20.22 67.02 Q 22.08 66.96 24.06 66.9 Q 26.04 66.84 27.84 66.78 A 126.333 126.333 0 0 1 29.123 66.744 Q 30.135 66.72 30.96 66.72 Q 33.12 66.72 35.22 66.9 Q 37.32 67.08 39.48 67.32 A 4.199 4.199 0 0 0 39.314 67.622 Q 39.12 68.016 39.12 68.28 A 1.029 1.029 0 0 0 39.612 69.199 Q 39.908 69.39 40.38 69.48 Q 41.64 69.72 43.14 70.02 A 18.537 18.537 0 0 1 44.921 70.465 A 15.344 15.344 0 0 1 45.9 70.8 A 2.467 2.467 0 0 1 46.506 71.124 Q 47.15 71.608 47.16 72.453 A 2.265 2.265 0 0 1 47.16 72.48 A 1.704 1.704 0 0 1 46.836 73.473 A 2.43 2.43 0 0 1 46.56 73.8 A 7.36 7.36 0 0 1 45.419 74.727 A 8.344 8.344 0 0 1 45.18 74.88 A 9.515 9.515 0 0 1 44.022 75.483 A 11.31 11.31 0 0 1 43.44 75.72 Z M 3.36 62.52 Q 6.48 60.6 10.38 57.3 Q 14.28 54 18.18 49.98 Q 22.08 45.96 25.56 41.4 A 68.292 68.292 0 0 0 29.835 35.13 A 58.229 58.229 0 0 0 31.44 32.28 A 44.901 44.901 0 0 1 29.449 36.125 Q 28.332 38.061 26.927 40.122 A 76.361 76.361 0 0 1 26.46 40.8 Q 23.28 45.36 19.38 49.62 A 81.89 81.89 0 0 1 11.804 56.922 A 75.472 75.472 0 0 1 11.28 57.36 A 46.388 46.388 0 0 1 7.947 59.891 Q 6.238 61.064 4.616 61.909 A 24.836 24.836 0 0 1 3.36 62.52 Z M 5.16 64.44 L 5.76 64.56 Q 10.8 61.44 15.06 57.48 Q 19.32 53.52 23.28 49.32 Q 19.08 53.52 14.64 57.36 Q 10.2 61.2 5.16 64.44 Z M 23.64 59.4 L 16.56 64.32 Q 17.419 63.891 18.758 63.269 A 165.767 165.767 0 0 1 19.08 63.12 A 10.924 10.924 0 0 0 21.075 61.877 Q 22.357 60.885 23.64 59.4 Z M 2.52 78.12 L 2.4 77.76 Q 2.625 77.76 3.585 77.813 A 163.55 163.55 0 0 1 3.72 77.82 A 49.311 49.311 0 0 1 5.262 77.931 A 57.98 57.98 0 0 1 6 78 A 33.126 33.126 0 0 1 7.293 78.154 A 26.35 26.35 0 0 1 8.22 78.3 Q 9.24 78.48 9.48 78.6 L 2.52 78.12 Z M 0.96 66.96 L 1.32 66.96 L 4.2 65.52 L 4.08 65.16 Q 3.36 65.76 2.52 66 Q 1.68 66.24 0.96 66.6 L 0.96 66.96 Z" vector-effect="non-scaling-stroke"/></g></svg>