<svg width="644.101" height="86.8" viewBox="0 0 644.101 86.8" xmlns="http://www.w3.org/2000/svg"><g id="svgGroup" stroke-linecap="round" fill-rule="evenodd" font-size="9pt" stroke="#000000" stroke-width="0.25mm" fill="#f2f2f2" style="stroke:#000000;stroke-width:0.25mm;fill:#f2f2f2"><path d="M 283.4 44 L 276.8 40.6 L 276.6 40.3 A 7.398 7.398 0 0 0 276.473 38.969 A 10.087 10.087 0 0 0 276.15 37.7 Q 275.7 36.3 275.1 34.9 Q 274.5 33.5 273.75 32.15 Q 273 30.8 272.4 29.6 L 271.7 29.2 Q 273 32.3 274.4 34.8 Q 275.8 37.3 275.8 40.1 L 276.3 40.7 L 275.4 40.3 L 275.4 39.7 Q 273.6 36.2 271.95 32.05 A 122.998 122.998 0 0 0 269.894 27.175 A 99.931 99.931 0 0 0 268.6 24.4 Q 267.6 31.1 266.1 37.8 Q 264.6 44.5 262.3 50.8 Q 260.3 56.2 257.5 61.15 Q 254.7 66.1 252.8 71.6 L 252 71 L 250.9 71.2 A 1.291 1.291 0 0 1 250.457 71.019 Q 250.136 70.804 250.04 70.387 A 1.735 1.735 0 0 1 250 70 A 5.436 5.436 0 0 1 250.042 69.351 Q 250.082 69.023 250.158 68.653 A 12.088 12.088 0 0 1 250.3 68.05 A 23.414 23.414 0 0 1 250.913 66.074 A 26.251 26.251 0 0 1 251.05 65.7 Q 251.5 64.5 252 63.35 Q 252.5 62.2 252.8 61.5 L 251.9 61.2 A 19.037 19.037 0 0 1 251.758 61.478 Q 251.384 62.194 250.45 63.9 Q 249.3 66 247.95 68.2 A 70.782 70.782 0 0 1 246.447 70.548 A 56.438 56.438 0 0 1 245.3 72.2 Q 244.227 73.685 243.563 73.945 A 0.725 0.725 0 0 1 243.3 74 Q 242.8 73.7 242.6 73.05 Q 242.443 72.54 242.409 72.122 A 2.757 2.757 0 0 1 242.4 71.9 A 16.62 16.62 0 0 1 242.552 69.76 Q 242.854 67.455 243.75 64.4 Q 245.1 59.8 246.9 54.85 Q 248.7 49.9 250.55 45.2 Q 252.4 40.5 253.4 37.3 A 69.574 69.574 0 0 0 254.466 33.624 A 83.972 83.972 0 0 0 255.05 31.25 Q 255.8 28 256.35 24.65 Q 256.9 21.3 257.3 18 Q 257.7 14.7 258 11.7 Q 259.7 10.4 262.65 9.5 A 74.084 74.084 0 0 0 266.151 8.34 A 60.376 60.376 0 0 0 268.1 7.6 Q 273.5 12 277.4 17.7 A 63.661 63.661 0 0 1 282.29 26.246 A 76.223 76.223 0 0 1 284.2 30.6 A 43.772 43.772 0 0 0 286.551 26.616 A 52.203 52.203 0 0 0 287.55 24.6 Q 289.1 21.3 290.4 17.75 Q 291.7 14.2 292.9 10.7 A 149.396 149.396 0 0 1 294.4 6.52 A 121.779 121.779 0 0 1 295.3 4.2 A 32.409 32.409 0 0 1 300.207 3.052 A 35.543 35.543 0 0 1 300.55 3 Q 303.3 2.6 306 2.1 Q 308.7 7.7 311.1 12.8 Q 313.5 17.9 315.55 23.05 Q 317.6 28.2 319.25 33.6 A 125.124 125.124 0 0 1 321.176 40.663 A 148.642 148.642 0 0 1 322.2 45.2 Q 322.8 48.4 323.7 51.65 Q 324.6 54.9 325.35 58.2 Q 326.1 61.5 326.65 64.8 Q 327.2 68.1 327.2 71.4 A 0.989 0.989 0 0 1 327.176 71.607 Q 327.132 71.811 327.008 72.079 A 4.222 4.222 0 0 1 326.95 72.2 A 0.956 0.956 0 0 1 326.516 72.625 Q 326.266 72.754 325.9 72.8 Q 324.3 63.4 322.4 54.2 Q 320.5 45.2 317.7 36.3 Q 320.2 45.2 322 54 Q 323.9 63.1 325.3 72.5 L 323.9 73.3 A 40.009 40.009 0 0 0 324.256 75.156 A 45.915 45.915 0 0 0 324.4 75.8 A 11.701 11.701 0 0 1 324.669 77.521 A 10.016 10.016 0 0 1 324.7 78.3 Q 324.7 78.6 324.65 79.55 A 20.131 20.131 0 0 1 324.486 81.251 A 22.093 22.093 0 0 1 324.45 81.5 A 7.457 7.457 0 0 1 324.258 82.41 A 5.502 5.502 0 0 1 323.95 83.25 Q 323.753 83.673 323.476 83.857 A 0.84 0.84 0 0 1 323 84 Q 322.422 84 321.798 83.304 A 4.203 4.203 0 0 1 321.75 83.25 A 8.353 8.353 0 0 1 321.05 82.311 A 10.931 10.931 0 0 1 320.55 81.45 Q 320 80.4 319.55 79.45 Q 319.206 78.723 319.008 78.259 A 12.215 12.215 0 0 1 318.9 78 A 148.257 148.257 0 0 0 318.103 71.128 Q 317.619 67.622 316.941 63.766 A 240.167 240.167 0 0 0 316.85 63.25 Q 315.4 55.1 313.4 46.75 Q 311.4 38.4 308.85 30.55 A 144.695 144.695 0 0 0 306.321 23.379 Q 305.03 20.018 303.68 17.089 A 87.916 87.916 0 0 0 303.5 16.7 L 303.4 17.2 Q 306.6 24 308.9 31.15 Q 311.2 38.3 312.9 45.65 Q 314.6 53 315.8 60.45 Q 317 67.9 317.9 75.2 Q 315.8 70.6 314.55 65.85 Q 313.3 61.1 312.35 56.35 Q 311.4 51.6 310.45 46.8 Q 309.5 42 308.1 37.1 L 308.8 35.1 Q 307.4 31 305.95 27 Q 304.5 23 302.6 19.2 L 302.2 20.2 Q 301.444 22.263 300.404 24.798 A 206.464 206.464 0 0 1 299.4 27.2 Q 297.7 31.2 295.4 35 A 40.375 40.375 0 0 1 291.299 40.647 A 36.581 36.581 0 0 1 290.25 41.8 A 16.295 16.295 0 0 1 287.457 44.173 A 12.725 12.725 0 0 1 284 45.8 Q 281.9 44.5 279.75 43.35 Q 277.6 42.2 275.4 41 L 275.4 40.4 L 279.4 42.6 Q 281.4 43.7 283.4 44.9 L 284.2 44.7 Q 287.576 42.737 289.935 40.774 A 26.061 26.061 0 0 0 291.15 39.7 Q 293.8 37.2 295.7 34.2 A 36.205 36.205 0 0 0 298 29.94 A 43.752 43.752 0 0 0 299.05 27.45 Q 300.296 24.227 301.875 20.229 A 1591.409 1591.409 0 0 1 302.4 18.9 L 302 18 L 301.6 18.9 L 299.9 22.8 Q 298.9 25.2 297.45 27.95 Q 296 30.7 294.25 33.55 A 65.666 65.666 0 0 1 292.043 36.917 A 54.654 54.654 0 0 1 290.7 38.75 Q 288.93 41.061 287.063 42.502 A 14.772 14.772 0 0 1 287 42.55 Q 285.1 44 283.4 44 Z M 373.2 44 L 366.6 40.6 L 366.4 40.3 A 7.398 7.398 0 0 0 366.273 38.969 A 10.087 10.087 0 0 0 365.95 37.7 Q 365.5 36.3 364.9 34.9 Q 364.3 33.5 363.55 32.15 Q 362.8 30.8 362.2 29.6 L 361.5 29.2 Q 362.8 32.3 364.2 34.8 Q 365.6 37.3 365.6 40.1 L 366.1 40.7 L 365.2 40.3 L 365.2 39.7 Q 363.4 36.2 361.75 32.05 A 122.998 122.998 0 0 0 359.694 27.175 A 99.931 99.931 0 0 0 358.4 24.4 Q 357.4 31.1 355.9 37.8 Q 354.4 44.5 352.1 50.8 Q 350.1 56.2 347.3 61.15 Q 344.5 66.1 342.6 71.6 L 341.8 71 L 340.7 71.2 A 1.291 1.291 0 0 1 340.257 71.019 Q 339.936 70.804 339.84 70.387 A 1.735 1.735 0 0 1 339.8 70 A 5.436 5.436 0 0 1 339.842 69.351 Q 339.882 69.023 339.958 68.653 A 12.088 12.088 0 0 1 340.1 68.05 A 23.414 23.414 0 0 1 340.713 66.074 A 26.251 26.251 0 0 1 340.85 65.7 Q 341.3 64.5 341.8 63.35 Q 342.3 62.2 342.6 61.5 L 341.7 61.2 A 19.037 19.037 0 0 1 341.558 61.478 Q 341.184 62.194 340.25 63.9 Q 339.1 66 337.75 68.2 A 70.782 70.782 0 0 1 336.247 70.548 A 56.438 56.438 0 0 1 335.1 72.2 Q 334.027 73.685 333.363 73.945 A 0.725 0.725 0 0 1 333.1 74 Q 332.6 73.7 332.4 73.05 Q 332.243 72.54 332.209 72.122 A 2.757 2.757 0 0 1 332.2 71.9 A 16.62 16.62 0 0 1 332.352 69.76 Q 332.654 67.455 333.55 64.4 Q 334.9 59.8 336.7 54.85 Q 338.5 49.9 340.35 45.2 Q 342.2 40.5 343.2 37.3 A 69.574 69.574 0 0 0 344.266 33.624 A 83.972 83.972 0 0 0 344.85 31.25 Q 345.6 28 346.15 24.65 Q 346.7 21.3 347.1 18 Q 347.5 14.7 347.8 11.7 Q 349.5 10.4 352.45 9.5 A 74.084 74.084 0 0 0 355.951 8.34 A 60.376 60.376 0 0 0 357.9 7.6 Q 363.3 12 367.2 17.7 A 63.661 63.661 0 0 1 372.09 26.246 A 76.223 76.223 0 0 1 374 30.6 A 43.772 43.772 0 0 0 376.351 26.616 A 52.203 52.203 0 0 0 377.35 24.6 Q 378.9 21.3 380.2 17.75 Q 381.5 14.2 382.7 10.7 A 149.396 149.396 0 0 1 384.2 6.52 A 121.779 121.779 0 0 1 385.1 4.2 A 32.409 32.409 0 0 1 390.007 3.052 A 35.543 35.543 0 0 1 390.35 3 Q 393.1 2.6 395.8 2.1 Q 398.5 7.7 400.9 12.8 Q 403.3 17.9 405.35 23.05 Q 407.4 28.2 409.05 33.6 A 125.124 125.124 0 0 1 410.976 40.663 A 148.642 148.642 0 0 1 412 45.2 Q 412.6 48.4 413.5 51.65 Q 414.4 54.9 415.15 58.2 Q 415.9 61.5 416.45 64.8 Q 417 68.1 417 71.4 A 0.989 0.989 0 0 1 416.976 71.607 Q 416.932 71.811 416.808 72.079 A 4.222 4.222 0 0 1 416.75 72.2 A 0.956 0.956 0 0 1 416.316 72.625 Q 416.066 72.754 415.7 72.8 Q 414.1 63.4 412.2 54.2 Q 410.3 45.2 407.5 36.3 Q 410 45.2 411.8 54 Q 413.7 63.1 415.1 72.5 L 413.7 73.3 A 40.009 40.009 0 0 0 414.056 75.156 A 45.915 45.915 0 0 0 414.2 75.8 A 11.701 11.701 0 0 1 414.469 77.521 A 10.016 10.016 0 0 1 414.5 78.3 Q 414.5 78.6 414.45 79.55 A 20.131 20.131 0 0 1 414.286 81.251 A 22.093 22.093 0 0 1 414.25 81.5 A 7.457 7.457 0 0 1 414.058 82.41 A 5.502 5.502 0 0 1 413.75 83.25 Q 413.553 83.673 413.276 83.857 A 0.84 0.84 0 0 1 412.8 84 Q 412.222 84 411.598 83.304 A 4.203 4.203 0 0 1 411.55 83.25 A 8.353 8.353 0 0 1 410.85 82.311 A 10.931 10.931 0 0 1 410.35 81.45 Q 409.8 80.4 409.35 79.45 Q 409.006 78.723 408.808 78.259 A 12.215 12.215 0 0 1 408.7 78 A 148.257 148.257 0 0 0 407.903 71.128 Q 407.419 67.622 406.741 63.766 A 240.167 240.167 0 0 0 406.65 63.25 Q 405.2 55.1 403.2 46.75 Q 401.2 38.4 398.65 30.55 A 144.695 144.695 0 0 0 396.121 23.379 Q 394.83 20.018 393.48 17.089 A 87.916 87.916 0 0 0 393.3 16.7 L 393.2 17.2 Q 396.4 24 398.7 31.15 Q 401 38.3 402.7 45.65 Q 404.4 53 405.6 60.45 Q 406.8 67.9 407.7 75.2 Q 405.6 70.6 404.35 65.85 Q 403.1 61.1 402.15 56.35 Q 401.2 51.6 400.25 46.8 Q 399.3 42 397.9 37.1 L 398.6 35.1 Q 397.2 31 395.75 27 Q 394.3 23 392.4 19.2 L 392 20.2 Q 391.244 22.263 390.204 24.798 A 206.464 206.464 0 0 1 389.2 27.2 Q 387.5 31.2 385.2 35 A 40.375 40.375 0 0 1 381.099 40.647 A 36.581 36.581 0 0 1 380.05 41.8 A 16.295 16.295 0 0 1 377.257 44.173 A 12.725 12.725 0 0 1 373.8 45.8 Q 371.7 44.5 369.55 43.35 Q 367.4 42.2 365.2 41 L 365.2 40.4 L 369.2 42.6 Q 371.2 43.7 373.2 44.9 L 374 44.7 Q 377.376 42.737 379.735 40.774 A 26.061 26.061 0 0 0 380.95 39.7 Q 383.6 37.2 385.5 34.2 A 36.205 36.205 0 0 0 387.8 29.94 A 43.752 43.752 0 0 0 388.85 27.45 Q 390.096 24.227 391.675 20.229 A 1591.409 1591.409 0 0 1 392.2 18.9 L 391.8 18 L 391.4 18.9 L 389.7 22.8 Q 388.7 25.2 387.25 27.95 Q 385.8 30.7 384.05 33.55 A 65.666 65.666 0 0 1 381.843 36.917 A 54.654 54.654 0 0 1 380.5 38.75 Q 378.73 41.061 376.863 42.502 A 14.772 14.772 0 0 1 376.8 42.55 Q 374.9 44 373.2 44 Z M 135.1 65.8 L 135.4 67 Q 136.408 66.798 137.777 66.439 A 79.672 79.672 0 0 0 139.2 66.05 Q 141.5 65.4 143.65 64.4 A 14.017 14.017 0 0 0 146.296 62.81 A 12.276 12.276 0 0 0 147.35 61.9 A 5.288 5.288 0 0 0 148.423 60.465 A 4.56 4.56 0 0 0 148.9 58.4 Q 148.9 55.5 146.8 53.3 A 18.622 18.622 0 0 0 144.159 51.028 A 25.04 25.04 0 0 0 141.45 49.35 A 38.926 38.926 0 0 0 137.291 47.431 A 49.04 49.04 0 0 0 134.1 46.3 A 141.84 141.84 0 0 0 126.112 44.016 A 130.168 130.168 0 0 0 126.05 44 Q 122.1 43 118.6 42.2 Q 115.1 41.4 113 40.7 L 113 41.3 Q 115.1 42.1 118.5 42.95 Q 121.9 43.8 125.85 44.8 Q 129.8 45.8 133.8 47.05 A 47.345 47.345 0 0 1 138.452 48.764 A 38.775 38.775 0 0 1 141.05 50 A 23.027 23.027 0 0 1 143.833 51.704 A 16.989 16.989 0 0 1 146.35 53.9 Q 148.4 56.1 148.4 58.9 Q 148.4 60.5 146.9 61.7 A 13.447 13.447 0 0 1 144.81 63.063 A 16.813 16.813 0 0 1 143.35 63.75 Q 141.3 64.6 139.2 65.1 A 128.275 128.275 0 0 1 138.213 65.331 Q 137.259 65.55 136.571 65.69 A 29.24 29.24 0 0 1 136 65.8 Q 137.163 65.532 138.926 65.063 A 180.233 180.233 0 0 0 139.35 64.95 Q 141.4 64.4 143.35 63.5 A 14.664 14.664 0 0 0 145.446 62.325 A 11.994 11.994 0 0 0 146.7 61.35 A 4.494 4.494 0 0 0 147.6 60.271 A 3.641 3.641 0 0 0 148.1 58.4 A 5.905 5.905 0 0 0 146.23 54.002 A 7.645 7.645 0 0 0 145.9 53.7 A 16.727 16.727 0 0 0 143.707 52.114 Q 142.125 51.144 140.1 50.3 Q 136.5 48.8 131.9 47.6 A 377.454 377.454 0 0 1 123.055 45.174 A 412.684 412.684 0 0 1 122.45 45 Q 117.6 43.6 113 41.8 A 36.026 36.026 0 0 1 106.965 38.786 A 31.553 31.553 0 0 1 104.8 37.3 Q 101.2 34.6 99 30.9 A 15.307 15.307 0 0 1 97.136 25.834 A 20.925 20.925 0 0 1 96.8 22 A 17.65 17.65 0 0 1 97.269 17.834 A 13.355 13.355 0 0 1 99.25 13.35 Q 101.7 9.8 105.55 7.55 A 28.673 28.673 0 0 1 113.856 4.332 A 32.019 32.019 0 0 1 114 4.3 A 43.408 43.408 0 0 1 120.594 3.371 A 38.079 38.079 0 0 1 122.9 3.3 Q 129.2 3.3 135.25 5.1 Q 141.3 6.9 146.7 10.1 Q 146.1 10.3 146 10.65 A 4.765 4.765 0 0 0 145.882 11.179 A 5.566 5.566 0 0 0 145.85 11.4 A 2.489 2.489 0 0 1 145.775 11.774 A 1.881 1.881 0 0 1 145.65 12.1 A 0.491 0.491 0 0 1 145.376 12.341 Q 145.223 12.4 145 12.4 A 1.605 1.605 0 0 1 144.789 12.383 Q 144.348 12.323 143.45 12.05 A 63.397 63.397 0 0 1 141.954 11.573 A 77.505 77.505 0 0 1 141 11.25 A 237.398 237.398 0 0 0 139.106 10.603 A 209.04 209.04 0 0 0 138.5 10.4 Q 137.462 10.054 137.022 9.857 A 3.145 3.145 0 0 1 136.9 9.8 L 136.6 10.7 Q 137.405 11.058 138.65 11.696 A 85.947 85.947 0 0 1 138.95 11.85 Q 140.4 12.6 141.75 13.65 A 14.219 14.219 0 0 1 143.35 15.093 A 12.075 12.075 0 0 1 144.05 15.9 A 5.125 5.125 0 0 1 144.62 16.781 Q 144.923 17.386 144.984 17.992 A 3.045 3.045 0 0 1 145 18.3 Q 145 19.6 143.8 19.6 A 7.025 7.025 0 0 1 142.544 19.478 Q 141.499 19.288 140.25 18.8 Q 138.2 18 135.7 17.05 A 60.37 60.37 0 0 0 131.925 15.762 A 70.282 70.282 0 0 0 130.35 15.3 Q 127.5 14.5 124.6 14.5 A 25.452 25.452 0 0 0 122.881 14.562 Q 121.978 14.624 120.962 14.745 A 47.998 47.998 0 0 0 120.15 14.85 Q 117.6 15.2 115.25 16.15 A 12.021 12.021 0 0 0 112.606 17.611 A 10.476 10.476 0 0 0 111.3 18.75 A 5.619 5.619 0 0 0 109.714 22.434 A 7.453 7.453 0 0 0 109.7 22.9 A 4.455 4.455 0 0 0 111.064 26.12 A 6.745 6.745 0 0 0 111.85 26.8 A 16.561 16.561 0 0 0 113.828 28.05 Q 115.442 28.928 117.55 29.7 Q 121.1 31 125.6 32.2 A 266.684 266.684 0 0 1 133.666 34.491 A 293.494 293.494 0 0 1 134.85 34.85 Q 139.6 36.3 144.1 38.2 A 38.451 38.451 0 0 1 150.078 41.345 A 33.765 33.765 0 0 1 152.15 42.8 Q 155.7 45.5 157.85 49.2 A 15.724 15.724 0 0 1 159.769 54.759 A 20.594 20.594 0 0 1 160 57.9 A 20.063 20.063 0 0 1 159.67 61.634 Q 159.188 64.181 158 66.2 Q 156 69.6 152.7 71.85 A 25.934 25.934 0 0 1 146.994 74.755 A 30.307 30.307 0 0 1 145.2 75.35 Q 141 76.6 136.55 77.25 Q 132.1 77.9 127.75 78.05 Q 123.469 78.198 120.011 78.2 A 163.303 163.303 0 0 1 119.9 78.2 L 109.9 78.2 Q 109.211 78.2 108.141 78.171 A 142.363 142.363 0 0 1 107.45 78.15 Q 105.9 78.1 104.4 77.95 A 13.364 13.364 0 0 1 103.164 77.771 Q 102.559 77.652 102.037 77.482 A 7.669 7.669 0 0 1 101.8 77.4 Q 100.7 77 100.7 76.4 L 100.8 75.9 Q 104.9 76.1 108.9 76.25 Q 112.9 76.4 117 76.4 L 124.6 76.4 Q 128 76.3 131.4 76 L 128 76.2 L 123.9 76.2 L 119.9 76.2 Q 110.5 76.2 101.4 75.6 A 14.732 14.732 0 0 0 101.483 75.252 Q 101.584 74.802 101.598 74.57 A 1.162 1.162 0 0 0 101.6 74.5 A 1.703 1.703 0 0 0 101.483 73.887 A 2.091 2.091 0 0 0 101.4 73.7 A 2.227 2.227 0 0 0 101.261 73.705 Q 101.091 73.716 100.85 73.75 Q 100.5 73.8 100 73.8 Q 98.9 73.8 97.55 73.7 Q 96.2 73.6 94.95 73.3 A 8.305 8.305 0 0 1 93.933 72.99 Q 93.406 72.789 92.975 72.528 A 4.904 4.904 0 0 1 92.85 72.45 A 2.385 2.385 0 0 1 92.42 72.101 Q 92 71.663 92 71.1 A 1.07 1.07 0 0 1 92.203 70.482 Q 92.317 70.317 92.495 70.162 A 2.63 2.63 0 0 1 92.7 70 A 7.557 7.557 0 0 1 93.56 69.473 A 9.933 9.933 0 0 1 94.35 69.1 Q 95.3 68.7 96.25 68.4 Q 97.2 68.1 97.7 67.9 Q 102.5 68.5 107.3 68.9 Q 112.1 69.3 116.9 69.3 Q 118.278 69.3 120.477 69.271 A 621.484 621.484 0 0 0 121.9 69.25 Q 125.1 69.2 128.9 68.9 Q 132.7 68.6 136.6 67.95 A 41.87 41.87 0 0 0 140.766 67.045 A 33.635 33.635 0 0 0 143.7 66.1 A 19.991 19.991 0 0 0 146.26 64.941 Q 147.582 64.219 148.612 63.351 A 11.827 11.827 0 0 0 148.9 63.1 A 5.774 5.774 0 0 0 150.892 58.934 A 7.071 7.071 0 0 0 150.9 58.6 A 8.749 8.749 0 0 0 150.583 56.207 A 7.58 7.58 0 0 0 149.95 54.65 Q 149 52.9 147.45 51.55 Q 145.9 50.2 144 49.3 A 10.265 10.265 0 0 0 142.6 48.638 A 11.263 11.263 0 0 0 142.5 48.6 Q 143.3 49 144 49.4 Q 145.8 50.4 147.25 51.85 Q 148.7 53.3 149.6 55.05 A 8.162 8.162 0 0 1 150.451 57.993 A 10.042 10.042 0 0 1 150.5 59 A 5.333 5.333 0 0 1 148.884 62.92 A 6.506 6.506 0 0 1 148.75 63.05 A 12.205 12.205 0 0 1 146.608 64.648 Q 145.539 65.284 144.25 65.8 A 28.886 28.886 0 0 1 140.578 66.98 A 35.677 35.677 0 0 1 138.15 67.5 Q 134.8 68.1 131.5 68.4 Q 128.2 68.7 125.4 68.75 Q 123.256 68.788 121.816 68.797 A 131.619 131.619 0 0 1 121 68.8 Q 115.9 68.8 110.75 68.45 Q 105.6 68.1 100.5 67.6 Q 102.3 67.1 104.15 66.85 Q 106 66.6 107.9 66.6 Q 111.1 66.6 114.2 66.65 Q 117.3 66.7 120.4 66.7 Q 124.1 66.7 127.7 66.55 A 63.938 63.938 0 0 0 134.153 65.943 A 70.694 70.694 0 0 0 135.1 65.8 Z M 232.5 20.1 L 232.5 17.8 Q 232.5 16.6 232.6 15.5 A 17.954 17.954 0 0 1 233.537 18.48 Q 234.009 20.569 234.15 23.1 A 164.258 164.258 0 0 1 234.365 28.53 A 137.225 137.225 0 0 1 234.4 31.6 Q 234.4 35.209 234.326 38.117 A 173.939 173.939 0 0 1 234.3 39.05 Q 234.214 41.843 233.759 45.338 A 94.893 94.893 0 0 1 233.6 46.5 L 232.6 48 Q 231.8 55.1 229.6 61 A 32.02 32.02 0 0 1 225.798 68.295 A 28.461 28.461 0 0 1 223.5 71.15 A 26.315 26.315 0 0 1 214.78 77.371 A 30.584 30.584 0 0 1 213.9 77.75 A 30.128 30.128 0 0 1 207.097 79.617 A 41.644 41.644 0 0 1 200.6 80.1 Q 194.3 80.1 188.25 78.35 Q 182.2 76.6 177.5 72.1 L 177.3 72.8 A 26.131 26.131 0 0 0 185.673 78.39 A 25.048 25.048 0 0 0 187.95 79.2 Q 193.9 81 200.3 81 A 40.108 40.108 0 0 0 206.676 80.517 A 29.688 29.688 0 0 0 213 78.8 Q 218.5 76.6 222.55 72.65 A 31.899 31.899 0 0 0 228.527 64.551 A 36.64 36.64 0 0 0 229.2 63.2 A 51.023 51.023 0 0 0 232.008 55.727 A 61.963 61.963 0 0 0 233.1 51.4 A 66.098 66.098 0 0 1 231.209 58.526 A 53.002 53.002 0 0 1 229.3 63.5 A 32.512 32.512 0 0 1 225.291 70.444 A 28.913 28.913 0 0 1 223 73.1 A 26.238 26.238 0 0 1 213.942 79.114 A 30.061 30.061 0 0 1 213.6 79.25 A 29.67 29.67 0 0 1 207.677 80.846 Q 204.359 81.4 200.5 81.4 A 47.021 47.021 0 0 1 193.595 80.919 Q 189.856 80.364 186.699 79.166 A 27.529 27.529 0 0 1 185.55 78.7 A 27.578 27.578 0 0 1 178.038 73.964 A 25.269 25.269 0 0 1 175.3 71.1 A 30.42 30.42 0 0 1 170.481 62.681 A 36.895 36.895 0 0 1 169.4 59.4 A 51.12 51.12 0 0 1 167.77 50.383 A 64.379 64.379 0 0 1 167.5 44.4 Q 167.5 40 168.15 35.75 Q 168.8 31.5 169.7 27.3 Q 170.6 23.1 171.5 18.85 Q 172.4 14.6 172.9 10.3 L 175.3 10.3 A 1.091 1.091 0 0 1 175.915 10.821 Q 176.015 10.996 176.08 11.224 A 2.442 2.442 0 0 1 176.1 11.3 Q 176.3 12.1 176.3 12.6 A 17.895 17.895 0 0 1 176.136 15.055 A 16.373 16.373 0 0 1 176.1 15.3 Q 175.9 16.6 175.7 18 L 176.6 18 A 5.208 5.208 0 0 1 176.665 17.682 Q 176.82 17.017 177.25 15.65 A 41.418 41.418 0 0 1 178.366 12.549 A 45.44 45.44 0 0 1 178.55 12.1 A 24.563 24.563 0 0 1 179.533 10.011 A 20.111 20.111 0 0 1 180.2 8.85 A 5.879 5.879 0 0 1 180.618 8.254 Q 181.103 7.655 181.587 7.476 A 1.184 1.184 0 0 1 182 7.4 Q 182.6 7.4 182.9 8.1 A 6.185 6.185 0 0 1 183.19 8.949 A 8.134 8.134 0 0 1 183.35 9.7 Q 183.5 10.6 183.55 11.55 Q 183.6 12.5 183.6 13 Q 183.6 17.1 183.05 21.05 Q 182.5 25 181.8 29 Q 181.1 33 180.55 37 Q 180 41 180 45 A 40.724 40.724 0 0 0 180.38 50.678 A 32.497 32.497 0 0 0 181.2 54.7 A 20.845 20.845 0 0 0 183.201 59.598 A 18.018 18.018 0 0 0 185.05 62.25 A 17.638 17.638 0 0 0 191.003 66.81 A 20.678 20.678 0 0 0 191.75 67.15 A 20.172 20.172 0 0 0 196.136 68.449 Q 198.143 68.815 200.43 68.884 A 35.63 35.63 0 0 0 201.5 68.9 A 20.547 20.547 0 0 0 206.3 68.366 A 15.28 15.28 0 0 0 211.75 65.9 Q 215.9 62.9 218.45 58.25 A 33.821 33.821 0 0 0 221.764 49.385 A 38.54 38.54 0 0 0 222.05 48 A 61.381 61.381 0 0 0 222.987 40.701 A 52.069 52.069 0 0 0 223.1 37.3 Q 223.1 33.1 222.7 29 Q 222.3 24.9 222.3 20.7 L 222.3 20.4 A 8.726 8.726 0 0 1 222.324 19.779 Q 222.371 19.136 222.504 18.284 A 29.406 29.406 0 0 1 222.55 18 Q 222.79 16.557 223.91 16.502 A 1.836 1.836 0 0 1 224 16.5 A 0.118 0.118 0 0 1 224.073 16.595 Q 224.228 17.01 224.35 19.25 A 200.856 200.856 0 0 1 224.48 21.993 Q 224.547 23.641 224.6 25.5 Q 224.7 29 224.75 32.2 Q 224.799 35.303 224.8 36.243 A 36.355 36.355 0 0 1 224.8 36.3 L 224.8 40.3 A 39.092 39.092 0 0 1 224.612 44.075 A 42.644 42.644 0 0 1 224.6 44.2 Q 225.1 41.6 225.15 39.1 Q 225.2 36.6 225.2 34 Q 225.2 29.7 225 25.4 L 224.6 16.8 L 226.5 16.8 A 7.651 7.651 0 0 1 226.403 16.158 Q 226.324 15.453 226.306 14.445 A 35.144 35.144 0 0 1 226.3 13.8 Q 226.3 12 226.7 10.25 Q 226.894 9.403 227.298 8.965 A 1.435 1.435 0 0 1 228.4 8.5 Q 229 8.5 229.6 9.1 A 6.286 6.286 0 0 1 230.506 10.255 A 7.182 7.182 0 0 1 230.65 10.5 Q 231.1 11.3 231.45 12.15 Q 231.797 12.992 231.996 13.393 A 6.232 6.232 0 0 0 232 13.4 Q 231.6 15 231.45 16.7 Q 231.3 18.4 231.3 20.199 Q 231.3 24.1 231.4 28.15 Q 231.5 32.2 231.5 35.7 Q 231.5 42.8 230.45 50.05 A 47.208 47.208 0 0 1 228.132 59.428 A 41.299 41.299 0 0 1 226.5 63.3 Q 223.6 69.3 218.3 73.45 A 22.651 22.651 0 0 1 211.357 77.09 Q 208.275 78.106 204.6 78.5 A 35.444 35.444 0 0 0 210.919 77.326 Q 215.763 75.931 219.2 73.15 Q 224.7 68.7 227.7 62.15 A 48.06 48.06 0 0 0 231.255 50.681 A 55.774 55.774 0 0 0 231.7 47.8 Q 232.7 40 232.7 32.5 Q 232.7 29.4 232.6 26.3 Q 232.5 23.2 232.5 20.1 Z M 31.4 46.2 L 31.4 45 A 4.08 4.08 0 0 1 31.048 45.053 Q 30.679 45.093 30.17 45.099 A 15.175 15.175 0 0 1 30 45.1 Q 27.5 45.1 25.1 44.4 Q 22.7 43.7 20.2 43.7 Q 18.9 43.7 17.7 44 L 17.7 44.4 Q 20.9 44.6 24.25 45.05 Q 27.6 45.5 31.1 46.2 A 140.822 140.822 0 0 0 26.924 45.614 A 169.792 169.792 0 0 0 24.25 45.3 A 68.251 68.251 0 0 0 19.916 44.959 A 55.489 55.489 0 0 0 17.4 44.9 A 60.544 60.544 0 0 0 15.834 44.92 A 50.398 50.398 0 0 0 14.95 44.95 Q 13.8 45 12.7 45.1 A 105.715 105.715 0 0 0 12.714 46.773 Q 12.726 47.512 12.747 48.318 A 185.709 185.709 0 0 0 12.8 50 Q 12.9 52.8 13.2 55.45 A 70.227 70.227 0 0 0 13.482 57.644 Q 13.627 58.642 13.79 59.525 A 39.297 39.297 0 0 0 13.9 60.1 A 13.915 13.915 0 0 0 14.099 60.961 Q 14.437 62.226 14.889 62.689 A 1.287 1.287 0 0 0 14.9 62.7 L 15.8 64.5 Q 17 68.2 23.8 68.2 A 14.01 14.01 0 0 0 25.009 68.144 Q 25.675 68.086 26.429 67.969 A 29.07 29.07 0 0 0 27.4 67.8 Q 29.5 67.4 31.65 66.85 A 92.226 92.226 0 0 1 34.512 66.165 A 78.264 78.264 0 0 1 35.75 65.9 A 23.535 23.535 0 0 1 37.135 65.656 Q 37.816 65.559 38.414 65.522 A 11.231 11.231 0 0 1 39.1 65.5 A 7.62 7.62 0 0 1 39.583 65.514 Q 40.316 65.561 40.582 65.764 A 0.396 0.396 0 0 1 40.7 65.9 A 1.623 1.623 0 0 1 40.821 66.24 Q 40.9 66.561 40.9 67 Q 36.7 67.5 32.8 68.5 Q 29.4 69.4 26.2 69.9 Q 29.4 69.4 32.7 68.7 Q 36.6 67.8 40.6 67.3 Q 40.4 67.9 40.4 68.1 A 1.208 1.208 0 0 0 40.797 69.01 A 1.638 1.638 0 0 0 40.9 69.1 L 42.3 68.9 Q 42.9 68.8 43.5 68.75 A 4.038 4.038 0 0 0 44.228 68.624 A 3.431 3.431 0 0 0 44.6 68.5 Q 46.4 69 47.15 69.6 Q 47.651 70.001 47.817 70.446 A 1.287 1.287 0 0 1 47.9 70.9 A 2.072 2.072 0 0 1 47.765 71.667 Q 47.552 72.206 47.002 72.529 A 2.607 2.607 0 0 1 46.65 72.7 A 6.517 6.517 0 0 0 45.074 73.615 A 8.249 8.249 0 0 0 44.3 74.3 L 43.9 74.3 Q 41 74.3 38.3 74.75 Q 35.6 75.2 32.95 75.7 Q 30.3 76.2 27.55 76.65 Q 24.8 77.1 21.9 77.1 L 20.5 77.1 L 19.9 77.1 A 36.213 36.213 0 0 0 22.36 77.271 A 44.725 44.725 0 0 0 24 77.3 A 46.459 46.459 0 0 0 27.363 77.183 A 38.44 38.44 0 0 0 29.25 77 A 95.662 95.662 0 0 0 33.856 76.325 A 88.027 88.027 0 0 0 34 76.3 Q 36.3 75.9 38.45 75.6 Q 40.6 75.3 42.8 75.3 A 22.021 22.021 0 0 1 41.325 75.966 Q 40.23 76.416 38.9 76.85 A 39.117 39.117 0 0 1 36.154 77.63 A 50.096 50.096 0 0 1 33.8 78.15 A 75.26 75.26 0 0 1 28.187 79.028 A 82.072 82.072 0 0 1 28 79.05 Q 25 79.4 22.1 79.4 Q 20.1 79.4 18.2 79.2 A 9.954 9.954 0 0 1 16.289 78.795 Q 15.234 78.467 14.1 77.9 L 14 76.8 Q 12.85 76.389 11.598 75.404 A 14.268 14.268 0 0 1 11.05 74.95 Q 9.5 73.6 8.2 72.1 A 39.601 39.601 0 0 1 7.069 70.738 Q 6.552 70.084 6.121 69.474 A 23.83 23.83 0 0 1 6 69.3 Q 5.1 68 5.1 67.6 L 4.8 66.7 A 20.279 20.279 0 0 1 3.728 63.898 A 24.298 24.298 0 0 1 3.35 62.5 Q 2.8 60.2 2.5 57.85 Q 2.2 55.5 2 53.2 Q 1.8 50.9 1.7 48.9 Q 1.5 45.6 1.4 42.25 Q 1.3 38.9 1.3 35.5 Q 1.3 32.1 1.35 28.65 Q 1.4 25.2 1.4 21.7 L 1.1 21.7 Q 0.6 25.5 0.55 29 Q 0.5 32.5 0.5 36 L 0.5 39.9 Q 0.5 46.9 1.25 54.5 Q 2 62.1 5.1 69.3 A 24.513 24.513 0 0 1 3.136 65.17 A 19.522 19.522 0 0 1 2.2 61.55 Q 1.6 57.7 1.1 54.4 A 112.078 112.078 0 0 1 0.356 47.611 A 99.385 99.385 0 0 1 0.25 46.1 Q 0 42.1 0 37.9 L 0 35.8 Q 0 30 0.3 24 A 70.056 70.056 0 0 1 1.144 16.227 A 85.727 85.727 0 0 1 2.1 11.3 A 0.864 0.864 0 0 1 1.863 11.27 Q 1.5 11.166 1.5 10.7 A 1.604 1.604 0 0 1 1.554 10.311 Q 1.651 9.927 1.922 9.409 A 8.945 8.945 0 0 1 2.15 9 A 11.19 11.19 0 0 1 3.154 7.578 A 13.592 13.592 0 0 1 3.8 6.85 Q 4.8 5.8 6.05 5.05 Q 7.3 4.3 8.5 4.3 L 32.3 4.3 Q 36 5 39.55 5.45 Q 43.1 5.9 47 6.1 L 46.9 8.4 A 1.039 1.039 0 0 1 46.53 9.216 A 1.474 1.474 0 0 1 46.35 9.35 A 1.407 1.407 0 0 1 46.004 9.499 Q 45.415 9.677 44.216 9.697 A 18.799 18.799 0 0 1 43.9 9.7 Q 43.488 9.7 42.957 9.676 A 35.676 35.676 0 0 1 42.45 9.65 Q 41.6 9.6 40.6 9.5 L 40.6 10.4 A 38.187 38.187 0 0 1 42.992 11.002 Q 45.434 11.706 47.05 12.6 A 10.571 10.571 0 0 1 47.951 13.154 Q 49.4 14.158 49.4 15.1 Q 49.4 16.365 47.236 16.732 A 8.903 8.903 0 0 1 46.75 16.8 A 38.208 38.208 0 0 1 44.923 16.958 Q 42.871 17.091 40.098 17.099 A 125.6 125.6 0 0 1 39.7 17.1 Q 34.1 17.1 27.75 17.05 A 162.31 162.31 0 0 1 17.075 16.625 A 146.17 146.17 0 0 1 15.5 16.5 L 13.8 16.5 Q 13.3 20.3 13.1 24.3 Q 12.9 28.3 12.8 32.5 Q 14.4 32.5 15.95 32.35 Q 17.5 32.2 19.2 32.2 Q 20.327 32.2 21.745 32.362 A 34.449 34.449 0 0 1 22.45 32.45 A 64.399 64.399 0 0 1 25.088 32.865 A 76.13 76.13 0 0 1 26.35 33.1 Q 28.4 33.5 30.45 34.05 A 56.813 56.813 0 0 1 32.646 34.685 A 44.441 44.441 0 0 1 34.2 35.2 Q 34.5 35.3 34.9 35.3 L 36.6 35.3 A 6.66 6.66 0 0 1 37.163 35.322 Q 37.716 35.369 38.054 35.517 A 1.113 1.113 0 0 1 38.35 35.7 Q 38.733 36.04 38.79 36.961 A 5.499 5.499 0 0 1 38.8 37.3 Q 37.1 37.3 35.6 37.1 A 317.533 317.533 0 0 1 33.052 36.75 A 286.588 286.588 0 0 1 32.7 36.7 Q 34.1 37.2 35.6 37.45 A 63.088 63.088 0 0 0 37.553 37.743 A 75.269 75.269 0 0 0 38.8 37.9 A 4.787 4.787 0 0 0 38.662 38.29 Q 38.603 38.486 38.571 38.664 A 2.564 2.564 0 0 0 38.55 38.8 A 7.511 7.511 0 0 0 38.52 39.086 Q 38.507 39.228 38.503 39.354 A 4.039 4.039 0 0 0 38.5 39.5 A 2.47 2.47 0 0 1 39.062 39.679 A 1.568 1.568 0 0 1 39.85 40.45 A 3.77 3.77 0 0 1 40.191 41.822 A 4.457 4.457 0 0 1 40.2 42.1 A 4.972 4.972 0 0 1 40.138 42.911 Q 40.066 43.348 39.909 43.701 A 2.419 2.419 0 0 1 39.65 44.15 A 5.761 5.761 0 0 0 39.422 44.482 Q 39.218 44.807 39.143 45.049 A 0.86 0.86 0 0 0 39.1 45.3 Q 35.2 43.9 31 43.5 Q 27 43 22.8 42.6 Q 26.6 43.2 30.6 43.7 Q 34.8 44.2 38.5 45.9 A 8.052 8.052 0 0 1 38 46.361 A 6.691 6.691 0 0 1 37.7 46.6 A 1.709 1.709 0 0 1 37.394 46.786 Q 37.17 46.889 36.946 46.899 A 1.068 1.068 0 0 1 36.9 46.9 Q 35.5 46.9 34.2 46.55 A 10.254 10.254 0 0 0 32.228 46.228 A 12.17 12.17 0 0 0 31.4 46.2 Z M 624.5 73.5 L 626.1 73.9 Q 627.8 72.9 629.35 71.6 A 4.175 4.175 0 0 0 630.889 68.555 A 5.425 5.425 0 0 0 630.9 68.2 A 3.881 3.881 0 0 0 630.676 66.954 Q 630.247 65.692 629 64.15 A 41.243 41.243 0 0 0 626.122 60.96 A 49.218 49.218 0 0 0 624.6 59.5 Q 622.1 57.2 619.55 55.2 Q 617.023 53.218 615.723 52.316 A 26.352 26.352 0 0 0 615.7 52.3 L 616.5 46.8 Q 617.417 46.342 618.67 46.051 A 14.236 14.236 0 0 1 618.9 46 Q 620.3 45.7 621.8 45.35 Q 623.3 45 624.6 44.4 Q 625.9 43.8 626.7 42.6 L 626.1 42.3 A 0.35 0.35 0 0 1 625.992 42.442 Q 625.707 42.692 624.721 43.026 A 15.449 15.449 0 0 1 624.65 43.05 Q 623.3 43.5 621.6 44.05 Q 619.9 44.6 618.35 45.1 Q 616.8 45.6 616.2 45.9 L 616.3 46.1 A 0.183 0.183 0 0 1 616.271 46.205 Q 616.223 46.277 616.094 46.294 A 0.693 0.693 0 0 1 616 46.3 L 615.9 46.2 L 615 53 A 32.028 32.028 0 0 0 616.161 54.027 Q 617.394 55.07 619.1 56.35 Q 621.7 58.3 624.25 60.4 A 42.557 42.557 0 0 1 627.049 62.911 A 34.438 34.438 0 0 1 628.7 64.65 Q 630.446 66.626 630.588 68.222 A 3.152 3.152 0 0 1 630.6 68.5 A 2.03 2.03 0 0 1 630.353 69.46 A 2.749 2.749 0 0 1 630.1 69.85 A 5.782 5.782 0 0 1 629.305 70.687 A 7.047 7.047 0 0 1 628.85 71.05 Q 628.1 71.6 627.3 72.1 A 7.928 7.928 0 0 1 626.829 72.392 Q 626.59 72.528 626.37 72.628 A 4.219 4.219 0 0 1 626.2 72.7 Q 626.591 72.504 627.174 72.118 A 18.468 18.468 0 0 0 627.2 72.1 A 17.152 17.152 0 0 0 628.612 71.119 A 15.756 15.756 0 0 0 628.7 71.05 A 7.025 7.025 0 0 0 629.638 70.169 A 6.26 6.26 0 0 0 629.9 69.85 A 2.976 2.976 0 0 0 630.182 69.414 Q 630.317 69.156 630.368 68.906 A 1.514 1.514 0 0 0 630.4 68.6 A 4.19 4.19 0 0 0 630.049 66.975 Q 629.784 66.345 629.321 65.686 A 11.157 11.157 0 0 0 628.35 64.5 A 40.1 40.1 0 0 0 625.267 61.539 A 47.881 47.881 0 0 0 623.65 60.2 A 127.859 127.859 0 0 0 618.725 56.482 A 117.214 117.214 0 0 0 618.4 56.25 A 48.057 48.057 0 0 1 617.056 55.261 Q 615.491 54.063 614.7 53.2 A 42.737 42.737 0 0 0 614.831 52.312 Q 614.953 51.422 614.987 50.823 A 7.513 7.513 0 0 0 615 50.4 Q 615 49.711 615.059 48.612 A 78.065 78.065 0 0 1 615.1 47.9 A 0.294 0.294 0 0 0 615.257 47.762 Q 615.378 47.559 615.397 47.082 A 4.672 4.672 0 0 0 615.4 46.9 L 615.4 45.7 Q 618.2 44.5 620.6 43.8 A 24.91 24.91 0 0 0 623.711 42.672 A 21.452 21.452 0 0 0 625 42.05 A 13.154 13.154 0 0 0 628.179 39.691 A 15.183 15.183 0 0 0 628.65 39.2 Q 629.845 37.896 630.961 35.754 A 30.072 30.072 0 0 0 631.8 34 A 5.148 5.148 0 0 0 629.952 29.95 A 7.453 7.453 0 0 0 629 29.25 A 10.643 10.643 0 0 0 626.001 27.994 Q 624.688 27.654 623.147 27.548 A 21.069 21.069 0 0 0 621.7 27.5 A 10.954 10.954 0 0 0 619.891 27.656 A 13.463 13.463 0 0 0 618.75 27.9 A 41.8 41.8 0 0 0 615.7 28.816 A 45.487 45.487 0 0 0 615.6 28.85 Q 614 29.4 612.45 30 Q 610.9 30.6 609.6 31 Q 609.5 30.3 609.05 29.75 Q 608.6 29.2 608.6 28.5 A 1.021 1.021 0 0 1 608.84 27.848 Q 608.961 27.698 609.142 27.56 A 2.46 2.46 0 0 1 609.3 27.45 A 6.095 6.095 0 0 1 610.167 26.991 A 8.015 8.015 0 0 1 610.95 26.7 A 22.48 22.48 0 0 1 612.461 26.279 A 20.019 20.019 0 0 1 612.8 26.2 Q 613.7 26 614.1 25.9 L 613.8 24.7 Q 613.244 24.885 611.785 25.028 A 35.352 35.352 0 0 1 611.55 25.05 Q 609.9 25.2 608.2 25.2 A 14.318 14.318 0 0 1 606.43 25.095 A 11.187 11.187 0 0 1 605.1 24.85 Q 603.7 24.5 603.7 23.5 Q 603.7 22.1 606.3 20.85 A 33.62 33.62 0 0 1 609.447 19.539 A 43.69 43.69 0 0 1 612.2 18.65 Q 615.5 17.7 618.6 17.15 A 89.628 89.628 0 0 1 619.856 16.936 Q 621.549 16.66 622.378 16.611 A 5.478 5.478 0 0 1 622.7 16.6 A 21.774 21.774 0 0 1 627.423 17.138 A 26.895 26.895 0 0 1 630 17.85 Q 633.8 19.1 636.95 21.4 Q 640.1 23.7 642.1 26.85 Q 644.1 30 644.1 33.9 L 644.1 34.3 Q 644 37.2 642.45 39.65 Q 640.9 42.1 638.7 44.1 Q 636.5 46.1 633.95 47.6 Q 631.4 49.1 629.4 50 Q 632.1 51.4 634.4 53.45 A 24.848 24.848 0 0 1 638.141 57.601 A 23.179 23.179 0 0 1 638.35 57.9 Q 640 60.3 640.95 62.95 A 15.968 15.968 0 0 1 641.837 66.856 A 14.393 14.393 0 0 1 641.9 68.2 A 17.398 17.398 0 0 1 641.435 72.333 A 12.423 12.423 0 0 1 638.85 77.5 A 21.156 21.156 0 0 1 631.533 83.02 A 24.379 24.379 0 0 1 631.25 83.15 Q 626.7 85.2 621.45 86 A 72.537 72.537 0 0 1 615.819 86.644 A 56.54 56.54 0 0 1 611.7 86.8 Q 611.207 86.8 610.071 86.699 A 70.829 70.829 0 0 1 609.55 86.65 A 28.162 28.162 0 0 1 606.965 86.274 A 31.789 31.789 0 0 1 606.35 86.15 Q 604.7 85.8 603.45 85.2 A 3.638 3.638 0 0 1 602.918 84.892 Q 602.2 84.382 602.2 83.7 L 602.4 83.2 Q 607.7 85.1 613.5 85.1 Q 617.2 85.1 620.8 84.35 Q 624.4 83.6 627.9 82.3 Q 624.5 83.4 620.95 84.1 Q 617.4 84.8 613.8 84.8 A 31.222 31.222 0 0 1 605.876 83.818 A 28.076 28.076 0 0 1 603 82.9 L 603.7 81.8 A 8.485 8.485 0 0 1 603.222 81.54 Q 602.8 81.294 602.3 80.95 A 13.362 13.362 0 0 1 600.797 79.744 A 14.606 14.606 0 0 1 600.75 79.7 A 10.705 10.705 0 0 1 600.024 78.956 A 8.211 8.211 0 0 1 599.5 78.3 A 2.688 2.688 0 0 1 599.091 77.463 A 2.439 2.439 0 0 1 599 76.8 Q 599 76 599.7 75.65 Q 600.4 75.3 601.1 75.3 Q 601.8 75.3 602.5 75.35 Q 603.2 75.4 603.9 75.4 Q 606 76.9 608.6 77.45 Q 611.2 78 613.8 78 A 16.531 16.531 0 0 0 614.997 77.952 Q 616.197 77.864 617.818 77.616 A 64.388 64.388 0 0 0 618.85 77.45 Q 622.1 76.9 625.2 75.75 A 21.572 21.572 0 0 0 628.599 74.155 A 17.947 17.947 0 0 0 630.6 72.8 A 7.165 7.165 0 0 0 631.862 71.554 A 4.717 4.717 0 0 0 632.9 68.6 A 5.779 5.779 0 0 0 632.505 66.544 Q 632.197 65.732 631.65 64.9 A 24.251 24.251 0 0 0 629.495 62.108 A 28.256 28.256 0 0 0 628.65 61.2 Q 626.9 59.4 625 57.9 A 53.684 53.684 0 0 1 623.608 56.801 Q 622.983 56.289 622.447 55.813 A 29.689 29.689 0 0 1 622.1 55.5 A 28.47 28.47 0 0 0 623.009 56.367 Q 623.527 56.841 624.136 57.36 A 58.197 58.197 0 0 0 624.9 58 Q 626.8 59.5 628.45 61.3 Q 630.1 63.1 631.3 65.05 A 9.21 9.21 0 0 1 632.054 66.551 Q 632.423 67.505 632.487 68.421 A 5.483 5.483 0 0 1 632.5 68.8 A 4.537 4.537 0 0 1 631.214 71.969 A 6.874 6.874 0 0 1 630.35 72.75 Q 628.2 74.4 625.3 75.45 Q 622.4 76.5 619.4 77 A 55.636 55.636 0 0 1 617.981 77.219 Q 615.975 77.5 614.7 77.5 Q 612.2 77.5 609.75 77.05 Q 607.3 76.6 605.1 75.4 A 14.071 14.071 0 0 1 606.188 75.263 A 15.625 15.625 0 0 1 606.35 75.25 Q 607 75.2 607.6 75.2 A 61.869 61.869 0 0 1 610.077 75.247 A 48.479 48.479 0 0 1 611.85 75.35 Q 613.8 75.5 615.7 75.5 Q 617.8 75.5 619.9 75.1 A 15.229 15.229 0 0 0 621.814 74.597 Q 622.774 74.28 623.805 73.822 A 26.585 26.585 0 0 0 624.5 73.5 Z M 507.5 15.4 L 510.5 15.4 A 49.112 49.112 0 0 1 513.202 15.477 A 54.26 54.26 0 0 1 513.6 15.5 Q 512.2 16.4 510.65 16.8 Q 509.1 17.2 507.55 17.35 A 33.039 33.039 0 0 1 504.556 17.499 A 36.091 36.091 0 0 1 504.35 17.5 Q 502.7 17.5 501.1 17.6 L 500.2 16.4 Q 497.9 16.8 495.6 16.9 Q 493.3 17 491 17 L 482.1 16.9 L 482.2 17.8 L 498.9 17.7 Q 490.4 18.2 482.2 18.3 Q 482.3 19.6 482.4 20.85 Q 482.5 22.1 482.7 23.4 L 481.5 23.7 A 47.607 47.607 0 0 1 482.291 27.967 A 59.793 59.793 0 0 1 482.65 31.15 Q 483 35.2 483.3 39.4 Q 483.6 43.6 484.15 47.65 A 45.074 45.074 0 0 0 484.939 51.955 A 35.367 35.367 0 0 0 485.8 55 L 486.1 54.7 Q 485.5 51.3 485 47.35 Q 484.5 43.4 484.05 39.25 Q 483.6 35.1 483.2 31.1 Q 482.9 27.3 482.7 24 A 174.496 174.496 0 0 0 483.514 32.143 A 201.579 201.579 0 0 0 483.9 35.1 Q 484.8 41 485.8 47.05 Q 486.8 53.1 487.75 59 Q 488.7 64.9 489.5 70.3 Q 489.7 72 490 73.95 Q 490.3 75.9 490.3 77.9 L 490.3 79.1 Q 490.3 79.8 490.1 80.4 Q 489.4 80.4 488.75 80.65 Q 488.1 80.9 487.4 80.9 A 1.637 1.637 0 0 1 486.862 80.818 Q 486.372 80.648 486.153 80.127 A 1.971 1.971 0 0 1 486.05 79.8 Q 485.859 78.958 485.814 78.291 A 5.835 5.835 0 0 1 485.8 77.9 L 484.9 77.9 A 10.734 10.734 0 0 1 484.823 78.309 Q 484.725 78.781 484.561 79.408 A 34.008 34.008 0 0 1 484.55 79.45 Q 484.3 80.4 483.85 81.3 Q 483.4 82.2 482.75 82.8 A 2.372 2.372 0 0 1 482.141 83.215 A 1.974 1.974 0 0 1 481.3 83.4 Q 480.304 83.4 479.506 82.011 A 5.917 5.917 0 0 1 479.5 82 Q 478.7 80.6 478.05 78.4 A 37.791 37.791 0 0 1 477.382 75.783 A 47.921 47.921 0 0 1 476.95 73.55 A 202.646 202.646 0 0 1 476.331 69.687 A 178.86 178.86 0 0 1 476.15 68.45 Q 475.8 66 475.55 64 Q 475.309 62.075 475.115 61.169 A 9.553 9.553 0 0 0 475.1 61.1 Q 474.1 56.9 473.25 51.9 Q 472.4 46.9 471.8 41.8 Q 471.2 36.7 470.85 31.65 A 148.85 148.85 0 0 1 470.553 25.737 A 120.506 120.506 0 0 1 470.5 22.2 A 17.877 17.877 0 0 1 470.537 21.034 A 16.07 16.07 0 0 1 470.55 20.85 A 17.363 17.363 0 0 0 470.599 19.685 A 19.322 19.322 0 0 0 470.6 19.5 L 470.6 18.9 Q 470.6 18.5 470.5 18.1 A 174.085 174.085 0 0 1 462.671 17.797 A 148.874 148.874 0 0 1 459.3 17.55 Q 454 17.1 447.5 16.3 A 7.317 7.317 0 0 0 447.586 15.511 A 9.044 9.044 0 0 0 447.6 15 A 5.744 5.744 0 0 1 447.659 14.164 A 4.78 4.78 0 0 1 447.75 13.7 A 2.902 2.902 0 0 1 448.051 12.946 A 2.612 2.612 0 0 1 448.25 12.65 A 1.023 1.023 0 0 1 448.68 12.335 Q 449.008 12.2 449.5 12.2 Q 449.966 12.2 450.554 12.321 A 8.461 8.461 0 0 1 450.9 12.4 L 451.2 11.5 A 10.845 10.845 0 0 1 450.254 11.046 Q 449.406 10.592 448.4 9.9 A 4.779 4.779 0 0 1 447.591 9.212 Q 447.123 8.704 446.932 8.128 A 2.614 2.614 0 0 1 446.8 7.3 A 1.825 1.825 0 0 1 446.887 6.723 A 1.441 1.441 0 0 1 447.5 5.95 A 4.262 4.262 0 0 1 448.355 5.533 A 5.833 5.833 0 0 1 449.2 5.3 Q 450.2 5.1 451.2 5.05 Q 452.2 5 452.7 5 Q 456.3 5 459.85 5.4 Q 463.4 5.8 467 5.8 Q 476.1 5.8 485.1 6.05 Q 494.1 6.3 503.2 6.3 Q 505 6.3 506.75 5.8 Q 508.5 5.3 510.3 5.3 Q 511 5.3 511.55 5.7 Q 512.1 6.1 512.1 6.9 Q 509.4 7.4 506.6 7.7 Q 504.1 7.9 501.5 8.1 Q 504.1 8.1 506.6 7.9 Q 509.3 7.7 512.1 7.5 L 512.1 9.4 L 513.9 9.1 Q 514.7 9.3 515.4 9.85 A 1.791 1.791 0 0 1 516.085 11.12 A 2.599 2.599 0 0 1 516.1 11.4 A 3.325 3.325 0 0 1 515.744 12.883 A 4.062 4.062 0 0 1 515.6 13.15 A 7.959 7.959 0 0 1 515.006 14.027 A 6.35 6.35 0 0 1 514.5 14.6 Q 506.8 14.6 499.2 15.05 Q 491.6 15.5 484 15.5 Q 485.3 15.6 486.55 15.65 A 63.037 63.037 0 0 0 488.34 15.695 A 74.527 74.527 0 0 0 489.2 15.7 Q 493.8 15.7 498.35 15.55 Q 502.9 15.4 507.5 15.4 Z M 590.7 79.4 L 589.5 79.9 Q 588.628 79.513 587.475 79.266 A 14.303 14.303 0 0 0 587.4 79.25 A 18.847 18.847 0 0 0 585.557 78.964 A 21.902 21.902 0 0 0 584.85 78.9 Q 583.5 78.8 582.2 78.75 A 75.291 75.291 0 0 0 581.12 78.716 Q 580.627 78.704 580.187 78.701 A 42.58 42.58 0 0 0 579.9 78.7 Q 575.2 78.7 570.55 78.95 Q 565.9 79.2 561.2 79.4 A 24.225 24.225 0 0 0 562.73 79.492 A 20.862 20.862 0 0 0 563.3 79.5 L 565.5 79.5 Q 568.4 79.5 571.3 79.4 Q 574.2 79.3 577.1 79.3 Q 579.7 79.3 582.25 79.5 Q 584.8 79.7 587.4 80.2 Q 585.9 80.7 582.75 80.95 A 179.173 179.173 0 0 1 577.856 81.269 A 204.479 204.479 0 0 1 576.15 81.35 A 246.267 246.267 0 0 1 571.116 81.519 A 219.549 219.549 0 0 1 569.5 81.55 Q 567.05 81.588 565.421 81.597 A 168.06 168.06 0 0 1 564.5 81.6 L 563.7 80.5 A 1.359 1.359 0 0 0 563.535 80.51 Q 563.434 80.522 563.35 80.55 Q 563.209 80.597 563.025 80.6 A 1.564 1.564 0 0 1 563 80.6 Q 562.6 80.6 562.2 80.55 Q 561.803 80.5 561.308 80.5 A 10.873 10.873 0 0 0 561.3 80.5 L 560.6 80.5 Q 560.3 80.5 560 80.7 Q 559.1 80.7 558.25 80.6 Q 557.4 80.5 556.5 80.5 L 554.5 70.6 L 556.8 69.4 Q 560.7 66.8 564.45 64.05 Q 568.2 61.3 571.45 58.05 Q 574.7 54.8 577.35 51.05 Q 580 47.3 581.7 42.7 L 581.4 42.1 A 26.264 26.264 0 0 0 582.316 40.067 Q 582.74 39.001 583.007 38.013 A 15.394 15.394 0 0 0 583.1 37.65 Q 583.6 35.6 583.6 33.5 A 11.904 11.904 0 0 0 583.5 31.895 Q 583.257 30.118 582.424 29.189 A 2.938 2.938 0 0 0 582 28.8 Q 580.4 27.6 577.9 27.6 A 10.492 10.492 0 0 0 574.587 28.107 A 9.155 9.155 0 0 0 572 29.45 Q 569.5 31.3 567.8 33.8 Q 567.3 33 566.35 32.75 A 1.876 1.876 0 0 1 565.946 32.597 Q 565.4 32.306 565.4 31.7 A 2.341 2.341 0 0 1 565.67 30.634 Q 565.849 30.28 566.148 29.925 A 5.476 5.476 0 0 1 566.55 29.5 A 85.596 85.596 0 0 1 567.097 28.981 Q 567.632 28.479 568.047 28.109 A 24.975 24.975 0 0 1 568.4 27.8 L 567.8 26.9 A 7.391 7.391 0 0 1 567.569 27.065 Q 567.119 27.376 566.2 27.95 Q 565 28.7 563.7 29.55 Q 562.4 30.4 561.25 31.05 A 14.293 14.293 0 0 1 560.845 31.271 Q 560.025 31.7 559.7 31.7 Q 558.756 31.7 558.555 30.896 A 2.046 2.046 0 0 1 558.5 30.4 A 8.021 8.021 0 0 1 559.398 26.758 A 10.881 10.881 0 0 1 560.4 25.15 A 20.524 20.524 0 0 1 564.836 20.803 A 23.031 23.031 0 0 1 565.05 20.65 Q 567.8 18.7 571 17.5 A 20.803 20.803 0 0 1 573.704 16.68 Q 575.381 16.3 576.9 16.3 A 31.453 31.453 0 0 1 581.685 16.652 A 26.536 26.536 0 0 1 584.35 17.2 A 17.413 17.413 0 0 1 588.692 18.957 A 15.606 15.606 0 0 1 590.4 20.1 A 13.832 13.832 0 0 1 594.308 24.861 A 16.123 16.123 0 0 1 594.5 25.25 A 14.805 14.805 0 0 1 595.668 28.935 Q 596 30.729 596 32.8 A 29.658 29.658 0 0 1 594.265 42.683 A 34.15 34.15 0 0 1 593.85 43.8 Q 591.7 49.3 588.2 54.2 Q 584.7 59.1 580.25 63.25 A 60.155 60.155 0 0 1 574.629 67.91 A 50.138 50.138 0 0 1 571.2 70.2 Q 572.2 70.1 573.65 70 Q 575.1 69.9 576.7 69.8 Q 578.3 69.7 579.75 69.65 Q 580.747 69.616 581.531 69.605 A 48.996 48.996 0 0 1 582.2 69.6 A 12.791 12.791 0 0 1 583.933 69.723 A 16.227 16.227 0 0 1 585.2 69.95 A 7.093 7.093 0 0 1 586.717 70.457 A 5.704 5.704 0 0 1 587.9 71.2 L 587.7 71.8 Q 584.8 71.5 582 71.5 A 81.566 81.566 0 0 0 580.962 71.507 Q 580.503 71.513 580 71.524 A 145.889 145.889 0 0 0 578.95 71.55 Q 577.2 71.6 575.4 71.7 Q 573.6 71.8 571.85 71.9 Q 570.1 72 568.8 72.1 L 568.8 72.2 Q 569.695 72.2 571.029 72.16 A 141.012 141.012 0 0 0 571.35 72.15 Q 572.9 72.1 574.55 72.05 Q 576.2 72 577.7 71.95 A 105.28 105.28 0 0 1 578.769 71.92 Q 579.191 71.91 579.573 71.905 A 57.091 57.091 0 0 1 580.3 71.9 Q 582.1 71.9 583.85 72.05 Q 585.6 72.2 587.4 72.4 Q 587.152 72.814 587.109 73.091 A 0.717 0.717 0 0 0 587.1 73.2 A 0.858 0.858 0 0 0 587.51 73.966 Q 587.756 74.125 588.15 74.2 Q 589.2 74.4 590.45 74.65 A 15.447 15.447 0 0 1 591.934 75.021 A 12.787 12.787 0 0 1 592.75 75.3 Q 593.788 75.695 593.8 76.678 A 1.885 1.885 0 0 1 593.8 76.7 A 1.42 1.42 0 0 1 593.53 77.527 A 2.025 2.025 0 0 1 593.3 77.8 A 6.133 6.133 0 0 1 592.349 78.573 A 6.954 6.954 0 0 1 592.15 78.7 A 7.929 7.929 0 0 1 591.185 79.203 A 9.425 9.425 0 0 1 590.7 79.4 Z M 427.8 53.8 L 427.8 54.2 L 427.8 53.8 Q 428.3 50.9 428.5 48.1 Q 428.7 45.1 428.7 41.8 Q 428.7 35.3 428.1 28.2 L 428.7 28.2 Q 429.2 30.8 429.35 33.2 Q 429.5 35.6 429.5 38.1 Q 429.5 43 429.1 47.85 Q 428.7 52.7 428.7 57.6 L 427.3 58.2 Q 427.1 61 426.3 63.6 A 19.518 19.518 0 0 0 425.877 65.21 A 16.002 16.002 0 0 0 425.5 68.6 A 6.252 6.252 0 0 0 425.501 68.699 Q 425.513 69.438 425.7 70 Q 425.9 70.6 426.3 71.4 A 46.598 46.598 0 0 0 427.781 67.177 A 53.885 53.885 0 0 0 429.7 57.4 Q 430.6 50 430.9 42.6 L 430.9 44.1 A 15.478 15.478 0 0 1 430.948 44.614 A 17.959 17.959 0 0 1 431 46 Q 430.6 52.7 429.8 59.35 A 61.195 61.195 0 0 1 429.319 62.616 A 52.438 52.438 0 0 1 426.9 71.7 L 426.6 72.6 Q 427 73 427.25 73.5 Q 427.5 74 427.75 74.45 Q 428 74.9 428.4 75.2 A 1.286 1.286 0 0 0 428.661 75.35 Q 429.006 75.5 429.5 75.5 A 1.867 1.867 0 0 0 430.226 75.355 A 2.255 2.255 0 0 0 430.8 75 Q 431.4 74.5 431.8 73.85 A 21.524 21.524 0 0 0 431.979 73.554 Q 432.259 73.083 432.45 72.7 A 3.158 3.158 0 0 1 432.489 72.624 Q 432.644 72.335 432.779 72.243 A 0.216 0.216 0 0 1 432.9 72.2 Q 433.5 72.2 433.9 72.6 A 71.554 71.554 0 0 0 434.554 70.362 A 86.078 86.078 0 0 0 435.55 66.35 Q 436.3 63 437 59.8 Q 436.5 63.3 435.85 66.5 Q 435.2 69.7 434.5 72.9 A 3.598 3.598 0 0 0 434.675 72.982 Q 434.947 73.1 435.1 73.1 A 0.669 0.669 0 0 0 435.351 73.049 Q 436.026 72.778 436.7 71.05 Q 437.5 69 438.1 65.7 A 88.981 88.981 0 0 0 438.179 65.258 Q 438.733 62.121 439.2 58.2 Q 439.7 54 440.05 49.75 Q 440.4 45.5 440.6 41.5 A 189.768 189.768 0 0 0 440.706 39.098 Q 440.8 36.563 440.8 34.5 Q 440.8 31.5 440.55 28.55 Q 440.3 25.6 440 22.7 Q 439.6 19.5 439.6 15.85 Q 439.6 12.2 439.4 9.15 A 35.726 35.726 0 0 0 439.279 7.72 Q 439.054 5.6 438.6 4.05 Q 438.389 3.327 438.065 2.859 A 1.821 1.821 0 0 0 436.5 2 A 2.787 2.787 0 0 1 436.413 1.999 A 2.251 2.251 0 0 1 435.1 1.55 A 3.084 3.084 0 0 0 435.07 1.527 Q 434.485 1.1 433.9 1.1 Q 433.4 1.1 433 1.7 L 432.1 1.7 L 431.5 0.5 L 429.8 0 A 3.872 3.872 0 0 0 429.721 0.001 Q 429.341 0.009 429.028 0.092 A 1.77 1.77 0 0 0 427.95 0.85 Q 427.623 1.355 427.42 2.018 A 6.976 6.976 0 0 0 427.2 3 Q 427 4.3 426.95 5.7 Q 426.9 7.1 426.6 8.3 L 426.6 11.1 Q 427.1 19.9 427.75 28.25 Q 428.4 36.6 428.4 44.7 Q 428.4 47.3 428.2 49.6 A 44.386 44.386 0 0 1 428.118 50.87 A 51.847 51.847 0 0 1 427.8 53.8 Z M 81.4 43.9 A 27.64 27.64 0 0 1 80.233 43.832 A 24.052 24.052 0 0 1 76.3 43.2 A 5.681 5.681 0 0 1 76.165 43.153 Q 75.953 43.077 75.8 43 A 5.681 5.681 0 0 1 75.935 43.047 Q 76.147 43.123 76.3 43.2 Q 78.8 43.7 81.4 43.9 Q 84.4 44 87.4 44 L 87.4 43.7 Q 87.4 43.1 87.2 42.55 A 0.673 0.673 0 0 0 87.08 42.343 Q 86.79 42 86 42 Q 85.4 42 84.65 42.1 A 12.093 12.093 0 0 1 84.371 42.134 A 10.734 10.734 0 0 1 83.2 42.2 A 15.486 15.486 0 0 0 83.012 42.134 Q 81.677 41.677 79.95 41.35 Q 78.1 41 76.2 40.75 Q 74.3 40.5 72.7 40.4 A 78.065 78.065 0 0 0 71.988 40.359 Q 71.248 40.319 70.694 40.306 A 21.362 21.362 0 0 0 70.2 40.3 Q 68.7 40.3 67.2 40.55 Q 65.7 40.8 64.1 40.8 A 23.388 23.388 0 0 1 63.556 40.794 A 20.417 20.417 0 0 1 62 40.7 A 19.084 19.084 0 0 0 61.494 40.656 A 21.85 21.85 0 0 0 59.9 40.6 A 9.041 9.041 0 0 0 59.069 40.638 A 7.463 7.463 0 0 0 56.8 41.2 A 2.135 2.135 0 0 0 55.517 42.609 A 3.165 3.165 0 0 0 55.4 43.5 A 4.354 4.354 0 0 0 55.459 44.216 A 4.768 4.768 0 0 0 55.95 45.65 A 3.866 3.866 0 0 0 56.37 46.291 A 4.062 4.062 0 0 0 57.6 47.3 L 57 48.3 A 1.132 1.132 0 0 0 56.755 48.325 A 0.663 0.663 0 0 0 56.3 48.65 A 1.312 1.312 0 0 0 56.293 48.663 Q 56.1 49.009 56.1 49.5 A 10.725 10.725 0 0 0 56.115 50.08 Q 56.144 50.626 56.235 50.978 A 1.639 1.639 0 0 0 56.35 51.3 Q 56.6 51.8 57.1 52 Q 57.354 52.102 57.647 52.19 A 9.272 9.272 0 0 0 58.25 52.35 Q 58.656 52.444 59.121 52.674 A 6.776 6.776 0 0 1 59.7 53 L 60.9 53 A 162.443 162.443 0 0 0 61.337 52.999 A 149.018 149.018 0 0 0 67.7 52.85 Q 71 52.7 74.3 52.7 Q 77.7 52.7 81 53 Q 78.6 52.7 76.25 52.5 Q 73.9 52.3 71.5 52.3 Q 70.7 52.3 69.9 52.35 Q 69.1 52.4 68.3 52.4 L 68.3 52.2 A 0.703 0.703 0 0 0 68.297 52.134 Q 68.283 51.983 68.2 51.9 A 17.2 17.2 0 0 1 68.312 51.869 Q 70.047 51.4 71.5 51.4 Q 73.4 51.4 75.25 51.75 A 19.173 19.173 0 0 0 75.54 51.803 A 20.817 20.817 0 0 0 79.1 52.1 A 10.431 10.431 0 0 0 79.385 52.096 A 12.112 12.112 0 0 0 80.15 52.05 Q 80.7 52 81.2 51.9 L 81.9 53 A 102.793 102.793 0 0 1 82.204 53.028 Q 82.654 53.07 83.058 53.113 A 60.272 60.272 0 0 1 83.85 53.2 A 28.95 28.95 0 0 1 84.268 53.252 Q 84.981 53.347 85.9 53.5 Q 86.7 53.5 87.6 52.4 Q 84.1 51 80.35 50.8 Q 76.6 50.6 72.9 50.2 Q 73.7 50.2 74.5 50.15 Q 75.3 50.1 76.1 50.1 Q 77.544 50.1 79.504 50.229 A 99.51 99.51 0 0 1 81.7 50.4 A 38.287 38.287 0 0 1 82.638 50.494 Q 84.019 50.65 85.24 50.896 A 21.902 21.902 0 0 1 87.6 51.5 L 88 51.7 A 6.744 6.744 0 0 0 88.393 51.033 A 5.28 5.28 0 0 0 89 48.6 A 4.075 4.075 0 0 0 88.995 48.394 A 3.149 3.149 0 0 0 88.2 46.4 L 87.3 46.2 A 0.408 0.408 0 0 0 87.29 46.113 A 0.482 0.482 0 0 0 87.25 46 A 0.523 0.523 0 0 1 87.229 45.953 A 0.426 0.426 0 0 1 87.2 45.8 A 2.163 2.163 0 0 1 87.209 45.614 Q 87.242 45.232 87.4 44.6 Q 84.5 44.1 81.4 43.9 Z M 528.7 39.8 L 528.7 39.2 A 2.717 2.717 0 0 0 528.681 38.869 Q 528.659 38.694 528.614 38.543 A 1.615 1.615 0 0 0 528.6 38.5 A 11.518 11.518 0 0 1 528.339 40.059 A 10.366 10.366 0 0 1 528.25 40.4 Q 528 41.3 527.8 42.2 L 526.2 41.8 A 1.251 1.251 0 0 1 525.988 42.495 A 1.548 1.548 0 0 1 525.95 42.55 A 0.812 0.812 0 0 1 525.386 42.887 A 1.24 1.24 0 0 1 525.2 42.9 A 3.771 3.771 0 0 1 524.112 42.75 A 2.995 2.995 0 0 1 522.9 42.05 Q 522 41.2 520.8 40.7 A 0.324 0.324 0 0 0 521.029 40.59 Q 521.289 40.329 521.5 39.45 A 18.803 18.803 0 0 0 521.711 38.442 Q 521.814 37.881 521.901 37.243 A 36.013 36.013 0 0 0 522 36.45 A 56.926 56.926 0 0 0 522.236 33.831 A 66.382 66.382 0 0 0 522.3 32.75 A 90.187 90.187 0 0 0 522.361 31.365 Q 522.385 30.684 522.395 30.086 A 44.85 44.85 0 0 0 522.4 29.4 L 522.4 27.7 Q 522.318 28.272 522.237 29.778 A 109.831 109.831 0 0 0 522.2 30.5 Q 522.1 32.6 521.85 34.8 Q 521.6 37 521.2 38.75 Q 520.8 40.5 520.2 40.5 A 0.456 0.456 0 0 1 520.07 40.479 Q 519.945 40.441 519.78 40.337 A 2.643 2.643 0 0 1 519.65 40.25 A 6.598 6.598 0 0 1 519.427 40.084 Q 519.231 39.931 519.1 39.8 Q 519.4 39.1 519.5 38.35 A 11.689 11.689 0 0 0 519.6 36.85 A 12.77 12.77 0 0 0 519.6 36.8 L 519.6 35.8 L 520.7 35.8 Q 520.6 35.3 520.55 34.8 Q 520.5 34.3 520.5 33.8 Q 520.5 31.8 520.85 29.8 Q 521.2 27.8 521.2 25.8 Q 521.2 24.3 520.9 22.8 L 520.3 22.8 A 112.514 112.514 0 0 1 520.071 30.08 A 101.386 101.386 0 0 1 520 31.1 L 520 23.9 Q 520 21.4 520.1 18.9 Q 520.2 16.4 520.7 13.9 Q 521.3 13.1 521.85 12.25 Q 522.4 11.4 522.4 10.4 A 1.977 1.977 0 0 0 522.593 10.452 Q 522.869 10.514 523.3 10.55 A 12.255 12.255 0 0 1 524.242 10.664 A 10.97 10.97 0 0 1 524.45 10.7 Q 525 10.8 525.4 11.05 Q 525.8 11.3 525.8 11.8 A 1.703 1.703 0 0 1 525.683 12.413 A 2.091 2.091 0 0 1 525.6 12.6 L 526.6 12.8 A 5.289 5.289 0 0 1 527.728 11.927 A 3.941 3.941 0 0 1 529.7 11.4 Q 531.2 11.4 532.1 12.05 A 1.987 1.987 0 0 1 532.802 13.009 Q 533 13.55 533 14.3 Q 533 17.5 532.6 20.65 Q 532.2 23.8 531.7 26.9 A 304.134 304.134 0 0 0 531.006 31.409 A 266.582 266.582 0 0 0 530.8 32.85 Q 530.4 35.7 530.4 38.1 Q 530.4 38.4 530.45 39 Q 530.5 39.6 530.5 40.3 A 5.535 5.535 0 0 1 530.441 41.125 A 4.131 4.131 0 0 1 530.25 41.9 Q 530 42.6 529.2 42.6 A 1.342 1.342 0 0 1 529.009 42.584 Q 528.803 42.554 528.51 42.466 A 7.22 7.22 0 0 1 528.3 42.4 Q 528.7 41.2 528.7 39.8 Z M 541.2 14.1 L 542.2 14.3 Q 543 13.6 543.9 13.4 A 8.537 8.537 0 0 1 545.429 13.207 A 9.727 9.727 0 0 1 545.8 13.2 A 2.992 2.992 0 0 1 546.653 13.315 A 2.22 2.22 0 0 1 547.8 14.1 A 3.315 3.315 0 0 1 548.5 16.163 A 4.093 4.093 0 0 1 548.5 16.2 Q 548.5 17.219 548.157 19.823 A 111.664 111.664 0 0 1 548.1 20.25 Q 547.7 23.2 547.25 26.55 Q 546.8 29.9 546.4 32.85 A 104.942 104.942 0 0 0 546.244 34.047 Q 546.043 35.672 546.008 36.489 A 7.271 7.271 0 0 0 546 36.8 Q 546 37.2 546.05 37.75 Q 546.1 38.3 546.1 38.9 Q 546.1 39.7 545.85 40.4 A 0.969 0.969 0 0 1 545.188 41.035 Q 544.974 41.1 544.7 41.1 A 1.703 1.703 0 0 1 544.088 40.983 A 2.091 2.091 0 0 1 543.9 40.9 A 6.945 6.945 0 0 0 544.059 40.055 A 5.426 5.426 0 0 0 544.1 39.4 L 544.1 37.8 L 543.4 40.6 L 541.8 40.2 L 541 41.1 Q 540.232 41.1 539.345 40.598 A 6.406 6.406 0 0 1 538.8 40.25 A 32.306 32.306 0 0 0 537.942 39.662 Q 537.52 39.383 537.143 39.156 A 15.3 15.3 0 0 0 536.7 38.9 A 0.497 0.497 0 0 0 536.666 38.869 Q 536.583 38.8 536.5 38.8 L 536.6 38.9 L 536.7 38.9 Q 536.944 38.737 537.122 37.778 A 11.695 11.695 0 0 0 537.2 37.3 Q 537.5 35.7 537.65 33.8 A 159.767 159.767 0 0 0 537.894 30.213 A 146.951 146.951 0 0 0 537.9 30.1 A 155.319 155.319 0 0 0 537.939 29.37 Q 537.989 28.38 537.998 27.887 A 10.555 10.555 0 0 0 538 27.7 A 23.074 23.074 0 0 0 537.864 28.759 Q 537.763 29.713 537.7 30.9 A 58.947 58.947 0 0 1 537.515 33.418 A 50.26 50.26 0 0 1 537.4 34.5 Q 537.2 36.2 536.9 37.45 Q 536.6 38.7 536.1 38.7 Q 535.465 38.7 535.029 38.501 A 1.565 1.565 0 0 1 534.7 38.3 A 2.809 2.809 0 0 0 534.974 37.674 A 3.793 3.793 0 0 0 535.1 37.1 Q 535.2 36.4 535.2 35.7 L 535.2 34.9 L 536.3 34.9 Q 536.2 34.4 536.2 34.1 L 536.2 33.2 Q 536.2 31.4 536.5 29.6 Q 536.8 27.8 536.8 25.9 A 12.417 12.417 0 0 0 536.631 23.894 A 14.442 14.442 0 0 0 536.5 23.2 L 535.9 23.2 Q 535.9 25.4 535.7 27.55 Q 535.5 29.7 535.4 31.9 L 535.3 26.8 L 535.3 25.9 Q 535.3 22.2 535.9 18.85 A 27.012 27.012 0 0 1 537.188 14.2 A 32.708 32.708 0 0 1 538.1 12 Q 538.4 12.1 538.9 12.2 L 540 12.4 A 3.447 3.447 0 0 1 540.455 12.506 Q 540.7 12.582 540.901 12.692 A 1.978 1.978 0 0 1 541 12.75 A 1.027 1.027 0 0 1 541.211 12.921 A 0.682 0.682 0 0 1 541.4 13.4 Q 541.4 13.62 541.292 13.894 A 2.536 2.536 0 0 1 541.2 14.1 Z M 557.3 68.4 A 35.893 35.893 0 0 0 559.341 67.038 Q 561.119 65.769 563.15 64.05 Q 566.4 61.3 569.65 57.95 Q 572.9 54.6 575.8 50.8 Q 578.7 47 580.7 43.2 A 37.418 37.418 0 0 1 579.041 46.404 Q 578.11 48.017 576.94 49.735 A 63.634 63.634 0 0 1 576.55 50.3 Q 573.9 54.1 570.65 57.65 A 68.242 68.242 0 0 1 564.337 63.735 A 62.901 62.901 0 0 1 563.9 64.1 A 38.656 38.656 0 0 1 561.122 66.209 Q 559.698 67.186 558.347 67.891 A 20.697 20.697 0 0 1 557.3 68.4 Z M 3.9 56.6 Q 4.3 59 4.85 61.75 Q 5.4 64.5 6.55 67.15 A 19.101 19.101 0 0 0 9.638 72.028 A 21.266 21.266 0 0 0 9.7 72.1 Q 11.3 74 13.9 75.3 Q 10.9 73.7 9 70.9 Q 6.8 67.5 5.55 63.3 A 54.812 54.812 0 0 1 3.948 56.145 A 61.887 61.887 0 0 1 3.7 54.4 Q 3.2 49.7 2.9 45.4 Q 3 48.1 3.2 50.9 Q 3.4 53.7 3.9 56.6 Z M 637.2 75.8 A 9.941 9.941 0 0 0 639.319 71.56 Q 639.676 70.074 639.699 68.333 A 18.169 18.169 0 0 0 639.7 68.1 Q 639.7 64.4 637.9 61.3 Q 636.1 58.3 633.6 55.8 Q 636.2 58.6 637.7 62.1 A 17.93 17.93 0 0 1 639.294 69.19 A 20.731 20.731 0 0 1 639.3 69.7 A 7.076 7.076 0 0 1 638.695 72.533 A 8.486 8.486 0 0 1 638.45 73.05 Q 637.6 74.7 636.35 76.15 Q 635.1 77.6 633.6 78.8 Q 632.579 79.651 631.703 80.212 A 12.171 12.171 0 0 1 631.4 80.4 A 25.192 25.192 0 0 0 634.869 78.033 A 20.111 20.111 0 0 0 637.2 75.8 Z M 480.3 18.3 L 479.4 18.3 Q 479.6 21.2 479.95 24.7 Q 480.3 28.2 480.7 31.8 Q 481.1 35.4 481.55 38.85 Q 482 42.3 482.4 45.2 Q 482.11 42.49 481.773 39.125 A 1236.848 1236.848 0 0 1 481.75 38.9 Q 481.4 35.4 481.1 31.8 Q 480.8 28.2 480.55 24.7 Q 480.3 21.2 480.3 18.3 Z M 558.8 70 L 559.3 70.1 Q 563.5 67.5 567.05 64.2 Q 570.6 60.9 573.9 57.4 Q 570.4 60.9 566.7 64.1 Q 563 67.3 558.8 70 Z M 438.5 42.9 A 31.991 31.991 0 0 0 438.014 44.698 Q 437.783 45.673 437.65 46.55 Q 437.4 48.2 437.35 49.7 A 92.008 92.008 0 0 0 437.301 52.402 A 101.211 101.211 0 0 0 437.3 52.8 Q 437.3 54.2 437.2 55.9 Q 437.6 52.5 437.9 49.7 Q 438.274 46.893 438.473 43.387 A 117.405 117.405 0 0 0 438.5 42.9 Z M 216.8 65.4 A 41.417 41.417 0 0 0 216.044 65.844 Q 214.825 66.575 213.1 67.7 Q 211.362 68.834 208.823 69.853 A 41.831 41.831 0 0 1 207.1 70.5 A 19.211 19.211 0 0 0 209.408 69.847 A 21.731 21.731 0 0 0 209.95 69.65 Q 211.4 69.1 212.7 68.35 A 28.27 28.27 0 0 0 214.465 67.246 A 24.391 24.391 0 0 0 215.1 66.8 A 23.212 23.212 0 0 0 215.739 66.32 Q 216.367 65.829 216.773 65.427 A 6.905 6.905 0 0 0 216.8 65.4 Z M 497.6 8.1 L 492.1 8.1 Q 489.6 8.1 487.1 8 Q 488.3 8.2 489.4 8.4 A 13.24 13.24 0 0 0 491.07 8.643 A 17.163 17.163 0 0 0 492.5 8.7 Q 493.7 8.7 495.05 8.5 Q 496.4 8.3 497.6 8.1 Z M 300.8 17.4 L 300.7 16.8 L 297.3 25.8 Q 298.3 23.7 299.15 21.6 Q 300 19.5 300.8 17.4 Z M 390.6 17.4 L 390.5 16.8 L 387.1 25.8 Q 388.1 23.7 388.95 21.6 Q 389.8 19.5 390.6 17.4 Z M 310.9 16.6 L 311.2 16.4 A 7.938 7.938 0 0 0 311.055 16.004 Q 310.852 15.488 310.5 14.75 A 124.185 124.185 0 0 0 309.484 12.669 A 135.013 135.013 0 0 0 309.45 12.6 A 124.834 124.834 0 0 1 308.431 10.516 A 114.767 114.767 0 0 1 308.4 10.45 Q 308.017 9.646 307.752 9.165 A 8.45 8.45 0 0 0 307.6 8.9 L 308.7 12 L 310.9 16.6 Z M 400.7 16.6 L 401 16.4 A 7.938 7.938 0 0 0 400.855 16.004 Q 400.652 15.488 400.3 14.75 A 124.185 124.185 0 0 0 399.284 12.669 A 135.013 135.013 0 0 0 399.25 12.6 A 124.834 124.834 0 0 1 398.231 10.516 A 114.767 114.767 0 0 1 398.2 10.45 Q 397.817 9.646 397.552 9.165 A 8.45 8.45 0 0 0 397.4 8.9 L 398.5 12 L 400.7 16.6 Z M 149.919 70.937 A 18.409 18.409 0 0 0 153.4 68.5 Q 151.7 70.5 149.8 71.3 Q 148.1 72.1 146.3 72.7 Q 148.1 71.9 149.8 71 A 17.234 17.234 0 0 0 149.919 70.937 Z M 574.2 65.8 L 568.3 69.9 A 44.396 44.396 0 0 1 568.731 69.687 Q 569.425 69.35 570.4 68.9 A 9.104 9.104 0 0 0 572.063 67.864 Q 573.131 67.038 574.2 65.8 Z M 295.4 8.9 L 293.2 15.1 L 295.8 8.9 L 295.4 8.9 Z M 385.2 8.9 L 383 15.1 L 385.6 8.9 L 385.2 8.9 Z M 28.4 36.2 Q 30.1 36.5 32 36.7 A 32.874 32.874 0 0 0 29.933 36.194 A 26.515 26.515 0 0 0 28.6 35.95 Q 27 35.7 25.4 35.3 Q 26.7 35.9 28.4 36.2 Z M 259.7 12.8 L 259 13 L 258.8 16 A 13.638 13.638 0 0 1 258.781 16.693 Q 258.744 17.413 258.637 18.378 A 47.149 47.149 0 0 1 258.6 18.7 L 259.7 12.8 Z M 349.5 12.8 L 348.8 13 L 348.6 16 A 13.638 13.638 0 0 1 348.581 16.693 Q 348.544 17.413 348.437 18.378 A 47.149 47.149 0 0 1 348.4 18.7 L 349.5 12.8 Z M 556.6 81.4 L 556.5 81.1 Q 556.687 81.1 557.487 81.144 A 136.134 136.134 0 0 1 557.6 81.15 A 41.093 41.093 0 0 1 558.885 81.242 A 48.319 48.319 0 0 1 559.5 81.3 A 27.605 27.605 0 0 1 560.578 81.428 A 21.958 21.958 0 0 1 561.35 81.55 Q 562.041 81.672 562.302 81.761 A 0.8 0.8 0 0 1 562.4 81.8 L 556.6 81.4 Z M 544.4 34 L 544.4 34.6 Q 544.5 34.6 544.5 34.2 Q 544.5 33.8 544.6 33.6 L 545.4 29.4 A 131.843 131.843 0 0 1 544.922 31.106 A 151.117 151.117 0 0 1 544.75 31.7 A 8.895 8.895 0 0 0 544.458 33.09 A 7.355 7.355 0 0 0 544.4 34 Z M 305.2 5.6 L 307.3 8.3 L 305 4.5 L 305.2 5.6 Z M 395 5.6 L 397.1 8.3 L 394.8 4.5 L 395 5.6 Z M 10.423 76.326 A 11.793 11.793 0 0 0 12 77.2 Q 10.9 76.5 9.8 75.7 Q 9 75.2 8.4 74.6 A 21.012 21.012 0 0 0 8.706 74.9 A 23.801 23.801 0 0 0 9.7 75.8 A 10.008 10.008 0 0 0 10.423 76.326 Z M 298.7 7.6 L 298.1 7.6 L 299.4 10.9 L 299.9 10.8 L 298.7 7.6 Z M 388.5 7.6 L 387.9 7.6 L 389.2 10.9 L 389.7 10.8 L 388.5 7.6 Z M 528.8 35.2 L 528.8 35.6 L 529.4 31.9 Q 529.2 32.7 529 33.4 A 11.367 11.367 0 0 0 528.863 34.237 Q 528.81 34.67 528.802 35.058 A 6.613 6.613 0 0 0 528.8 35.2 Z M 555.3 72.1 L 555.6 72.1 L 558 70.9 L 557.9 70.6 A 3.631 3.631 0 0 1 556.944 71.181 A 3.349 3.349 0 0 1 556.6 71.3 A 7.723 7.723 0 0 0 555.567 71.674 A 6.861 6.861 0 0 0 555.3 71.8 L 555.3 72.1 Z M 519.7 34.5 L 519.7 35.1 L 519.6 35.3 L 519.7 34.5 L 519.9 32.7 A 17.262 17.262 0 0 0 519.887 32.766 Q 519.842 32.995 519.808 33.203 A 10.439 10.439 0 0 0 519.75 33.6 A 5.169 5.169 0 0 0 519.749 33.606 Q 519.724 33.807 519.712 34.032 A 8.6 8.6 0 0 0 519.7 34.5 Z M 535.2 34.4 L 535.4 32.4 L 535.4 33.3 Q 535.4 33.672 535.314 34.13 A 6.465 6.465 0 0 1 535.3 34.2 L 535.2 34.4 Z M 479.8 16.9 L 479.8 17.8 L 480.3 17.8 L 480.3 16.9 L 479.8 16.9 Z M 303.3 16.3 L 303 15.6 L 302.8 16 L 303.2 16.8 L 303.3 16.3 Z M 393.1 16.3 L 392.8 15.6 L 392.6 16 L 393 16.8 L 393.1 16.3 Z M 14.1 75.4 L 15 75.8 L 14.1 75.4 Z M 519.9 31.7 L 519.9 31.8 A 1.494 1.494 0 0 1 519.914 31.589 Q 519.938 31.425 520 31.3 A 0.851 0.851 0 0 1 519.941 31.606 A 1.045 1.045 0 0 1 519.9 31.7 Z M 631.039 80.652 A 0.451 0.451 0 0 0 631.1 80.6 Q 631.031 80.6 630.961 80.648 A 0.451 0.451 0 0 0 630.9 80.7 Q 630.97 80.7 631.039 80.652 Z" vector-effect="non-scaling-stroke"/></g></svg>