<svg width="49.4" height="75.1" viewBox="0 0 49.4 75.1" xmlns="http://www.w3.org/2000/svg"><g id="svgGroup" stroke-linecap="round" fill-rule="evenodd" font-size="9pt" stroke="#000000" stroke-width="0.25mm" fill="#f2f2f2" style="stroke:#000000;stroke-width:0.25mm;fill:#f2f2f2"><path d="M 31.4 41.9 L 31.4 40.7 A 4.08 4.08 0 0 1 31.048 40.753 Q 30.679 40.793 30.17 40.799 A 15.175 15.175 0 0 1 30 40.8 Q 27.5 40.8 25.1 40.1 Q 22.7 39.4 20.2 39.4 Q 18.9 39.4 17.7 39.7 L 17.7 40.1 Q 20.9 40.3 24.25 40.75 Q 27.6 41.2 31.1 41.9 A 140.822 140.822 0 0 0 26.924 41.314 A 169.792 169.792 0 0 0 24.25 41 A 68.251 68.251 0 0 0 19.916 40.659 A 55.489 55.489 0 0 0 17.4 40.6 A 60.544 60.544 0 0 0 15.834 40.62 A 50.398 50.398 0 0 0 14.95 40.65 Q 13.8 40.7 12.7 40.8 A 105.715 105.715 0 0 0 12.714 42.473 Q 12.726 43.212 12.747 44.018 A 185.709 185.709 0 0 0 12.8 45.7 Q 12.9 48.5 13.2 51.15 A 70.227 70.227 0 0 0 13.482 53.344 Q 13.627 54.342 13.79 55.225 A 39.297 39.297 0 0 0 13.9 55.8 A 13.915 13.915 0 0 0 14.099 56.661 Q 14.437 57.926 14.889 58.389 A 1.287 1.287 0 0 0 14.9 58.4 L 15.8 60.2 Q 17 63.9 23.8 63.9 A 14.01 14.01 0 0 0 25.009 63.844 Q 25.675 63.786 26.429 63.669 A 29.07 29.07 0 0 0 27.4 63.5 Q 29.5 63.1 31.65 62.55 A 92.226 92.226 0 0 1 34.512 61.865 A 78.264 78.264 0 0 1 35.75 61.6 A 23.535 23.535 0 0 1 37.135 61.356 Q 37.816 61.259 38.414 61.222 A 11.231 11.231 0 0 1 39.1 61.2 A 7.62 7.62 0 0 1 39.583 61.214 Q 40.316 61.261 40.582 61.464 A 0.396 0.396 0 0 1 40.7 61.6 A 1.623 1.623 0 0 1 40.821 61.94 Q 40.9 62.261 40.9 62.7 Q 36.7 63.2 32.8 64.2 Q 29.4 65.1 26.2 65.6 Q 29.4 65.1 32.7 64.4 Q 36.6 63.5 40.6 63 Q 40.4 63.6 40.4 63.8 A 1.208 1.208 0 0 0 40.797 64.71 A 1.638 1.638 0 0 0 40.9 64.8 L 42.3 64.6 Q 42.9 64.5 43.5 64.45 A 4.038 4.038 0 0 0 44.228 64.324 A 3.431 3.431 0 0 0 44.6 64.2 Q 46.4 64.7 47.15 65.3 Q 47.651 65.701 47.817 66.146 A 1.287 1.287 0 0 1 47.9 66.6 A 2.072 2.072 0 0 1 47.765 67.367 Q 47.552 67.906 47.002 68.229 A 2.607 2.607 0 0 1 46.65 68.4 A 6.517 6.517 0 0 0 45.074 69.315 A 8.249 8.249 0 0 0 44.3 70 L 43.9 70 Q 41 70 38.3 70.45 Q 35.6 70.9 32.95 71.4 Q 30.3 71.9 27.55 72.35 Q 24.8 72.8 21.9 72.8 L 20.5 72.8 L 19.9 72.8 A 36.213 36.213 0 0 0 22.36 72.971 A 44.725 44.725 0 0 0 24 73 A 46.459 46.459 0 0 0 27.363 72.883 A 38.44 38.44 0 0 0 29.25 72.7 A 95.662 95.662 0 0 0 33.856 72.025 A 88.027 88.027 0 0 0 34 72 Q 36.3 71.6 38.45 71.3 Q 40.6 71 42.8 71 A 22.021 22.021 0 0 1 41.325 71.666 Q 40.23 72.116 38.9 72.55 A 39.117 39.117 0 0 1 36.154 73.33 A 50.096 50.096 0 0 1 33.8 73.85 A 75.26 75.26 0 0 1 28.187 74.728 A 82.072 82.072 0 0 1 28 74.75 Q 25 75.1 22.1 75.1 Q 20.1 75.1 18.2 74.9 A 9.954 9.954 0 0 1 16.289 74.495 Q 15.234 74.167 14.1 73.6 L 14 72.5 Q 12.85 72.089 11.598 71.104 A 14.268 14.268 0 0 1 11.05 70.65 Q 9.5 69.3 8.2 67.8 A 39.601 39.601 0 0 1 7.069 66.438 Q 6.552 65.784 6.121 65.174 A 23.83 23.83 0 0 1 6 65 Q 5.1 63.7 5.1 63.3 L 4.8 62.4 A 20.279 20.279 0 0 1 3.728 59.598 A 24.298 24.298 0 0 1 3.35 58.2 Q 2.8 55.9 2.5 53.55 Q 2.2 51.2 2 48.9 Q 1.8 46.6 1.7 44.6 Q 1.5 41.3 1.4 37.95 Q 1.3 34.6 1.3 31.2 Q 1.3 27.8 1.35 24.35 Q 1.4 20.9 1.4 17.4 L 1.1 17.4 Q 0.6 21.2 0.55 24.7 Q 0.5 28.2 0.5 31.7 L 0.5 35.6 Q 0.5 42.6 1.25 50.2 Q 2 57.8 5.1 65 A 24.513 24.513 0 0 1 3.136 60.87 A 19.522 19.522 0 0 1 2.2 57.25 Q 1.6 53.4 1.1 50.1 A 112.078 112.078 0 0 1 0.356 43.311 A 99.385 99.385 0 0 1 0.25 41.8 Q 0 37.8 0 33.6 L 0 31.5 Q 0 25.7 0.3 19.7 A 70.056 70.056 0 0 1 1.144 11.927 A 85.727 85.727 0 0 1 2.1 7 A 0.864 0.864 0 0 1 1.863 6.97 Q 1.5 6.866 1.5 6.4 A 1.604 1.604 0 0 1 1.554 6.011 Q 1.651 5.627 1.922 5.109 A 8.945 8.945 0 0 1 2.15 4.7 A 11.19 11.19 0 0 1 3.154 3.278 A 13.592 13.592 0 0 1 3.8 2.55 Q 4.8 1.5 6.05 0.75 Q 7.3 0 8.5 0 L 32.3 0 Q 36 0.7 39.55 1.15 Q 43.1 1.6 47 1.8 L 46.9 4.1 A 1.039 1.039 0 0 1 46.53 4.916 A 1.474 1.474 0 0 1 46.35 5.05 A 1.407 1.407 0 0 1 46.004 5.199 Q 45.415 5.377 44.216 5.397 A 18.799 18.799 0 0 1 43.9 5.4 Q 43.488 5.4 42.957 5.376 A 35.676 35.676 0 0 1 42.45 5.35 Q 41.6 5.3 40.6 5.2 L 40.6 6.1 A 38.187 38.187 0 0 1 42.992 6.702 Q 45.434 7.406 47.05 8.3 A 10.571 10.571 0 0 1 47.951 8.854 Q 49.4 9.858 49.4 10.8 Q 49.4 12.065 47.236 12.432 A 8.903 8.903 0 0 1 46.75 12.5 A 38.208 38.208 0 0 1 44.923 12.658 Q 42.871 12.791 40.098 12.799 A 125.6 125.6 0 0 1 39.7 12.8 Q 34.1 12.8 27.75 12.75 A 162.31 162.31 0 0 1 17.075 12.325 A 146.17 146.17 0 0 1 15.5 12.2 L 13.8 12.2 Q 13.3 16 13.1 20 Q 12.9 24 12.8 28.2 Q 14.4 28.2 15.95 28.05 Q 17.5 27.9 19.2 27.9 Q 20.327 27.9 21.745 28.062 A 34.449 34.449 0 0 1 22.45 28.15 A 64.399 64.399 0 0 1 25.088 28.565 A 76.13 76.13 0 0 1 26.35 28.8 Q 28.4 29.2 30.45 29.75 A 56.813 56.813 0 0 1 32.646 30.385 A 44.441 44.441 0 0 1 34.2 30.9 Q 34.5 31 34.9 31 L 36.6 31 A 6.66 6.66 0 0 1 37.163 31.022 Q 37.716 31.069 38.054 31.217 A 1.113 1.113 0 0 1 38.35 31.4 Q 38.733 31.74 38.79 32.661 A 5.499 5.499 0 0 1 38.8 33 Q 37.1 33 35.6 32.8 A 317.533 317.533 0 0 1 33.052 32.45 A 286.588 286.588 0 0 1 32.7 32.4 Q 34.1 32.9 35.6 33.15 A 63.088 63.088 0 0 0 37.553 33.443 A 75.269 75.269 0 0 0 38.8 33.6 A 4.787 4.787 0 0 0 38.662 33.99 Q 38.603 34.186 38.571 34.364 A 2.564 2.564 0 0 0 38.55 34.5 A 7.511 7.511 0 0 0 38.52 34.786 Q 38.507 34.928 38.503 35.054 A 4.039 4.039 0 0 0 38.5 35.2 A 2.47 2.47 0 0 1 39.062 35.379 A 1.568 1.568 0 0 1 39.85 36.15 A 3.77 3.77 0 0 1 40.191 37.522 A 4.457 4.457 0 0 1 40.2 37.8 A 4.972 4.972 0 0 1 40.138 38.611 Q 40.066 39.048 39.909 39.401 A 2.419 2.419 0 0 1 39.65 39.85 A 5.761 5.761 0 0 0 39.422 40.182 Q 39.218 40.507 39.143 40.749 A 0.86 0.86 0 0 0 39.1 41 Q 35.2 39.6 31 39.2 Q 27 38.7 22.8 38.3 Q 26.6 38.9 30.6 39.4 Q 34.8 39.9 38.5 41.6 A 8.052 8.052 0 0 1 38 42.061 A 6.691 6.691 0 0 1 37.7 42.3 A 1.709 1.709 0 0 1 37.394 42.486 Q 37.17 42.589 36.946 42.599 A 1.068 1.068 0 0 1 36.9 42.6 Q 35.5 42.6 34.2 42.25 A 10.254 10.254 0 0 0 32.228 41.928 A 12.17 12.17 0 0 0 31.4 41.9 Z M 3.9 52.3 Q 4.3 54.7 4.85 57.45 Q 5.4 60.2 6.55 62.85 A 19.101 19.101 0 0 0 9.638 67.728 A 21.266 21.266 0 0 0 9.7 67.8 Q 11.3 69.7 13.9 71 Q 10.9 69.4 9 66.6 Q 6.8 63.2 5.55 59 A 54.812 54.812 0 0 1 3.948 51.845 A 61.887 61.887 0 0 1 3.7 50.1 Q 3.2 45.4 2.9 41.1 Q 3 43.8 3.2 46.6 Q 3.4 49.4 3.9 52.3 Z M 28.4 31.9 Q 30.1 32.2 32 32.4 A 32.874 32.874 0 0 0 29.933 31.894 A 26.515 26.515 0 0 0 28.6 31.65 Q 27 31.4 25.4 31 Q 26.7 31.6 28.4 31.9 Z M 10.423 72.026 A 11.793 11.793 0 0 0 12 72.9 Q 10.9 72.2 9.8 71.4 Q 9 70.9 8.4 70.3 A 21.012 21.012 0 0 0 8.706 70.6 A 23.801 23.801 0 0 0 9.7 71.5 A 10.008 10.008 0 0 0 10.423 72.026 Z M 14.1 71.1 L 15 71.5 L 14.1 71.1 Z" vector-effect="non-scaling-stroke"/></g></svg>