<svg width="317.201" height="98" viewBox="0 0 317.201 98" xmlns="http://www.w3.org/2000/svg"><g id="svgGroup" stroke-linecap="round" fill-rule="evenodd" font-size="9pt" stroke="#000" stroke-width="0.25mm" fill="#ffffff" style="stroke:#000;stroke-width:0.25mm;fill:#ffffff"><path d="M 120.501 33 L 120.501 30.5 Q 120.501 29.2 120.401 27.9 Q 120.601 28.101 120.802 28.167 A 0.629 0.629 0 0 0 121.001 28.2 A 1.229 1.229 0 0 0 121.4 28.13 Q 121.619 28.055 121.851 27.9 A 2.167 2.167 0 0 1 122.154 27.729 Q 122.332 27.648 122.501 27.618 A 1.133 1.133 0 0 1 122.701 27.6 A 0.712 0.712 0 0 1 123.195 27.815 Q 123.452 28.057 123.664 28.568 A 5.602 5.602 0 0 1 123.851 29.1 Q 124.301 30.6 124.301 35.7 L 125.201 35.7 A 69.266 69.266 0 0 1 125.567 32.425 Q 126.014 29.177 126.704 26.947 A 20.018 20.018 0 0 1 126.751 26.8 Q 127.583 24.184 128.447 23.642 A 0.847 0.847 0 0 1 128.901 23.5 A 0.443 0.443 0 0 1 129.158 23.61 Q 129.614 23.96 130.379 25.416 A 24.259 24.259 0 0 1 130.501 25.65 A 7.725 7.725 0 0 1 131.075 27.21 Q 131.484 28.772 131.575 31.042 A 33.939 33.939 0 0 1 131.601 32.4 L 132.701 30.6 A 52.242 52.242 0 0 1 134.173 28.936 A 63.69 63.69 0 0 1 135.151 27.9 Q 136.501 26.5 138.201 25.4 Q 139.901 24.3 142.001 23.55 A 12.551 12.551 0 0 1 144.553 22.944 A 16.853 16.853 0 0 1 146.801 22.8 Q 152.001 22.8 155.851 25.15 Q 159.701 27.5 162.301 31.25 Q 164.901 35 166.551 39.75 Q 168.201 44.5 169.101 49.35 Q 170.001 54.2 170.301 58.7 A 161.294 161.294 0 0 1 170.484 61.892 Q 170.557 63.46 170.584 64.829 A 78.462 78.462 0 0 1 170.601 66.4 A 37.861 37.861 0 0 1 170.588 67.405 Q 170.536 69.369 170.26 69.834 A 0.578 0.578 0 0 1 170.251 69.85 A 1.263 1.263 0 0 1 169.703 70.317 Q 169.501 70.412 169.245 70.463 A 2.874 2.874 0 0 1 169.001 70.5 Q 168.801 62.8 168.001 54.8 Q 167.201 46.8 164.201 39.3 Q 166.901 47.2 167.651 54.85 Q 168.401 62.5 168.401 70.2 A 3.34 3.34 0 0 0 167.965 70.017 Q 167.723 69.937 167.5 69.911 A 1.776 1.776 0 0 0 167.301 69.9 A 0.954 0.954 0 0 0 166.62 70.181 A 1.253 1.253 0 0 0 166.601 70.2 A 14.389 14.389 0 0 0 166.64 71.239 A 17.328 17.328 0 0 0 166.701 71.9 Q 166.801 72.7 166.851 73.5 A 26.03 26.03 0 0 1 166.894 74.461 A 21.22 21.22 0 0 1 166.901 75 Q 166.425 76.822 165.95 77.829 A 5.417 5.417 0 0 1 165.701 78.3 A 4.887 4.887 0 0 1 165.447 78.684 Q 164.993 79.3 164.601 79.3 A 1.147 1.147 0 0 1 163.731 78.908 A 1.709 1.709 0 0 1 163.601 78.75 Q 163.234 78.246 162.909 77.531 A 10.135 10.135 0 0 1 162.851 77.4 Q 162.501 76.6 162.151 75.65 A 8.76 8.76 0 0 0 161.311 73.969 A 9.803 9.803 0 0 0 161.201 73.8 Q 161.401 72.1 161.501 71.05 Q 161.601 70 161.601 69.3 A 181.615 181.615 0 0 0 161.587 67.12 Q 161.563 65.175 161.501 62.8 Q 161.401 59 160.951 54.85 Q 160.501 50.7 159.551 46.55 A 35.689 35.689 0 0 0 158.266 42.18 A 28.256 28.256 0 0 0 156.951 39.15 A 17.627 17.627 0 0 0 154.759 35.793 A 14.771 14.771 0 0 0 152.801 33.85 Q 150.301 31.8 146.801 31.8 Q 144.401 31.8 142.551 33.4 A 13.246 13.246 0 0 0 140.386 35.819 A 16.811 16.811 0 0 0 139.351 37.5 Q 138.001 40 137.001 42.95 A 58.188 58.188 0 0 0 135.907 46.54 A 48.669 48.669 0 0 0 135.401 48.6 Q 136.301 45.8 137.251 42.9 A 31.009 31.009 0 0 1 138.746 39.149 A 26.647 26.647 0 0 1 139.551 37.6 A 16.184 16.184 0 0 1 141.162 35.229 A 12.954 12.954 0 0 1 142.701 33.65 Q 144.501 32.1 146.901 32.1 Q 150.001 32.1 152.251 33.8 A 13.933 13.933 0 0 1 155.339 37.067 A 16.647 16.647 0 0 1 156.051 38.2 Q 157.601 40.9 158.551 44.35 Q 159.501 47.8 160.001 51.35 A 73.78 73.78 0 0 1 160.608 57.409 A 66.813 66.813 0 0 1 160.651 58.25 Q 160.754 60.553 160.786 62.407 A 91.885 91.885 0 0 1 160.801 64 Q 160.801 65.9 160.751 67.8 Q 160.701 69.7 160.601 71.7 A 63.967 63.967 0 0 1 159.37 64.782 A 70.884 70.884 0 0 1 159.251 63.75 Q 158.801 59.6 158.301 55.55 A 107.318 107.318 0 0 0 157.234 48.692 A 97.393 97.393 0 0 0 157.051 47.75 Q 156.301 44 154.901 40.8 L 155.601 39.8 Q 154.843 38.057 153.942 36.917 A 7.666 7.666 0 0 0 153.351 36.25 A 12.407 12.407 0 0 0 152.343 35.342 Q 151.796 34.903 151.258 34.592 A 6.815 6.815 0 0 0 150.901 34.4 Q 149.902 33.901 149.043 33.748 A 4.51 4.51 0 0 0 148.701 33.7 A 53.137 53.137 0 0 0 148.297 33.661 Q 147.79 33.614 147.534 33.603 A 3.196 3.196 0 0 0 147.401 33.6 A 6.342 6.342 0 0 0 143.088 35.276 A 8.174 8.174 0 0 0 142.951 35.4 Q 141.001 37.2 139.551 40.25 Q 138.101 43.3 137.001 47.3 Q 135.901 51.3 135.101 55.7 Q 134.301 60.1 133.701 64.55 Q 133.101 69 132.701 72.9 L 133.601 72.9 Q 134.101 69.5 134.651 65.4 Q 135.201 61.3 135.851 57.05 Q 136.501 52.8 137.401 48.8 A 56.62 56.62 0 0 1 138.456 44.776 A 43.399 43.399 0 0 1 139.551 41.6 A 23.274 23.274 0 0 1 140.641 39.198 Q 141.279 37.99 142.006 37.02 A 12.985 12.985 0 0 1 142.501 36.4 A 6.515 6.515 0 0 1 144.245 34.917 A 5.809 5.809 0 0 1 146.401 34.2 A 5.42 5.42 0 0 0 143.76 35.684 A 7.931 7.931 0 0 0 142.701 37 A 20.971 20.971 0 0 0 141.289 39.492 Q 140.538 41.041 139.901 42.9 Q 138.701 46.4 137.751 50.55 Q 136.801 54.7 136.001 58.5 L 134.001 73.1 A 32.909 32.909 0 0 0 133.689 74.268 Q 133.557 74.803 133.461 75.285 A 18.583 18.583 0 0 0 133.401 75.6 L 133.001 77.7 Q 132.801 78.7 132.601 79.85 Q 132.429 80.838 132.183 82.085 A 151.248 151.248 0 0 1 132.101 82.5 L 131.801 83.7 L 131.201 83.7 L 121.101 80.3 Q 120.601 80.2 120.351 80 A 5.353 5.353 0 0 1 120.122 79.806 Q 119.969 79.669 119.801 79.5 A 2.106 2.106 0 0 1 119.843 79.097 Q 119.882 78.896 119.958 78.671 A 4.984 4.984 0 0 1 120.101 78.3 Q 120.401 77.6 120.401 76.8 Q 120.677 74.59 120.784 73.525 A 36.302 36.302 0 0 0 120.801 73.35 Q 120.901 72.3 120.901 71.5 Q 120.901 67.3 120.651 62.45 Q 120.401 57.6 120.101 53.1 Q 120.101 52.138 120.077 50.939 A 172.837 172.837 0 0 0 120.051 49.8 A 34.463 34.463 0 0 0 120.005 48.691 Q 119.945 47.676 119.829 46.964 A 9.251 9.251 0 0 0 119.801 46.8 Q 120.101 43.3 120.301 39.9 Q 120.501 36.5 120.501 33 Z M 3.101 85.4 L 5.001 85.4 Q 7.401 86.6 9.901 87.8 Q 12.401 89 15.201 89 Q 18.101 89 20.301 87.3 Q 22.501 85.6 24.101 82.95 A 25.122 25.122 0 0 0 25.886 79.345 A 31.109 31.109 0 0 0 26.751 76.9 Q 27.801 73.5 28.501 70.15 A 65.108 65.108 0 0 0 29.219 66.099 A 53.806 53.806 0 0 0 29.501 63.8 Q 29.601 62.7 29.701 61.8 Q 29.601 62.6 29.501 63.5 Q 29.101 66.4 28.401 69.75 Q 27.701 73.1 26.701 76.45 A 32.435 32.435 0 0 1 25.255 80.384 A 26.97 26.97 0 0 1 24.201 82.5 A 17.775 17.775 0 0 1 22.521 85.019 A 13.875 13.875 0 0 1 20.701 86.9 Q 18.701 88.6 16.001 88.6 Q 13.501 88.6 11.151 87.65 A 25.655 25.655 0 0 1 7.115 85.601 A 23.625 23.625 0 0 1 6.801 85.4 Q 9.101 85.4 11.201 86 Q 13.301 86.6 15.601 86.6 Q 17.012 86.6 18 86.202 A 3.791 3.791 0 0 0 18.751 85.8 Q 19.743 85.109 20.699 83.897 A 14.358 14.358 0 0 0 21.001 83.5 L 22.401 83.6 A 44.196 44.196 0 0 0 25.048 77.4 A 52.323 52.323 0 0 0 26.001 74.3 Q 27.401 69.2 28.201 63.8 Q 29.001 58.4 29.301 53.05 A 193.795 193.795 0 0 0 29.559 46.616 A 159.034 159.034 0 0 0 29.601 43 L 29.601 39.9 Q 29.601 38.3 29.501 36.7 L 29.201 37.1 Q 29.001 42.1 28.801 48.15 Q 28.601 54.2 27.951 60.3 Q 27.301 66.4 25.951 72.1 A 42.093 42.093 0 0 1 24.068 78.101 A 33.795 33.795 0 0 1 22.101 82.2 A 39.738 39.738 0 0 0 25.187 74.555 A 50.057 50.057 0 0 0 26.401 69.35 Q 27.701 62.1 28.151 54.4 Q 28.601 46.7 28.701 39.05 Q 28.801 31.4 29.401 25 Q 23.801 24.4 17.951 23.7 Q 12.101 23 6.501 23 Q 6.501 22.234 6.471 21.762 A 7.019 7.019 0 0 0 6.451 21.5 Q 6.401 21 6.401 20.5 A 0.904 0.904 0 0 1 6.894 19.678 Q 7.232 19.481 7.801 19.4 Q 9.198 19.2 9.798 19.2 A 2.481 2.481 0 0 1 9.801 19.2 L 10.001 19.2 L 12.301 19.3 L 12.301 18.1 Q 11.701 18 10.251 17.75 A 20.995 20.995 0 0 1 8.115 17.261 A 24.489 24.489 0 0 1 7.251 17 Q 5.701 16.5 4.551 15.8 Q 3.401 15.1 3.401 14.2 Q 3.401 13.3 5.251 12.8 Q 7.101 12.3 9.401 12 Q 11.701 11.7 13.801 11.65 Q 15.901 11.6 16.501 11.6 A 96.555 96.555 0 0 1 25.487 12.006 A 86.936 86.936 0 0 1 26.901 12.15 A 115.217 115.217 0 0 1 34.012 13.166 A 135.609 135.609 0 0 1 37.401 13.8 L 42.301 20.8 A 47.771 47.771 0 0 0 41.832 23.732 Q 41.66 25.05 41.527 26.53 A 96.593 96.593 0 0 0 41.301 29.65 Q 41.001 34.9 40.801 41 Q 40.601 47.1 40.251 53.7 Q 39.901 60.3 38.951 66.6 Q 38.001 72.9 36.251 78.6 A 40.962 40.962 0 0 1 33.843 84.723 A 33.255 33.255 0 0 1 31.601 88.6 Q 28.701 92.9 24.351 95.45 A 18.158 18.158 0 0 1 18.399 97.611 A 24.859 24.859 0 0 1 13.901 98 A 16.235 16.235 0 0 1 10.777 97.682 A 21.271 21.271 0 0 1 8.351 97.05 Q 5.401 96.1 3.501 94.2 L 3.801 93.4 Q 6.401 94.7 9.101 95.45 Q 11.801 96.2 14.701 96.2 A 17 17 0 0 0 21.349 94.822 A 19.302 19.302 0 0 0 21.401 94.8 Q 18.301 95.9 15.101 95.9 A 18.841 18.841 0 0 1 10.338 95.309 A 17.438 17.438 0 0 1 9.601 95.1 Q 7.001 94.3 4.401 93.1 L 5.101 91.9 Q 4.601 91.6 3.701 91.05 Q 2.801 90.5 2.001 89.85 A 9.415 9.415 0 0 1 0.793 88.682 A 8.54 8.54 0 0 1 0.601 88.45 A 3.953 3.953 0 0 1 0.311 88.04 Q 0.001 87.531 0.001 87.1 A 1.21 1.21 0 0 1 0.536 86.054 Q 0.744 85.908 1.031 85.805 A 2.989 2.989 0 0 1 1.201 85.75 A 12.878 12.878 0 0 1 1.869 85.573 Q 2.503 85.425 2.955 85.404 A 3.114 3.114 0 0 1 3.101 85.4 Z M 235.501 26.2 L 235.701 26.2 A 5.732 5.732 0 0 1 235.944 26.205 Q 236.31 26.22 236.472 26.287 A 0.429 0.429 0 0 1 236.501 26.3 Q 241.701 27.9 246.851 30.95 Q 252.001 34 256.151 38.25 Q 260.301 42.5 262.851 47.9 Q 265.401 53.3 265.401 59.5 Q 265.401 64.9 263.301 69.9 Q 261.201 74.9 257.501 78.6 A 23.393 23.393 0 0 0 262.964 71.562 A 27.438 27.438 0 0 0 263.551 70.35 Q 265.801 65.4 265.801 59.7 Q 265.801 53.3 263.101 47.75 Q 260.401 42.2 256.201 37.8 Q 252.001 33.4 246.851 30.25 A 57.61 57.61 0 0 0 241.136 27.165 A 45.855 45.855 0 0 0 236.801 25.4 Q 240.601 25.4 244.551 27.1 Q 248.501 28.8 252.101 31.55 Q 255.701 34.3 258.751 37.85 A 47.888 47.888 0 0 1 262.644 43.031 A 41.638 41.638 0 0 1 263.901 45.1 L 263.201 46.1 Q 265.201 49.1 266.251 52.6 Q 267.301 56.1 267.301 59.8 A 27.951 27.951 0 0 1 266.544 66.438 A 22.372 22.372 0 0 1 264.251 72.25 Q 261.201 77.6 256.551 81.15 Q 251.901 84.7 246.351 86.5 A 38.705 38.705 0 0 1 240.8 87.878 A 29.7 29.7 0 0 1 235.901 88.3 Q 233.101 88.3 230.251 87.7 Q 227.401 87.1 224.501 85.7 L 224.501 86.3 A 19.675 19.675 0 0 0 229.15 88.24 A 18.067 18.067 0 0 0 230.251 88.5 Q 233.201 89.1 236.101 89.1 A 33.833 33.833 0 0 0 249.762 86.168 A 38.894 38.894 0 0 0 250.251 85.95 Q 257.201 82.8 262.001 77.1 Q 257.401 83 250.551 86.3 Q 243.701 89.6 236.301 89.6 A 32.206 32.206 0 0 1 231.418 89.251 Q 227.085 88.586 224.001 86.65 A 23.83 23.83 0 0 1 218.94 82.45 A 20.93 20.93 0 0 1 216.651 79.4 Q 214.001 75.1 213.101 70.3 Q 212.296 66.006 212.211 62.513 A 33.451 33.451 0 0 1 212.201 61.7 Q 212.201 56.6 213.551 51.7 Q 214.901 46.8 217.701 42.7 A 26.183 26.183 0 0 1 224.29 36.071 A 29.993 29.993 0 0 1 224.901 35.65 Q 229.301 32.7 235.501 31.5 L 232.601 30.8 Q 230.803 30.372 229.885 29.798 A 3.399 3.399 0 0 1 229.601 29.6 A 5.137 5.137 0 0 1 229.25 29.303 Q 228.701 28.791 228.701 28.4 A 0.949 0.949 0 0 1 228.872 27.885 Q 229.229 27.332 230.333 26.715 A 10.819 10.819 0 0 1 230.451 26.65 A 7.894 7.894 0 0 1 233.592 25.733 A 9.643 9.643 0 0 1 234.401 25.7 A 0.501 0.501 0 0 0 234.676 26.05 Q 234.892 26.167 235.271 26.193 A 3.381 3.381 0 0 0 235.501 26.2 Z M 106.101 22.9 L 107.001 25 L 106.701 26.8 A 117.03 117.03 0 0 0 106.232 33.198 A 141.812 141.812 0 0 0 106.101 37.3 Q 106.001 42.8 105.301 48.4 Q 106.101 42.9 106.601 37.6 Q 107.101 32.1 107.601 26.8 Q 108.101 28.4 108.451 30.2 A 19.357 19.357 0 0 1 108.786 33.196 A 22.18 22.18 0 0 1 108.801 34 A 770.778 770.778 0 0 0 108.107 41.275 A 678.273 678.273 0 0 0 107.901 43.6 A 178.736 178.736 0 0 1 107.132 50.725 A 204.197 204.197 0 0 1 106.801 53.2 L 105.501 53.5 Q 105.001 58.1 103.401 63.5 Q 101.801 68.9 98.751 73.5 Q 95.701 78.1 90.901 81.15 A 19.255 19.255 0 0 1 83.782 83.84 A 25.631 25.631 0 0 1 79.401 84.2 A 30.822 30.822 0 0 1 76.553 84.063 A 36.808 36.808 0 0 1 74.751 83.85 Q 72.301 83.5 70.001 82.75 Q 67.701 82 65.601 80.8 Q 63.501 79.6 62.001 77.8 L 62.101 78 L 62.101 78.1 L 62.001 78.2 L 61.701 78.1 Q 62.301 79 63.001 79.7 Q 61.201 78.1 59.701 76 A 25.463 25.463 0 0 1 56.996 71.308 A 32.487 32.487 0 0 1 55.701 67.9 Q 54.801 65.1 54.301 62.2 A 54.364 54.364 0 0 1 53.737 57.85 A 63.3 63.3 0 0 1 53.601 56.05 Q 53.401 52.8 53.351 49 Q 53.301 45.2 53.301 40.6 Q 54.201 37 54.701 33.4 Q 55.201 29.8 55.401 26.2 A 2.204 2.204 0 0 0 55.661 26.183 Q 55.787 26.168 55.928 26.14 A 4.231 4.231 0 0 0 56.101 26.1 Q 56.501 26 56.901 26 A 1.237 1.237 0 0 1 57.659 26.266 Q 57.918 26.462 58.151 26.8 Q 58.661 27.542 58.698 29.832 A 22.777 22.777 0 0 1 58.701 30.2 L 58.701 31.1 Q 58.701 31.472 58.614 31.93 A 6.465 6.465 0 0 1 58.601 32 L 59.801 32 A 44.239 44.239 0 0 1 60.316 29.626 Q 60.936 27.13 61.701 25.6 A 9.458 9.458 0 0 1 62.165 24.77 Q 62.672 23.97 63.178 23.637 A 1.308 1.308 0 0 1 63.901 23.4 A 0.707 0.707 0 0 1 64.38 23.614 Q 64.901 24.094 65.351 25.65 A 12.135 12.135 0 0 1 65.665 27.117 Q 65.919 28.729 65.981 31.094 A 61.414 61.414 0 0 1 66.001 32.7 Q 66.001 36.2 65.801 39.8 Q 65.601 43.4 65.601 47.2 Q 65.601 53.1 66.151 57.9 A 32.713 32.713 0 0 0 66.825 61.799 Q 67.394 64.174 68.301 66.1 A 12.783 12.783 0 0 0 70.714 69.63 A 11.578 11.578 0 0 0 72.851 71.35 A 11.277 11.277 0 0 0 76.119 72.708 Q 78.077 73.2 80.501 73.2 Q 84.401 73.2 87.001 70.8 Q 89.525 68.47 91.295 64.633 A 27.446 27.446 0 0 0 91.401 64.4 Q 93.194 60.416 94.441 55.191 A 70.874 70.874 0 0 0 94.451 55.15 Q 95.701 49.9 96.801 44.2 Q 97.001 42.6 97.101 41 A 52.632 52.632 0 0 0 97.2 37.912 A 57.456 57.456 0 0 0 97.201 37.7 L 97.201 34.6 A 46.829 46.829 0 0 1 97.243 32.552 Q 97.313 30.95 97.501 29.7 A 4.682 4.682 0 0 1 97.702 28.856 Q 98.129 27.63 99.201 27.4 Q 99.201 32.5 98.901 37.5 Q 98.701 42.3 98.101 47.1 Q 98.801 42.4 99.201 37.7 Q 99.601 32.8 99.801 27.7 Q 100.327 28.051 100.7 28.094 A 0.881 0.881 0 0 0 100.801 28.1 Q 101.132 28.1 101.463 27.826 A 1.99 1.99 0 0 0 101.601 27.7 L 101.601 24.1 Q 101.996 22.678 102.39 21.912 A 3.748 3.748 0 0 1 102.601 21.55 Q 103.101 20.8 103.701 20.8 Q 104.301 20.8 104.901 21.4 A 8.088 8.088 0 0 1 105.463 22.028 Q 105.782 22.422 106.101 22.9 Z M 294.001 46.9 Q 294.501 44.7 295.501 42.8 L 295.801 42.3 L 295.501 42.8 Q 294.501 44.7 294.001 46.9 Q 293.401 49.5 293.201 52.4 Q 293.201 55.6 293.401 58.25 Q 293.601 60.9 293.801 64.3 L 294.001 67.2 L 292.801 64.1 A 41.793 41.793 0 0 1 292.68 63.577 A 37.637 37.637 0 0 1 292.051 60 A 25.911 25.911 0 0 1 292.047 59.968 Q 291.801 57.98 291.801 55.5 Q 291.801 51.3 292.851 47.45 A 32.172 32.172 0 0 1 293.894 44.263 A 24.776 24.776 0 0 1 295.601 40.7 L 296.901 40.5 A 18.878 18.878 0 0 0 297.025 40.298 A 20.771 20.771 0 0 0 297.851 38.8 A 12.621 12.621 0 0 1 298.023 38.468 A 11.163 11.163 0 0 1 298.851 37.15 Q 299.401 36.4 300.201 35.9 A 3.17 3.17 0 0 1 301.135 35.51 A 4.059 4.059 0 0 1 302.101 35.4 A 13.465 13.465 0 0 1 303.874 35.52 A 16.474 16.474 0 0 1 306.501 36.1 A 62.893 62.893 0 0 1 307.136 36.297 Q 309.04 36.898 310.501 37.5 A 10.424 10.424 0 0 0 309.177 36.164 A 12.44 12.44 0 0 0 306.901 34.65 Q 304.701 33.5 302.101 33.5 Q 299.101 33.5 297.101 36.1 A 30.143 30.143 0 0 0 296.328 37.086 A 34.006 34.006 0 0 0 293.801 41 L 295.101 38.6 Q 296.001 37 297.101 35.75 A 10.461 10.461 0 0 1 297.38 35.445 A 9.094 9.094 0 0 1 299.551 33.75 A 5.74 5.74 0 0 1 301.063 33.176 A 7.306 7.306 0 0 1 302.701 33 Q 304.901 33 306.701 33.9 A 23.862 23.862 0 0 1 307.994 34.596 A 19.315 19.315 0 0 1 309.901 35.85 A 26.042 26.042 0 0 1 310.085 35.989 Q 310.722 36.476 311.261 36.952 A 15.524 15.524 0 0 1 312.251 37.9 A 24.976 24.976 0 0 0 312.263 37.913 Q 313.203 38.901 313.501 39 Q 314.378 39.439 315.099 39.603 A 3.629 3.629 0 0 0 315.901 39.7 A 1.816 1.816 0 0 0 316.055 39.694 Q 317.201 39.596 317.201 38 A 2.17 2.17 0 0 0 317.199 37.926 Q 317.186 37.534 317.033 37.003 A 7.994 7.994 0 0 0 316.851 36.45 Q 316.501 35.5 316.001 34.6 Q 315.501 33.7 314.901 33.05 A 3.933 3.933 0 0 0 314.799 32.944 Q 314.258 32.4 313.801 32.4 A 1.24 1.24 0 0 1 313.814 32.214 A 0.812 0.812 0 0 1 314.151 31.65 Q 314.501 31.4 315.001 31.2 A 17.341 17.341 0 0 0 313.149 29.73 A 20.31 20.31 0 0 0 309.501 27.75 Q 306.301 26.4 302.801 26.4 A 27.315 27.315 0 0 0 302.196 26.407 Q 299.436 26.468 297.901 27.1 A 18.848 18.848 0 0 0 297.56 27.253 Q 296.814 27.597 296.006 28.046 A 32.931 32.931 0 0 0 294.401 29 Q 296.201 27.8 297.801 27 A 5.099 5.099 0 0 1 298.184 26.818 Q 299.864 26.1 302.901 26.1 Q 306.401 26.1 309.701 27.4 Q 313.001 28.7 315.601 31.2 A 1.174 1.174 0 0 0 315.795 31.117 Q 316.201 30.894 316.201 30.4 L 315.601 29.4 A 3.265 3.265 0 0 0 315.571 29.342 Q 315.221 28.676 314.455 27.945 A 11.682 11.682 0 0 0 313.651 27.25 Q 312.699 26.495 311.252 25.827 A 21.69 21.69 0 0 0 309.601 25.15 A 12.946 12.946 0 0 0 307.969 24.679 Q 305.813 24.2 302.901 24.2 Q 300.429 24.2 298.376 24.716 A 12.225 12.225 0 0 0 293.851 26.85 A 16.684 16.684 0 0 0 292.69 27.83 Q 291.235 29.175 289.925 30.989 A 30.641 30.641 0 0 0 287.701 34.6 Q 287.001 32.9 286.151 30.95 A 59.567 59.567 0 0 0 285.669 29.873 A 51.249 51.249 0 0 0 284.401 27.3 Q 283.838 26.238 283.315 25.409 A 16.911 16.911 0 0 0 282.701 24.5 Q 282.126 23.709 281.706 23.487 A 0.658 0.658 0 0 0 281.401 23.4 Q 281.141 23.4 281.028 23.527 A 0.339 0.339 0 0 0 280.951 23.7 A 4.728 4.728 0 0 0 280.924 23.882 Q 280.913 23.968 280.907 24.043 A 2.073 2.073 0 0 0 280.901 24.2 A 4.825 4.825 0 0 0 280.901 24.283 Q 280.912 24.877 281.066 25.697 A 17.243 17.243 0 0 0 281.251 26.55 Q 281.601 28 282.001 29.8 Q 282.401 31.6 282.801 33.55 A 29.394 29.394 0 0 1 283.093 35.208 A 23.252 23.252 0 0 1 283.301 37.2 A 0.737 0.737 0 0 0 283.202 37.207 Q 283.011 37.233 282.701 37.35 A 4.376 4.376 0 0 1 282.55 37.404 Q 282.361 37.467 282.227 37.488 A 0.795 0.795 0 0 1 282.101 37.5 A 67.526 67.526 0 0 0 281.996 36.975 Q 281.518 34.615 281.087 33.424 A 5.588 5.588 0 0 0 280.801 32.75 Q 280.384 31.95 280.015 31.707 A 0.571 0.571 0 0 0 279.701 31.6 Q 279.201 31.6 278.601 31.85 Q 278.001 32.1 277.301 32.4 Q 278.201 35.3 278.701 38.3 Q 279.201 41.3 279.201 44.4 Q 279.201 45 279.151 45.6 Q 279.101 46.2 279.101 46.8 Q 279.601 49.2 279.851 51.3 Q 280.101 53.4 280.301 55.4 L 280.701 59.3 A 97.836 97.836 0 0 0 280.835 60.507 A 114.592 114.592 0 0 0 281.201 63.3 Q 281.701 66.5 282.601 69.6 A 33.038 33.038 0 0 1 283.254 72.236 A 25.331 25.331 0 0 1 283.701 75.4 L 284.201 84.8 L 284.201 86.6 L 284.601 88.4 A 0.198 0.198 0 0 0 284.63 88.398 Q 284.821 88.369 285.487 88.004 A 22.89 22.89 0 0 0 285.851 87.8 A 3.043 3.043 0 0 1 286.396 87.562 Q 287.481 87.2 289.501 87.2 L 292.401 87.2 A 12.91 12.91 0 0 0 293.412 87.162 A 10.098 10.098 0 0 0 294.601 87 L 297.101 86 L 296.501 80.3 L 296.201 78.4 A 84.857 84.857 0 0 0 295.9 75.53 A 66.291 66.291 0 0 0 295.401 72.15 A 716.406 716.406 0 0 1 295.369 71.972 A 659.352 659.352 0 0 1 294.451 66.6 Q 294.001 63.9 293.701 61.2 A 46.433 46.433 0 0 1 293.556 59.658 A 53.876 53.876 0 0 1 293.401 55.5 A 55.399 55.399 0 0 1 293.436 53.509 A 47.551 47.551 0 0 1 293.901 48.3 A 19.955 19.955 0 0 1 294.313 46.073 A 15.707 15.707 0 0 1 295.501 42.8 M 181.501 70.9 L 182.601 69.9 Q 182.509 69.444 182.501 69.071 A 3.308 3.308 0 0 1 182.501 69 L 182.501 68 A 25.397 25.397 0 0 1 182.596 65.863 Q 182.689 64.773 182.87 63.567 A 44.25 44.25 0 0 1 183.001 62.75 Q 183.501 59.8 184.151 56.75 Q 184.801 53.7 185.301 50.85 A 39.144 39.144 0 0 0 185.605 48.818 Q 185.801 47.213 185.801 45.9 L 184.601 45.6 A 95.106 95.106 0 0 1 184.387 47.824 Q 184.266 48.957 184.109 50.205 A 158.783 158.783 0 0 1 184.001 51.05 A 875.049 875.049 0 0 1 183.262 56.541 A 963.186 963.186 0 0 1 183.151 57.35 Q 182.701 60.6 182.301 63.8 Q 182.101 65.5 181.901 67 Q 182.101 64.2 182.401 61 Q 182.901 56.4 183.451 51.85 Q 184.001 47.3 184.501 42.9 Q 185.001 38.5 185.501 34.8 Q 185.501 33.394 186.16 31.768 A 11.957 11.957 0 0 1 186.251 31.55 Q 187.001 29.8 187.301 27.9 Q 187.691 28.03 187.997 28.076 A 2.075 2.075 0 0 0 188.301 28.1 L 189.001 28.1 A 3.452 3.452 0 0 1 189.431 28.125 Q 189.893 28.183 190.141 28.379 A 0.742 0.742 0 0 1 190.301 28.55 A 1.59 1.59 0 0 1 190.5 28.992 Q 190.56 29.197 190.584 29.443 A 3.654 3.654 0 0 1 190.601 29.8 L 190.601 30.3 L 191.501 30.6 A 9.01 9.01 0 0 1 192.346 29.288 A 6.837 6.837 0 0 1 193.401 28.2 Q 194.323 27.445 195.245 27.323 A 2.709 2.709 0 0 1 195.601 27.3 A 2.22 2.22 0 0 1 195.657 27.301 Q 197.652 27.351 197.949 31.01 A 17.254 17.254 0 0 1 198.001 32.4 A 30.043 30.043 0 0 1 197.786 35.912 A 37.011 37.011 0 0 1 197.451 38.15 A 33.911 33.911 0 0 0 196.909 43.373 A 30.886 30.886 0 0 0 196.901 44.1 L 196.901 45.4 A 33.886 33.886 0 0 1 196.679 49.172 A 44.154 44.154 0 0 1 196.201 52.35 Q 195.501 56.1 194.651 59.95 Q 193.801 63.8 193.101 67.4 Q 192.401 71 192.401 74 Q 192.401 74.7 192.501 75.5 A 13.221 13.221 0 0 1 192.584 76.415 A 10.691 10.691 0 0 1 192.601 77 A 6.316 6.316 0 0 1 192.575 77.596 Q 192.481 78.576 192.051 78.85 A 2.175 2.175 0 0 1 191.309 79.142 A 3.05 3.05 0 0 1 190.701 79.2 A 43.301 43.301 0 0 0 190.687 78.141 Q 190.663 77.188 190.601 76 A 78.734 78.734 0 0 1 190.529 74.307 Q 190.501 73.397 190.501 72.6 Q 190.301 73.7 190.301 75.6 A 32.391 32.391 0 0 1 190.206 78.118 A 27.701 27.701 0 0 1 190.101 79.2 L 188.601 79.2 L 188.601 80.4 A 4.012 4.012 0 0 1 188.03 81.191 A 2.428 2.428 0 0 1 186.201 82 Q 185.64 82 184.951 81.743 A 6.143 6.143 0 0 1 184.601 81.6 A 6.334 6.334 0 0 1 183.982 81.286 Q 183.689 81.115 183.457 80.929 A 3.154 3.154 0 0 1 183.201 80.7 A 104.138 104.138 0 0 0 183.494 78.466 Q 183.613 77.48 183.727 76.401 A 182.274 182.274 0 0 0 183.951 74.15 Q 184.301 70.4 184.601 66.6 Q 184.901 62.8 185.201 59.15 Q 185.501 55.5 185.801 52.8 Q 185.371 55.12 185.015 58.031 A 124.467 124.467 0 0 0 184.901 59 Q 184.501 62.5 184.101 66.2 Q 183.701 69.9 183.301 73.55 Q 182.927 76.958 182.641 79.712 A 783.686 783.686 0 0 0 182.601 80.1 A 3.644 3.644 0 0 1 181.701 79.271 A 3.018 3.018 0 0 1 181.101 77.4 Q 181.101 75.4 181.201 74.05 A 66.199 66.199 0 0 1 181.29 72.974 Q 181.376 72.025 181.501 70.9 Z M 229.301 37.4 L 229.901 38.3 A 16.51 16.51 0 0 1 232.834 37.498 A 13.354 13.354 0 0 1 235.101 37.3 A 13.443 13.443 0 0 1 236.517 37.37 Q 238.012 37.529 238.951 38.05 A 5.248 5.248 0 0 1 239.493 38.392 Q 240.04 38.791 240.217 39.204 A 0.999 0.999 0 0 1 240.301 39.6 A 0.571 0.571 0 0 1 240.194 39.914 Q 239.95 40.283 239.151 40.7 Q 238.122 41.237 236.613 42.134 A 101.823 101.823 0 0 0 236.251 42.35 A 31.487 31.487 0 0 0 234.544 43.455 Q 233.54 44.15 232.451 45 A 17.808 17.808 0 0 0 230.005 47.332 A 22.346 22.346 0 0 0 228.651 49.05 A 19.081 19.081 0 0 0 226.961 51.949 A 25.947 25.947 0 0 0 225.751 55 Q 224.674 58.278 224.605 62.608 A 37.495 37.495 0 0 0 224.601 63.2 A 24.509 24.509 0 0 0 224.888 67.089 Q 225.217 69.128 225.92 70.755 A 10.575 10.575 0 0 0 227.701 73.6 A 10.156 10.156 0 0 0 233.777 76.895 A 14.852 14.852 0 0 0 236.301 77.1 A 22.103 22.103 0 0 0 241.861 76.368 A 25.878 25.878 0 0 0 243.451 75.9 Q 247.101 74.7 250.051 72.5 Q 253.001 70.3 254.851 67.1 Q 256.701 63.9 256.701 59.9 Q 256.701 56.9 255.651 53.9 Q 254.601 50.9 252.751 48.15 A 30.209 30.209 0 0 0 248.509 43.15 A 33.258 33.258 0 0 0 248.351 43 Q 245.801 40.6 242.801 38.9 Q 239.901 37.3 238.051 36.45 A 17.12 17.12 0 0 1 237.093 35.976 Q 235.976 35.375 235.401 34.8 A 14.082 14.082 0 0 1 234.837 35.065 Q 234.148 35.372 233.151 35.75 Q 231.841 36.247 229.756 37.192 A 125.944 125.944 0 0 0 229.301 37.4 Z M 205.201 5.5 L 202.901 7.8 A 0.27 0.27 0 0 0 202.854 7.653 Q 202.772 7.527 202.551 7.4 A 2.626 2.626 0 0 0 202.385 7.312 Q 202.213 7.23 202.086 7.208 A 0.503 0.503 0 0 0 202.001 7.2 Q 201.701 8.2 201.001 8.8 A 20.429 20.429 0 0 1 199.778 9.771 A 18.421 18.421 0 0 1 199.601 9.9 A 19.9 19.9 0 0 0 198.376 10.852 A 22.098 22.098 0 0 0 198.201 11 Q 197.501 11.6 197.201 12.6 L 197.201 12.8 Q 197.201 12.889 197.437 12.899 A 1.514 1.514 0 0 0 197.501 12.9 L 202.501 8.2 L 200.601 10.1 A 121.617 121.617 0 0 1 198.036 12.588 A 134.88 134.88 0 0 1 197.651 12.95 Q 196.101 14.4 194.751 15.5 A 24.779 24.779 0 0 1 194.281 15.874 Q 193.419 16.542 193.144 16.595 A 0.229 0.229 0 0 1 193.101 16.6 L 193.001 16.5 Q 192.301 16.3 191.551 16.3 A 12.308 12.308 0 0 1 190.225 16.226 A 13.75 13.75 0 0 1 190.001 16.2 A 5.808 5.808 0 0 0 189.908 15.188 A 7.369 7.369 0 0 0 189.751 14.5 Q 189.534 13.72 189.505 13.24 A 2.34 2.34 0 0 1 189.501 13.1 A 0.72 0.72 0 0 1 189.525 12.902 Q 189.612 12.6 190.001 12.6 Q 190.001 12.302 189.656 11.66 A 7.629 7.629 0 0 0 189.651 11.65 A 25.793 25.793 0 0 1 189.312 10.997 Q 189.138 10.651 188.954 10.262 A 43.249 43.249 0 0 1 188.901 10.15 A 22.081 22.081 0 0 1 188.261 8.644 A 24.714 24.714 0 0 1 188.151 8.35 Q 187.801 7.4 187.801 6.4 Q 187.801 5.4 188.651 4.45 Q 189.501 3.5 190.651 2.8 A 22.369 22.369 0 0 1 192.208 1.932 A 19.022 19.022 0 0 1 192.901 1.6 Q 193.96 1.119 194.463 0.915 A 11.178 11.178 0 0 1 194.501 0.9 A 0.512 0.512 0 0 0 194.625 0.886 Q 194.872 0.824 194.807 0.482 A 1.02 1.02 0 0 0 194.801 0.45 A 0.951 0.951 0 0 1 194.789 0.385 Q 194.731 0 195.101 0 L 196.901 0.6 A 1.846 1.846 0 0 1 196.76 0.87 Q 196.455 1.37 195.651 2.25 Q 194.64 3.357 194.139 3.862 A 15.105 15.105 0 0 1 194.101 3.9 A 7.333 7.333 0 0 0 194.563 3.539 Q 195.098 3.088 195.751 2.4 Q 196.478 1.634 196.942 1.162 A 38.728 38.728 0 0 1 197.201 0.9 Q 197.701 1.1 198.101 1.3 Q 198.408 1.454 198.597 1.489 A 0.564 0.564 0 0 0 198.701 1.5 L 199.001 1.2 Q 199.701 1.2 200.551 1.5 A 10.011 10.011 0 0 1 201.625 1.948 A 8.48 8.48 0 0 1 202.101 2.2 A 6.126 6.126 0 0 1 202.861 2.71 A 5.038 5.038 0 0 1 203.301 3.1 A 3.714 3.714 0 0 1 203.496 3.309 Q 203.801 3.666 203.801 3.9 A 12.426 12.426 0 0 0 201.067 6.097 A 14.235 14.235 0 0 0 200.701 6.5 Q 199.301 8.1 197.801 9.6 Q 198.701 9 199.401 8.3 Q 200.101 7.6 200.851 6.9 A 33.419 33.419 0 0 1 202.032 5.85 A 37.155 37.155 0 0 1 202.451 5.5 A 11.591 11.591 0 0 1 203.674 4.624 A 14.108 14.108 0 0 1 204.401 4.2 A 21.552 21.552 0 0 0 204.654 4.531 Q 204.81 4.731 204.951 4.9 A 1.287 1.287 0 0 1 205.096 5.111 Q 205.171 5.25 205.192 5.39 A 0.727 0.727 0 0 1 205.201 5.5 Z M 104.001 57.1 A 67.243 67.243 0 0 0 104.449 54.202 A 60.677 60.677 0 0 0 104.501 53.8 L 104.901 51 Q 104.901 50.863 104.948 50.678 A 2.608 2.608 0 0 1 105.001 50.5 Q 104.935 50.697 104.913 50.851 A 1.034 1.034 0 0 0 104.901 51 A 61.847 61.847 0 0 1 103.838 56.695 A 76.072 76.072 0 0 1 102.901 60.3 Q 101.501 65.4 99.001 69.95 Q 96.501 74.5 92.701 78 Q 89.101 81.3 84.301 82.5 Q 88.501 81.6 91.801 79 Q 95.201 76.3 97.601 72.7 Q 100.001 69.1 101.551 65 Q 103.101 60.9 104.001 57.1 Z M 106.301 55.1 A 67.237 67.237 0 0 1 105.418 59.452 Q 104.897 61.663 104.195 64.077 A 108.972 108.972 0 0 1 104.101 64.4 Q 102.401 69.8 99.251 74.5 Q 96.101 79.2 91.301 82.4 A 18.792 18.792 0 0 1 83.948 85.255 A 25.194 25.194 0 0 1 79.701 85.6 Q 75.901 85.6 72.201 84.6 Q 68.501 83.6 65.301 81.5 Q 64.101 80.7 63.001 79.7 Q 64.101 80.7 65.301 81.5 Q 64.101 80.7 63.001 79.7 M 106.301 55.1 Q 105.501 59.3 103.901 64.3 Q 102.201 69.6 99.051 74.25 Q 95.901 78.9 91.001 82 A 19.347 19.347 0 0 1 84.729 84.528 A 26.343 26.343 0 0 1 79.101 85.1 A 13.338 13.338 0 0 1 79.038 85.1 Q 77.651 85.093 75.451 84.8 A 28.125 28.125 0 0 1 73.425 84.451 A 35.66 35.66 0 0 1 70.651 83.75 Q 68.101 83 65.701 81.7 L 65.301 81.5 M 237.001 32.9 L 236.601 33.6 A 32.098 32.098 0 0 1 244.742 37.64 A 36.222 36.222 0 0 1 245.401 38.1 Q 249.001 40.8 252.001 44 Q 249.101 40.6 245.701 37.9 Q 241.801 34.7 237.001 32.9 Z M 131.901 35.8 L 131.901 35.9 A 25.35 25.35 0 0 1 133.699 32.791 A 33.94 33.94 0 0 1 135.801 30 A 13.654 13.654 0 0 1 140.022 26.726 A 17.536 17.536 0 0 1 142.201 25.8 A 116.12 116.12 0 0 0 140.307 26.4 A 104.062 104.062 0 0 0 139.701 26.6 Q 138.301 27.1 137.201 28.2 A 16.093 16.093 0 0 0 135.267 30.134 A 12.877 12.877 0 0 0 134.051 31.85 Q 132.901 33.8 131.901 35.8 Z M 268.301 60.1 Q 268.301 61.7 268.101 63.25 A 13.142 13.142 0 0 1 267.734 65.09 A 11.08 11.08 0 0 1 267.401 66.1 A 18.482 18.482 0 0 0 267.967 63.098 A 24.219 24.219 0 0 0 268.101 60.5 Q 268.101 58.2 267.701 56 Q 267.401 54.1 266.901 52.3 Q 267.401 54.1 267.801 55.9 A 17.092 17.092 0 0 1 268.296 59.689 A 19.118 19.118 0 0 1 268.301 60.1 Z M 256.001 67.7 Q 254.501 70.9 251.801 73.4 Q 253.601 72.2 254.851 70.5 A 21.757 21.757 0 0 0 256.298 68.269 A 18.308 18.308 0 0 0 256.901 67.1 Q 257.616 65.579 258.012 64.299 A 14.648 14.648 0 0 0 258.101 64 Q 258.369 62.837 258.557 62.074 A 61.717 61.717 0 0 1 258.601 61.9 Q 257.536 64.416 256.097 67.494 A 229.789 229.789 0 0 1 256.001 67.7 Z M 149.201 24.9 A 4.08 4.08 0 0 0 148.849 24.847 Q 148.48 24.807 147.971 24.801 A 15.175 15.175 0 0 0 147.801 24.8 A 80.281 80.281 0 0 1 152.012 25.971 A 68.089 68.089 0 0 1 153.801 26.55 A 10.734 10.734 0 0 1 156.691 28.081 Q 157.929 28.988 159.101 30.3 A 11.484 11.484 0 0 0 154.99 26.866 A 13.465 13.465 0 0 0 154.651 26.7 A 23.341 23.341 0 0 0 150.914 25.296 A 20.123 20.123 0 0 0 149.201 24.9 Z M 262.701 76.3 Q 262.601 76.5 262.401 76.7 A 0.451 0.451 0 0 1 262.34 76.752 Q 262.27 76.8 262.201 76.8 A 0.014 0.014 0 0 1 262.187 76.785 Q 262.173 76.673 262.701 75.75 A 194.027 194.027 0 0 1 263.186 74.906 Q 263.403 74.531 263.644 74.117 A 368.764 368.764 0 0 1 264.151 73.25 A 51.52 51.52 0 0 0 265.6 70.598 A 56.58 56.58 0 0 0 265.801 70.2 Q 266.307 69.332 266.604 68.621 A 7.546 7.546 0 0 0 266.801 68.1 A 1.045 1.045 0 0 0 266.842 68.006 A 0.851 0.851 0 0 0 266.901 67.7 A 0.817 0.817 0 0 1 266.882 67.875 A 0.963 0.963 0 0 1 266.801 68.1 Q 265.401 72.4 262.701 76.3 Z M 94.101 64.1 Q 93.001 66.3 91.651 68.3 Q 90.301 70.3 88.601 71.9 Q 90.401 70.4 91.751 68.4 Q 93.101 66.4 94.101 64.1 Z M 161.052 32.947 A 23.183 23.183 0 0 0 159.301 30.5 Q 161.201 32.2 162.101 34.1 Q 163.001 36 164.001 38.3 A 252.596 252.596 0 0 0 163.742 37.812 Q 163.344 37.065 162.893 36.229 A 448.23 448.23 0 0 0 161.901 34.4 A 28.216 28.216 0 0 0 161.052 32.947 Z M 152.901 37.2 L 151.901 36.3 Q 151.101 35.7 150.051 35.35 A 33.012 33.012 0 0 1 149.2 35.052 Q 148.819 34.914 148.394 34.751 A 68.953 68.953 0 0 1 147.501 34.4 L 147.401 34.2 Q 149.101 34.3 150.401 34.95 Q 151.472 35.486 152.476 36.667 A 11.221 11.221 0 0 1 152.901 37.2 Z M 235.901 33.5 L 236.601 32 L 235.701 31.6 Q 235.601 31.8 235.401 32 Q 235.267 32.134 235.223 32.267 A 0.419 0.419 0 0 0 235.201 32.4 A 0.456 0.456 0 0 0 235.222 32.53 Q 235.26 32.655 235.363 32.82 A 2.643 2.643 0 0 0 235.451 32.95 A 6.598 6.598 0 0 0 235.617 33.173 Q 235.769 33.369 235.901 33.5 Z M 181.701 69.4 L 181.901 67.2 Q 181.801 68.4 181.701 69.4 Z M 252.601 44.7 A 7.271 7.271 0 0 0 252.263 44.282 A 5.679 5.679 0 0 0 252.001 44 A 7.271 7.271 0 0 0 252.338 44.418 A 5.679 5.679 0 0 0 252.601 44.7 Z M 106.301 55.1 L 106.401 54.4 L 106.301 55.1 Z M 267.001 67.5 A 0.451 0.451 0 0 0 266.949 67.561 Q 266.901 67.63 266.901 67.7 Q 266.901 67.617 266.969 67.534 A 0.497 0.497 0 0 1 267.001 67.5 Z" vector-effect="non-scaling-stroke"/></g></svg>